G04 #@! TF.FileFunction,Copper,L2,Bot,Signal*
%FSLAX46Y46*%
G04 Gerber Fmt 4.6, Leading zero omitted, Abs format (unit mm)*
G04 Created by KiCad (PCBNEW 4.0.6+dfsg1-1) date Mon Feb 26 19:35:47 2018*
%MOMM*%
%LPD*%
G01*
G04 APERTURE LIST*
%ADD10C,0.100000*%
%ADD11R,1.700000X1.700000*%
%ADD12O,1.700000X1.700000*%
%ADD13R,2.500000X2.500000*%
%ADD14C,2.500000*%
%ADD15C,1.524000*%
%ADD16C,6.400000*%
%ADD17C,0.600000*%
%ADD18R,1.300000X0.700000*%
%ADD19R,0.700000X1.300000*%
%ADD20C,0.250000*%
%ADD21C,0.500000*%
%ADD22C,1.500000*%
%ADD23C,2.000000*%
%ADD24C,1.000000*%
%ADD25C,0.254000*%
G04 APERTURE END LIST*
D10*
D11*
X2357120Y34620200D03*
D12*
X4897120Y34620200D03*
X7437120Y34620200D03*
D13*
X10231120Y4775200D03*
D14*
X15231120Y4775200D03*
D11*
X49347120Y36652200D03*
D12*
X49347120Y34112200D03*
X49347120Y31572200D03*
D11*
X41854120Y30683200D03*
D12*
X41854120Y33223200D03*
X41854120Y35763200D03*
X41854120Y38303200D03*
X41854120Y40843200D03*
X41854120Y43383200D03*
X41854120Y45923200D03*
X41854120Y48463200D03*
D11*
X16454120Y14300200D03*
D12*
X16454120Y16840200D03*
D11*
X16327120Y25476200D03*
D12*
X16327120Y22936200D03*
X16327120Y20396200D03*
D11*
X41854120Y27000200D03*
D12*
X41854120Y24460200D03*
X41854120Y21920200D03*
D11*
X11120120Y40335200D03*
D12*
X13660120Y40335200D03*
X16200120Y40335200D03*
D11*
X2357120Y28524200D03*
D12*
X4897120Y28524200D03*
X7437120Y28524200D03*
D11*
X2357120Y31572200D03*
D12*
X4897120Y31572200D03*
X7437120Y31572200D03*
D11*
X2357120Y37668200D03*
D12*
X4897120Y37668200D03*
X7437120Y37668200D03*
D15*
X21407120Y10236200D03*
X21407120Y12776200D03*
X21407120Y15316200D03*
X21407120Y17856200D03*
X21407120Y20396200D03*
X21407120Y22936200D03*
X21407120Y25476200D03*
X21407120Y28016200D03*
X21407120Y30556200D03*
X21407120Y33096200D03*
X21407120Y35636200D03*
X21407120Y38176200D03*
X21407120Y40716200D03*
X21407120Y43256200D03*
X21407120Y45796200D03*
X21407120Y48336200D03*
X21407120Y50876200D03*
X21407120Y53416200D03*
X21407120Y55956200D03*
X21407120Y58496200D03*
X36647120Y58496200D03*
X36647120Y55956200D03*
X36647120Y53416200D03*
X36647120Y50876200D03*
X36647120Y48336200D03*
X36647120Y45796200D03*
X36647120Y43256200D03*
X36647120Y40716200D03*
X36647120Y38176200D03*
X36647120Y35636200D03*
X36647120Y33096200D03*
X36647120Y30556200D03*
X36647120Y28016200D03*
X36647120Y25476200D03*
X36647120Y22936200D03*
X36647120Y20396200D03*
X36647120Y17856200D03*
X36647120Y15316200D03*
X36647120Y12776200D03*
X36647120Y10236200D03*
D13*
X5405120Y63830200D03*
D14*
X5405120Y68830200D03*
D11*
X51760120Y5537200D03*
D12*
X51760120Y8077200D03*
X51760120Y10617200D03*
X51760120Y13157200D03*
X51760120Y15697200D03*
X51760120Y18237200D03*
D11*
X46172120Y5537200D03*
D12*
X46172120Y8077200D03*
X46172120Y10617200D03*
X46172120Y13157200D03*
X46172120Y15697200D03*
X46172120Y18237200D03*
D11*
X48966120Y5537200D03*
D12*
X48966120Y8077200D03*
X48966120Y10617200D03*
X48966120Y13157200D03*
X48966120Y15697200D03*
X48966120Y18237200D03*
D11*
X1722120Y45923200D03*
D12*
X1722120Y48463200D03*
X1722120Y51003200D03*
X1722120Y53543200D03*
X1722120Y56083200D03*
D11*
X7310120Y45923200D03*
D12*
X7310120Y48463200D03*
X7310120Y51003200D03*
X7310120Y53543200D03*
X7310120Y56083200D03*
D11*
X4516120Y45923200D03*
D12*
X4516120Y48463200D03*
X4516120Y51003200D03*
X4516120Y53543200D03*
X4516120Y56083200D03*
D16*
X49855120Y67386200D03*
D17*
X52255120Y67386200D03*
X51552176Y65689144D03*
X49855120Y64986200D03*
X48158064Y65689144D03*
X47455120Y67386200D03*
X48158064Y69083256D03*
X49855120Y69786200D03*
X51552176Y69083256D03*
D16*
X36520120Y3886200D03*
D17*
X38920120Y3886200D03*
X38217176Y2189144D03*
X36520120Y1486200D03*
X34823064Y2189144D03*
X34120120Y3886200D03*
X34823064Y5583256D03*
X36520120Y6286200D03*
X38217176Y5583256D03*
D16*
X49220120Y42875200D03*
D17*
X51620120Y42875200D03*
X50917176Y41178144D03*
X49220120Y40475200D03*
X47523064Y41178144D03*
X46820120Y42875200D03*
X47523064Y44572256D03*
X49220120Y45275200D03*
X50917176Y44572256D03*
D16*
X14930120Y57353200D03*
D17*
X17330120Y57353200D03*
X16627176Y55656144D03*
X14930120Y54953200D03*
X13233064Y55656144D03*
X12530120Y57353200D03*
X13233064Y59050256D03*
X14930120Y59753200D03*
X16627176Y59050256D03*
D16*
X3881120Y4648200D03*
D17*
X6281120Y4648200D03*
X5578176Y2951144D03*
X3881120Y2248200D03*
X2184064Y2951144D03*
X1481120Y4648200D03*
X2184064Y6345256D03*
X3881120Y7048200D03*
X5578176Y6345256D03*
D18*
X45115480Y46710560D03*
X45115480Y48610560D03*
D19*
X43296800Y52156360D03*
X45196800Y52156360D03*
D11*
X47442120Y47510700D03*
D12*
X47442120Y50050700D03*
X47442120Y52590700D03*
X47442120Y55130700D03*
D17*
X41092120Y52824200D03*
X34716720Y47752000D03*
X20264120Y63797200D03*
X33345120Y66370200D03*
X43441620Y48590200D03*
X33980120Y21793200D03*
D20*
X36647120Y55956200D02*
X37917120Y55956200D01*
D21*
X41092120Y52781200D02*
X41092120Y52824200D01*
D20*
X41770120Y52824200D02*
X44076620Y55130700D01*
X44076620Y55130700D02*
X47442120Y55130700D01*
X41092120Y52824200D02*
X41770120Y52824200D01*
X41049120Y52824200D02*
X41092120Y52824200D01*
X37917120Y55956200D02*
X41049120Y52824200D01*
D22*
X36647120Y55956200D02*
X34869120Y55956200D01*
X33345120Y57480200D02*
X33345120Y66370200D01*
X34869120Y55956200D02*
X33345120Y57480200D01*
D23*
X20264120Y63797200D02*
X20485120Y63797200D01*
X17818120Y66243200D02*
X20264120Y63797200D01*
X17818120Y66243200D02*
X11628120Y66243200D01*
X11628120Y66243200D02*
X9041120Y68830200D01*
X5405120Y68830200D02*
X9041120Y68830200D01*
X23058120Y66370200D02*
X33345120Y66370200D01*
X20485120Y63797200D02*
X23058120Y66370200D01*
D20*
X45115480Y46710560D02*
X46641980Y46710560D01*
X46641980Y46710560D02*
X47442120Y47510700D01*
X43296800Y52156360D02*
X42824400Y52156360D01*
X38455600Y51607720D02*
X36647120Y53416200D01*
X42275760Y51607720D02*
X38455600Y51607720D01*
X42824400Y52156360D02*
X42275760Y51607720D01*
X45115480Y46710560D02*
X43840360Y46710560D01*
X43840360Y46710560D02*
X43441620Y46311820D01*
X49347120Y36652200D02*
X44965620Y36652200D01*
X43441620Y38176200D02*
X43441620Y46311820D01*
X43441620Y46311820D02*
X43441620Y48590200D01*
X44965620Y36652200D02*
X43441620Y38176200D01*
D21*
X36647120Y58496200D02*
X46172120Y58496200D01*
X46172120Y58496200D02*
X53030120Y51638200D01*
X53030120Y51638200D02*
X53030120Y35763200D01*
X53030120Y35763200D02*
X53030120Y32080200D01*
X53030120Y32080200D02*
X52522120Y31572200D01*
X52522120Y31572200D02*
X49347120Y31572200D01*
D20*
X36647120Y40716200D02*
X26868120Y40716200D01*
X8707120Y44526200D02*
X7310120Y45923200D01*
X23058120Y44526200D02*
X8707120Y44526200D01*
X26868120Y40716200D02*
X23058120Y44526200D01*
X33980120Y21793200D02*
X34107120Y21666200D01*
X34107120Y21666200D02*
X37917120Y21666200D01*
X37917120Y21666200D02*
X41346120Y18237200D01*
X41346120Y18237200D02*
X46172120Y18237200D01*
D24*
X7310120Y56083200D02*
X10358120Y56083200D01*
X17851120Y48336200D02*
X21407120Y48336200D01*
X10993120Y55194200D02*
X17851120Y48336200D01*
X10993120Y55448200D02*
X10993120Y55194200D01*
X10358120Y56083200D02*
X10993120Y55448200D01*
X7310120Y53543200D02*
X10231120Y53543200D01*
X17978120Y45796200D02*
X21407120Y45796200D01*
X10231120Y53543200D02*
X17978120Y45796200D01*
X36647120Y25476200D02*
X37790120Y25476200D01*
X38806120Y24460200D02*
X41854120Y24460200D01*
X37790120Y25476200D02*
X38806120Y24460200D01*
X36647120Y22936200D02*
X38171120Y22936200D01*
X39187120Y21920200D02*
X41854120Y21920200D01*
X38171120Y22936200D02*
X39187120Y21920200D01*
X13660120Y40335200D02*
X13660120Y40970200D01*
X13660120Y40970200D02*
X15057120Y42367200D01*
X15057120Y42367200D02*
X20518120Y42367200D01*
X20518120Y42367200D02*
X21407120Y43256200D01*
X16200120Y40335200D02*
X17470120Y40335200D01*
X17851120Y40716200D02*
X21407120Y40716200D01*
X17470120Y40335200D02*
X17851120Y40716200D01*
X21280120Y40589200D02*
X21407120Y40716200D01*
D21*
X4897120Y28524200D02*
X4897120Y28651200D01*
X4897120Y28651200D02*
X6294120Y30048200D01*
X6294120Y30048200D02*
X14676120Y30048200D01*
X14676120Y30048200D02*
X19248120Y25476200D01*
X19248120Y25476200D02*
X21407120Y25476200D01*
X4897120Y31572200D02*
X4897120Y31953200D01*
X4897120Y31953200D02*
X6040120Y33096200D01*
X6040120Y33096200D02*
X12644120Y33096200D01*
X12644120Y33096200D02*
X17724120Y28016200D01*
X17724120Y28016200D02*
X21407120Y28016200D01*
X4897120Y34620200D02*
X4897120Y34747200D01*
X4897120Y34747200D02*
X6294120Y36144200D01*
X6294120Y36144200D02*
X11882120Y36144200D01*
X11882120Y36144200D02*
X17470120Y30556200D01*
X17470120Y30556200D02*
X21407120Y30556200D01*
X4897120Y37668200D02*
X4897120Y37922200D01*
X4897120Y37922200D02*
X6167120Y39192200D01*
X6167120Y39192200D02*
X8326120Y39192200D01*
X8326120Y39192200D02*
X10485120Y37033200D01*
X10485120Y37033200D02*
X13533120Y37033200D01*
X13533120Y37033200D02*
X17470120Y33096200D01*
X17470120Y33096200D02*
X21407120Y33096200D01*
D24*
X41854120Y30683200D02*
X43124120Y30683200D01*
X45537120Y34112200D02*
X49347120Y34112200D01*
X44521120Y33096200D02*
X45537120Y34112200D01*
X44521120Y32080200D02*
X44521120Y33096200D01*
X43124120Y30683200D02*
X44521120Y32080200D01*
D20*
X36647120Y43256200D02*
X37028120Y43256200D01*
X37028120Y43256200D02*
X39250620Y45478700D01*
X43548340Y50177700D02*
X45115480Y48610560D01*
X41028620Y50177700D02*
X43548340Y50177700D01*
X39250620Y48399700D02*
X41028620Y50177700D01*
X39250620Y45478700D02*
X39250620Y48399700D01*
X45115480Y48610560D02*
X45115480Y49375060D01*
X45791120Y50050700D02*
X47442120Y50050700D01*
X45115480Y49375060D02*
X45791120Y50050700D01*
X36647120Y43256200D02*
X36647120Y43637200D01*
X45196800Y52156360D02*
X45196800Y51742380D01*
X45196800Y51742380D02*
X44267120Y50812700D01*
X38298120Y47447200D02*
X36647120Y45796200D01*
X38298120Y49288700D02*
X38298120Y47447200D01*
X39822120Y50812700D02*
X38298120Y49288700D01*
X44267120Y50812700D02*
X39822120Y50812700D01*
X45196800Y52156360D02*
X47007780Y52156360D01*
X47007780Y52156360D02*
X47442120Y52590700D01*
X36647120Y45796200D02*
X36647120Y46113700D01*
D25*
G36*
X40369120Y48336198D02*
X40533964Y48336198D01*
X40412644Y48106310D01*
X40582475Y47696276D01*
X40972762Y47268017D01*
X41115673Y47200902D01*
X40774973Y46973254D01*
X40453066Y46491485D01*
X40340027Y45923200D01*
X40453066Y45354915D01*
X40774973Y44873146D01*
X41104146Y44653200D01*
X40774973Y44433254D01*
X40453066Y43951485D01*
X40340027Y43383200D01*
X40453066Y42814915D01*
X40774973Y42333146D01*
X41104146Y42113200D01*
X40774973Y41893254D01*
X40453066Y41411485D01*
X40340027Y40843200D01*
X40453066Y40274915D01*
X40774973Y39793146D01*
X41104146Y39573200D01*
X40774973Y39353254D01*
X40453066Y38871485D01*
X40340027Y38303200D01*
X40453066Y37734915D01*
X40774973Y37253146D01*
X41104146Y37033200D01*
X40774973Y36813254D01*
X40453066Y36331485D01*
X40340027Y35763200D01*
X40453066Y35194915D01*
X40774973Y34713146D01*
X41104146Y34493200D01*
X40774973Y34273254D01*
X40453066Y33791485D01*
X40340027Y33223200D01*
X40453066Y32654915D01*
X40774973Y32173146D01*
X40816572Y32145350D01*
X40768803Y32136362D01*
X40552679Y31997290D01*
X40407689Y31785090D01*
X40356680Y31533200D01*
X40356680Y29833200D01*
X40400958Y29597883D01*
X40540030Y29381759D01*
X40752230Y29236769D01*
X41004120Y29185760D01*
X42704120Y29185760D01*
X42939437Y29230038D01*
X43155561Y29369110D01*
X43300551Y29581310D01*
X43300970Y29583378D01*
X43558466Y29634597D01*
X43926686Y29880634D01*
X45323686Y31277634D01*
X45569723Y31645854D01*
X45580334Y31699200D01*
X45656120Y32080200D01*
X45656120Y32626068D01*
X46007252Y32977200D01*
X48395104Y32977200D01*
X48597146Y32842200D01*
X48267973Y32622254D01*
X47946066Y32140485D01*
X47833027Y31572200D01*
X47946066Y31003915D01*
X48267973Y30522146D01*
X48749742Y30200239D01*
X49318027Y30087200D01*
X49376213Y30087200D01*
X49944498Y30200239D01*
X50426267Y30522146D01*
X50536552Y30687200D01*
X52522115Y30687200D01*
X52522120Y30687199D01*
X52804604Y30743390D01*
X52860795Y30754567D01*
X52955120Y30817593D01*
X52955120Y19113867D01*
X52839267Y19287254D01*
X52357498Y19609161D01*
X51789213Y19722200D01*
X51731027Y19722200D01*
X51162742Y19609161D01*
X50680973Y19287254D01*
X50359066Y18805485D01*
X50346404Y18741830D01*
X50237765Y19004124D01*
X49847478Y19432383D01*
X49323012Y19678686D01*
X49093120Y19558019D01*
X49093120Y18364200D01*
X49113120Y18364200D01*
X49113120Y18110200D01*
X49093120Y18110200D01*
X49093120Y15824200D01*
X49113120Y15824200D01*
X49113120Y15570200D01*
X49093120Y15570200D01*
X49093120Y13284200D01*
X49113120Y13284200D01*
X49113120Y13030200D01*
X49093120Y13030200D01*
X49093120Y10744200D01*
X49113120Y10744200D01*
X49113120Y10490200D01*
X49093120Y10490200D01*
X49093120Y8204200D01*
X49113120Y8204200D01*
X49113120Y7950200D01*
X49093120Y7950200D01*
X49093120Y5664200D01*
X49113120Y5664200D01*
X49113120Y5410200D01*
X49093120Y5410200D01*
X49093120Y4210950D01*
X49251870Y4052200D01*
X49942429Y4052200D01*
X50175818Y4148873D01*
X50354447Y4327501D01*
X50367194Y4358274D01*
X50446030Y4235759D01*
X50658230Y4090769D01*
X50910120Y4039760D01*
X52610120Y4039760D01*
X52845437Y4084038D01*
X52955120Y4154617D01*
X52955120Y786200D01*
X38842952Y786200D01*
X39769379Y1711011D01*
X40354453Y3120025D01*
X40355784Y4645682D01*
X39773170Y6055715D01*
X38695309Y7135459D01*
X37286295Y7720533D01*
X35760638Y7721864D01*
X34350605Y7139250D01*
X33270861Y6061389D01*
X32685787Y4652375D01*
X32684456Y3126718D01*
X33267070Y1716685D01*
X34195932Y786200D01*
X17851120Y786200D01*
X17851120Y9255987D01*
X20606512Y9255987D01*
X20675977Y9013803D01*
X21199422Y8827056D01*
X21754488Y8854838D01*
X22138263Y9013803D01*
X22207728Y9255987D01*
X21407120Y10056595D01*
X20606512Y9255987D01*
X17851120Y9255987D01*
X17851120Y10443898D01*
X19997976Y10443898D01*
X20025758Y9888832D01*
X20184723Y9505057D01*
X20426907Y9435592D01*
X21227515Y10236200D01*
X21586725Y10236200D01*
X22387333Y9435592D01*
X22629517Y9505057D01*
X22816264Y10028502D01*
X22788482Y10583568D01*
X22629517Y10967343D01*
X22387333Y11036808D01*
X21586725Y10236200D01*
X21227515Y10236200D01*
X20426907Y11036808D01*
X20184723Y10967343D01*
X19997976Y10443898D01*
X17851120Y10443898D01*
X17851120Y11795987D01*
X20606512Y11795987D01*
X20675977Y11553803D01*
X20799464Y11509747D01*
X20675977Y11458597D01*
X20606512Y11216413D01*
X21407120Y10415805D01*
X22207728Y11216413D01*
X22138263Y11458597D01*
X22014776Y11502653D01*
X22138263Y11553803D01*
X22207728Y11795987D01*
X21407120Y12596595D01*
X20606512Y11795987D01*
X17851120Y11795987D01*
X17851120Y12014200D01*
X17842435Y12060359D01*
X17815155Y12102753D01*
X17773530Y12131194D01*
X17724120Y12141200D01*
X12009120Y12141200D01*
X12009120Y14014450D01*
X14969120Y14014450D01*
X14969120Y13323890D01*
X15065793Y13090501D01*
X15244422Y12911873D01*
X15477811Y12815200D01*
X16168370Y12815200D01*
X16327120Y12973950D01*
X16327120Y14173200D01*
X16581120Y14173200D01*
X16581120Y12973950D01*
X16739870Y12815200D01*
X17430429Y12815200D01*
X17663818Y12911873D01*
X17735843Y12983898D01*
X19997976Y12983898D01*
X20025758Y12428832D01*
X20184723Y12045057D01*
X20426907Y11975592D01*
X21227515Y12776200D01*
X21586725Y12776200D01*
X22387333Y11975592D01*
X22629517Y12045057D01*
X22816264Y12568502D01*
X22788482Y13123568D01*
X22629517Y13507343D01*
X22387333Y13576808D01*
X21586725Y12776200D01*
X21227515Y12776200D01*
X20426907Y13576808D01*
X20184723Y13507343D01*
X19997976Y12983898D01*
X17735843Y12983898D01*
X17842447Y13090501D01*
X17939120Y13323890D01*
X17939120Y14014450D01*
X17780370Y14173200D01*
X16581120Y14173200D01*
X16327120Y14173200D01*
X15127870Y14173200D01*
X14969120Y14014450D01*
X12009120Y14014450D01*
X12009120Y16840200D01*
X14940027Y16840200D01*
X15053066Y16271915D01*
X15374973Y15790146D01*
X15418897Y15760797D01*
X15244422Y15688527D01*
X15065793Y15509899D01*
X14969120Y15276510D01*
X14969120Y14585950D01*
X15127870Y14427200D01*
X16327120Y14427200D01*
X16327120Y14447200D01*
X16581120Y14447200D01*
X16581120Y14427200D01*
X17780370Y14427200D01*
X17939120Y14585950D01*
X17939120Y15276510D01*
X17842447Y15509899D01*
X17663818Y15688527D01*
X17489343Y15760797D01*
X17533267Y15790146D01*
X17855174Y16271915D01*
X17968213Y16840200D01*
X17855174Y17408485D01*
X17533267Y17890254D01*
X17051498Y18212161D01*
X16483213Y18325200D01*
X16425027Y18325200D01*
X15856742Y18212161D01*
X15374973Y17890254D01*
X15053066Y17408485D01*
X14940027Y16840200D01*
X12009120Y16840200D01*
X12009120Y22936200D01*
X14813027Y22936200D01*
X14926066Y22367915D01*
X15247973Y21886146D01*
X15577146Y21666200D01*
X15247973Y21446254D01*
X14926066Y20964485D01*
X14813027Y20396200D01*
X14926066Y19827915D01*
X15247973Y19346146D01*
X15729742Y19024239D01*
X16298027Y18911200D01*
X16356213Y18911200D01*
X16924498Y19024239D01*
X17406267Y19346146D01*
X17728174Y19827915D01*
X17841213Y20396200D01*
X17728174Y20964485D01*
X17406267Y21446254D01*
X17077094Y21666200D01*
X17406267Y21886146D01*
X17728174Y22367915D01*
X17841213Y22936200D01*
X17728174Y23504485D01*
X17406267Y23986254D01*
X17362343Y24015603D01*
X17536818Y24087873D01*
X17715447Y24266501D01*
X17812120Y24499890D01*
X17812120Y25190450D01*
X17653370Y25349200D01*
X16454120Y25349200D01*
X16454120Y25329200D01*
X16200120Y25329200D01*
X16200120Y25349200D01*
X15000870Y25349200D01*
X14842120Y25190450D01*
X14842120Y24499890D01*
X14938793Y24266501D01*
X15117422Y24087873D01*
X15291897Y24015603D01*
X15247973Y23986254D01*
X14926066Y23504485D01*
X14813027Y22936200D01*
X12009120Y22936200D01*
X12009120Y26452510D01*
X14842120Y26452510D01*
X14842120Y25761950D01*
X15000870Y25603200D01*
X16200120Y25603200D01*
X16200120Y26802450D01*
X16041370Y26961200D01*
X15350811Y26961200D01*
X15117422Y26864527D01*
X14938793Y26685899D01*
X14842120Y26452510D01*
X12009120Y26452510D01*
X12009120Y29163200D01*
X14309540Y29163200D01*
X16562205Y26910535D01*
X16454120Y26802450D01*
X16454120Y25603200D01*
X17653370Y25603200D01*
X17761455Y25711285D01*
X18622328Y24850413D01*
X18622330Y24850410D01*
X18909445Y24658567D01*
X19248120Y24591200D01*
X20316642Y24591200D01*
X20614750Y24292571D01*
X20822632Y24206251D01*
X20616817Y24121210D01*
X20223491Y23728570D01*
X20010363Y23215300D01*
X20009878Y22659539D01*
X20222110Y22145897D01*
X20614750Y21752571D01*
X20822632Y21666251D01*
X20616817Y21581210D01*
X20223491Y21188570D01*
X20010363Y20675300D01*
X20009878Y20119539D01*
X20222110Y19605897D01*
X20614750Y19212571D01*
X20822632Y19126251D01*
X20616817Y19041210D01*
X20223491Y18648570D01*
X20010363Y18135300D01*
X20009878Y17579539D01*
X20222110Y17065897D01*
X20614750Y16672571D01*
X20822632Y16586251D01*
X20616817Y16501210D01*
X20223491Y16108570D01*
X20010363Y15595300D01*
X20009878Y15039539D01*
X20222110Y14525897D01*
X20614750Y14132571D01*
X20806847Y14052805D01*
X20675977Y13998597D01*
X20606512Y13756413D01*
X21407120Y12955805D01*
X22207728Y13756413D01*
X22138263Y13998597D01*
X21997802Y14048709D01*
X22197423Y14131190D01*
X22590749Y14523830D01*
X22803877Y15037100D01*
X22804362Y15592861D01*
X22592130Y16106503D01*
X22199490Y16499829D01*
X21991608Y16586149D01*
X22197423Y16671190D01*
X22590749Y17063830D01*
X22803877Y17577100D01*
X22804362Y18132861D01*
X22592130Y18646503D01*
X22199490Y19039829D01*
X21991608Y19126149D01*
X22197423Y19211190D01*
X22590749Y19603830D01*
X22803877Y20117100D01*
X22804362Y20672861D01*
X22592130Y21186503D01*
X22199490Y21579829D01*
X21991608Y21666149D01*
X22197423Y21751190D01*
X22590749Y22143830D01*
X22803877Y22657100D01*
X22804362Y23212861D01*
X22592130Y23726503D01*
X22199490Y24119829D01*
X21991608Y24206149D01*
X22197423Y24291190D01*
X22590749Y24683830D01*
X22803877Y25197100D01*
X22804362Y25752861D01*
X22592130Y26266503D01*
X22199490Y26659829D01*
X21991608Y26746149D01*
X22197423Y26831190D01*
X22590749Y27223830D01*
X22803877Y27737100D01*
X22804362Y28292861D01*
X22592130Y28806503D01*
X22199490Y29199829D01*
X21991608Y29286149D01*
X22197423Y29371190D01*
X22590749Y29763830D01*
X22803877Y30277100D01*
X22804362Y30832861D01*
X22592130Y31346503D01*
X22199490Y31739829D01*
X21991608Y31826149D01*
X22197423Y31911190D01*
X22590749Y32303830D01*
X22803877Y32817100D01*
X22804362Y33372861D01*
X22592130Y33886503D01*
X22199490Y34279829D01*
X21991608Y34366149D01*
X22197423Y34451190D01*
X22590749Y34843830D01*
X22803877Y35357100D01*
X22804362Y35912861D01*
X22592130Y36426503D01*
X22199490Y36819829D01*
X21991608Y36906149D01*
X22197423Y36991190D01*
X22590749Y37383830D01*
X22803877Y37897100D01*
X22804362Y38452861D01*
X22592130Y38966503D01*
X22199490Y39359829D01*
X21991608Y39446149D01*
X22197423Y39531190D01*
X22590749Y39923830D01*
X22803877Y40437100D01*
X22804362Y40992861D01*
X22592130Y41506503D01*
X22199490Y41899829D01*
X21991608Y41986149D01*
X22197423Y42071190D01*
X22590749Y42463830D01*
X22803877Y42977100D01*
X22804362Y43532861D01*
X22707949Y43766200D01*
X22743318Y43766200D01*
X26330719Y40178799D01*
X26577281Y40014052D01*
X26868120Y39956200D01*
X35449589Y39956200D01*
X35462110Y39925897D01*
X35854750Y39532571D01*
X36062632Y39446251D01*
X35856817Y39361210D01*
X35463491Y38968570D01*
X35250363Y38455300D01*
X35249878Y37899539D01*
X35462110Y37385897D01*
X35854750Y36992571D01*
X36062632Y36906251D01*
X35856817Y36821210D01*
X35463491Y36428570D01*
X35250363Y35915300D01*
X35249878Y35359539D01*
X35462110Y34845897D01*
X35854750Y34452571D01*
X36062632Y34366251D01*
X35856817Y34281210D01*
X35463491Y33888570D01*
X35250363Y33375300D01*
X35249878Y32819539D01*
X35462110Y32305897D01*
X35854750Y31912571D01*
X36062632Y31826251D01*
X35856817Y31741210D01*
X35463491Y31348570D01*
X35250363Y30835300D01*
X35249878Y30279539D01*
X35462110Y29765897D01*
X35854750Y29372571D01*
X36062632Y29286251D01*
X35856817Y29201210D01*
X35463491Y28808570D01*
X35250363Y28295300D01*
X35249878Y27739539D01*
X35462110Y27225897D01*
X35854750Y26832571D01*
X36062632Y26746251D01*
X35856817Y26661210D01*
X35463491Y26268570D01*
X35250363Y25755300D01*
X35249878Y25199539D01*
X35462110Y24685897D01*
X35854750Y24292571D01*
X36062632Y24206251D01*
X35856817Y24121210D01*
X35463491Y23728570D01*
X35250363Y23215300D01*
X35249878Y22659539D01*
X35346291Y22426200D01*
X34669361Y22426200D01*
X34510447Y22585392D01*
X34166919Y22728038D01*
X33794953Y22728362D01*
X33451177Y22586317D01*
X33187928Y22323527D01*
X33045282Y21979999D01*
X33044958Y21608033D01*
X33187003Y21264257D01*
X33449793Y21001008D01*
X33793321Y20858362D01*
X34165287Y20858038D01*
X34281848Y20906200D01*
X35346241Y20906200D01*
X35250363Y20675300D01*
X35249878Y20119539D01*
X35462110Y19605897D01*
X35854750Y19212571D01*
X36062632Y19126251D01*
X35856817Y19041210D01*
X35463491Y18648570D01*
X35250363Y18135300D01*
X35249878Y17579539D01*
X35462110Y17065897D01*
X35854750Y16672571D01*
X36062632Y16586251D01*
X35856817Y16501210D01*
X35463491Y16108570D01*
X35250363Y15595300D01*
X35249878Y15039539D01*
X35462110Y14525897D01*
X35854750Y14132571D01*
X36062632Y14046251D01*
X35856817Y13961210D01*
X35463491Y13568570D01*
X35250363Y13055300D01*
X35249878Y12499539D01*
X35462110Y11985897D01*
X35854750Y11592571D01*
X36062632Y11506251D01*
X35856817Y11421210D01*
X35463491Y11028570D01*
X35250363Y10515300D01*
X35249878Y9959539D01*
X35462110Y9445897D01*
X35854750Y9052571D01*
X36368020Y8839443D01*
X36923781Y8838958D01*
X37437423Y9051190D01*
X37830749Y9443830D01*
X38043877Y9957100D01*
X38044362Y10512861D01*
X37832130Y11026503D01*
X37439490Y11419829D01*
X37231608Y11506149D01*
X37437423Y11591190D01*
X37830749Y11983830D01*
X38043877Y12497100D01*
X38044362Y13052861D01*
X37832130Y13566503D01*
X37439490Y13959829D01*
X37231608Y14046149D01*
X37437423Y14131190D01*
X37830749Y14523830D01*
X38043877Y15037100D01*
X38044362Y15592861D01*
X37832130Y16106503D01*
X37439490Y16499829D01*
X37231608Y16586149D01*
X37437423Y16671190D01*
X37830749Y17063830D01*
X38043877Y17577100D01*
X38044362Y18132861D01*
X37832130Y18646503D01*
X37439490Y19039829D01*
X37231608Y19126149D01*
X37437423Y19211190D01*
X37830749Y19603830D01*
X38043877Y20117100D01*
X38044180Y20464338D01*
X40808719Y17699799D01*
X41055280Y17535052D01*
X41346120Y17477200D01*
X44899166Y17477200D01*
X45092973Y17187146D01*
X45422146Y16967200D01*
X45092973Y16747254D01*
X44771066Y16265485D01*
X44658027Y15697200D01*
X44771066Y15128915D01*
X45092973Y14647146D01*
X45422146Y14427200D01*
X45092973Y14207254D01*
X44771066Y13725485D01*
X44658027Y13157200D01*
X44771066Y12588915D01*
X45092973Y12107146D01*
X45422146Y11887200D01*
X45092973Y11667254D01*
X44771066Y11185485D01*
X44658027Y10617200D01*
X44771066Y10048915D01*
X45092973Y9567146D01*
X45422146Y9347200D01*
X45092973Y9127254D01*
X44771066Y8645485D01*
X44658027Y8077200D01*
X44771066Y7508915D01*
X45092973Y7027146D01*
X45134572Y6999350D01*
X45086803Y6990362D01*
X44870679Y6851290D01*
X44725689Y6639090D01*
X44674680Y6387200D01*
X44674680Y4687200D01*
X44718958Y4451883D01*
X44858030Y4235759D01*
X45070230Y4090769D01*
X45322120Y4039760D01*
X47022120Y4039760D01*
X47257437Y4084038D01*
X47473561Y4223110D01*
X47565374Y4357483D01*
X47577793Y4327501D01*
X47756422Y4148873D01*
X47989811Y4052200D01*
X48680370Y4052200D01*
X48839120Y4210950D01*
X48839120Y5410200D01*
X48819120Y5410200D01*
X48819120Y5664200D01*
X48839120Y5664200D01*
X48839120Y7950200D01*
X48819120Y7950200D01*
X48819120Y8204200D01*
X48839120Y8204200D01*
X48839120Y10490200D01*
X48819120Y10490200D01*
X48819120Y10744200D01*
X48839120Y10744200D01*
X48839120Y13030200D01*
X48819120Y13030200D01*
X48819120Y13284200D01*
X48839120Y13284200D01*
X48839120Y15570200D01*
X48819120Y15570200D01*
X48819120Y15824200D01*
X48839120Y15824200D01*
X48839120Y18110200D01*
X48819120Y18110200D01*
X48819120Y18364200D01*
X48839120Y18364200D01*
X48839120Y19558019D01*
X48609228Y19678686D01*
X48084762Y19432383D01*
X47694475Y19004124D01*
X47585836Y18741830D01*
X47573174Y18805485D01*
X47251267Y19287254D01*
X46769498Y19609161D01*
X46201213Y19722200D01*
X46143027Y19722200D01*
X45574742Y19609161D01*
X45092973Y19287254D01*
X44899166Y18997200D01*
X41660922Y18997200D01*
X39872922Y20785200D01*
X40902104Y20785200D01*
X41256742Y20548239D01*
X41825027Y20435200D01*
X41883213Y20435200D01*
X42451498Y20548239D01*
X42933267Y20870146D01*
X43255174Y21351915D01*
X43368213Y21920200D01*
X43255174Y22488485D01*
X42933267Y22970254D01*
X42604094Y23190200D01*
X42933267Y23410146D01*
X43255174Y23891915D01*
X43368213Y24460200D01*
X43255174Y25028485D01*
X42933267Y25510254D01*
X42889343Y25539603D01*
X43063818Y25611873D01*
X43242447Y25790501D01*
X43339120Y26023890D01*
X43339120Y26714450D01*
X43180370Y26873200D01*
X41981120Y26873200D01*
X41981120Y26853200D01*
X41727120Y26853200D01*
X41727120Y26873200D01*
X40527870Y26873200D01*
X40369120Y26714450D01*
X40369120Y26023890D01*
X40465793Y25790501D01*
X40644422Y25611873D01*
X40684674Y25595200D01*
X39276252Y25595200D01*
X38592686Y26278766D01*
X38469315Y26361200D01*
X38224466Y26524803D01*
X37790120Y26611200D01*
X37488034Y26611200D01*
X37439490Y26659829D01*
X37231608Y26746149D01*
X37437423Y26831190D01*
X37830749Y27223830D01*
X38043877Y27737100D01*
X38044085Y27976510D01*
X40369120Y27976510D01*
X40369120Y27285950D01*
X40527870Y27127200D01*
X41727120Y27127200D01*
X41727120Y28326450D01*
X41981120Y28326450D01*
X41981120Y27127200D01*
X43180370Y27127200D01*
X43339120Y27285950D01*
X43339120Y27976510D01*
X43242447Y28209899D01*
X43063818Y28388527D01*
X42830429Y28485200D01*
X42139870Y28485200D01*
X41981120Y28326450D01*
X41727120Y28326450D01*
X41568370Y28485200D01*
X40877811Y28485200D01*
X40644422Y28388527D01*
X40465793Y28209899D01*
X40369120Y27976510D01*
X38044085Y27976510D01*
X38044362Y28292861D01*
X37832130Y28806503D01*
X37439490Y29199829D01*
X37231608Y29286149D01*
X37437423Y29371190D01*
X37830749Y29763830D01*
X38043877Y30277100D01*
X38044362Y30832861D01*
X37832130Y31346503D01*
X37439490Y31739829D01*
X37231608Y31826149D01*
X37437423Y31911190D01*
X37830749Y32303830D01*
X38043877Y32817100D01*
X38044362Y33372861D01*
X37832130Y33886503D01*
X37439490Y34279829D01*
X37231608Y34366149D01*
X37437423Y34451190D01*
X37830749Y34843830D01*
X38043877Y35357100D01*
X38044362Y35912861D01*
X37832130Y36426503D01*
X37439490Y36819829D01*
X37231608Y36906149D01*
X37437423Y36991190D01*
X37830749Y37383830D01*
X38043877Y37897100D01*
X38044362Y38452861D01*
X37832130Y38966503D01*
X37439490Y39359829D01*
X37231608Y39446149D01*
X37437423Y39531190D01*
X37830749Y39923830D01*
X38043877Y40437100D01*
X38044362Y40992861D01*
X37832130Y41506503D01*
X37439490Y41899829D01*
X37231608Y41986149D01*
X37437423Y42071190D01*
X37830749Y42463830D01*
X38043877Y42977100D01*
X38044069Y43197347D01*
X39788021Y44941299D01*
X39952768Y45187861D01*
X40010620Y45478700D01*
X40010620Y48084898D01*
X40369120Y48443398D01*
X40369120Y48336198D01*
X40369120Y48336198D01*
G37*
X40369120Y48336198D02*
X40533964Y48336198D01*
X40412644Y48106310D01*
X40582475Y47696276D01*
X40972762Y47268017D01*
X41115673Y47200902D01*
X40774973Y46973254D01*
X40453066Y46491485D01*
X40340027Y45923200D01*
X40453066Y45354915D01*
X40774973Y44873146D01*
X41104146Y44653200D01*
X40774973Y44433254D01*
X40453066Y43951485D01*
X40340027Y43383200D01*
X40453066Y42814915D01*
X40774973Y42333146D01*
X41104146Y42113200D01*
X40774973Y41893254D01*
X40453066Y41411485D01*
X40340027Y40843200D01*
X40453066Y40274915D01*
X40774973Y39793146D01*
X41104146Y39573200D01*
X40774973Y39353254D01*
X40453066Y38871485D01*
X40340027Y38303200D01*
X40453066Y37734915D01*
X40774973Y37253146D01*
X41104146Y37033200D01*
X40774973Y36813254D01*
X40453066Y36331485D01*
X40340027Y35763200D01*
X40453066Y35194915D01*
X40774973Y34713146D01*
X41104146Y34493200D01*
X40774973Y34273254D01*
X40453066Y33791485D01*
X40340027Y33223200D01*
X40453066Y32654915D01*
X40774973Y32173146D01*
X40816572Y32145350D01*
X40768803Y32136362D01*
X40552679Y31997290D01*
X40407689Y31785090D01*
X40356680Y31533200D01*
X40356680Y29833200D01*
X40400958Y29597883D01*
X40540030Y29381759D01*
X40752230Y29236769D01*
X41004120Y29185760D01*
X42704120Y29185760D01*
X42939437Y29230038D01*
X43155561Y29369110D01*
X43300551Y29581310D01*
X43300970Y29583378D01*
X43558466Y29634597D01*
X43926686Y29880634D01*
X45323686Y31277634D01*
X45569723Y31645854D01*
X45580334Y31699200D01*
X45656120Y32080200D01*
X45656120Y32626068D01*
X46007252Y32977200D01*
X48395104Y32977200D01*
X48597146Y32842200D01*
X48267973Y32622254D01*
X47946066Y32140485D01*
X47833027Y31572200D01*
X47946066Y31003915D01*
X48267973Y30522146D01*
X48749742Y30200239D01*
X49318027Y30087200D01*
X49376213Y30087200D01*
X49944498Y30200239D01*
X50426267Y30522146D01*
X50536552Y30687200D01*
X52522115Y30687200D01*
X52522120Y30687199D01*
X52804604Y30743390D01*
X52860795Y30754567D01*
X52955120Y30817593D01*
X52955120Y19113867D01*
X52839267Y19287254D01*
X52357498Y19609161D01*
X51789213Y19722200D01*
X51731027Y19722200D01*
X51162742Y19609161D01*
X50680973Y19287254D01*
X50359066Y18805485D01*
X50346404Y18741830D01*
X50237765Y19004124D01*
X49847478Y19432383D01*
X49323012Y19678686D01*
X49093120Y19558019D01*
X49093120Y18364200D01*
X49113120Y18364200D01*
X49113120Y18110200D01*
X49093120Y18110200D01*
X49093120Y15824200D01*
X49113120Y15824200D01*
X49113120Y15570200D01*
X49093120Y15570200D01*
X49093120Y13284200D01*
X49113120Y13284200D01*
X49113120Y13030200D01*
X49093120Y13030200D01*
X49093120Y10744200D01*
X49113120Y10744200D01*
X49113120Y10490200D01*
X49093120Y10490200D01*
X49093120Y8204200D01*
X49113120Y8204200D01*
X49113120Y7950200D01*
X49093120Y7950200D01*
X49093120Y5664200D01*
X49113120Y5664200D01*
X49113120Y5410200D01*
X49093120Y5410200D01*
X49093120Y4210950D01*
X49251870Y4052200D01*
X49942429Y4052200D01*
X50175818Y4148873D01*
X50354447Y4327501D01*
X50367194Y4358274D01*
X50446030Y4235759D01*
X50658230Y4090769D01*
X50910120Y4039760D01*
X52610120Y4039760D01*
X52845437Y4084038D01*
X52955120Y4154617D01*
X52955120Y786200D01*
X38842952Y786200D01*
X39769379Y1711011D01*
X40354453Y3120025D01*
X40355784Y4645682D01*
X39773170Y6055715D01*
X38695309Y7135459D01*
X37286295Y7720533D01*
X35760638Y7721864D01*
X34350605Y7139250D01*
X33270861Y6061389D01*
X32685787Y4652375D01*
X32684456Y3126718D01*
X33267070Y1716685D01*
X34195932Y786200D01*
X17851120Y786200D01*
X17851120Y9255987D01*
X20606512Y9255987D01*
X20675977Y9013803D01*
X21199422Y8827056D01*
X21754488Y8854838D01*
X22138263Y9013803D01*
X22207728Y9255987D01*
X21407120Y10056595D01*
X20606512Y9255987D01*
X17851120Y9255987D01*
X17851120Y10443898D01*
X19997976Y10443898D01*
X20025758Y9888832D01*
X20184723Y9505057D01*
X20426907Y9435592D01*
X21227515Y10236200D01*
X21586725Y10236200D01*
X22387333Y9435592D01*
X22629517Y9505057D01*
X22816264Y10028502D01*
X22788482Y10583568D01*
X22629517Y10967343D01*
X22387333Y11036808D01*
X21586725Y10236200D01*
X21227515Y10236200D01*
X20426907Y11036808D01*
X20184723Y10967343D01*
X19997976Y10443898D01*
X17851120Y10443898D01*
X17851120Y11795987D01*
X20606512Y11795987D01*
X20675977Y11553803D01*
X20799464Y11509747D01*
X20675977Y11458597D01*
X20606512Y11216413D01*
X21407120Y10415805D01*
X22207728Y11216413D01*
X22138263Y11458597D01*
X22014776Y11502653D01*
X22138263Y11553803D01*
X22207728Y11795987D01*
X21407120Y12596595D01*
X20606512Y11795987D01*
X17851120Y11795987D01*
X17851120Y12014200D01*
X17842435Y12060359D01*
X17815155Y12102753D01*
X17773530Y12131194D01*
X17724120Y12141200D01*
X12009120Y12141200D01*
X12009120Y14014450D01*
X14969120Y14014450D01*
X14969120Y13323890D01*
X15065793Y13090501D01*
X15244422Y12911873D01*
X15477811Y12815200D01*
X16168370Y12815200D01*
X16327120Y12973950D01*
X16327120Y14173200D01*
X16581120Y14173200D01*
X16581120Y12973950D01*
X16739870Y12815200D01*
X17430429Y12815200D01*
X17663818Y12911873D01*
X17735843Y12983898D01*
X19997976Y12983898D01*
X20025758Y12428832D01*
X20184723Y12045057D01*
X20426907Y11975592D01*
X21227515Y12776200D01*
X21586725Y12776200D01*
X22387333Y11975592D01*
X22629517Y12045057D01*
X22816264Y12568502D01*
X22788482Y13123568D01*
X22629517Y13507343D01*
X22387333Y13576808D01*
X21586725Y12776200D01*
X21227515Y12776200D01*
X20426907Y13576808D01*
X20184723Y13507343D01*
X19997976Y12983898D01*
X17735843Y12983898D01*
X17842447Y13090501D01*
X17939120Y13323890D01*
X17939120Y14014450D01*
X17780370Y14173200D01*
X16581120Y14173200D01*
X16327120Y14173200D01*
X15127870Y14173200D01*
X14969120Y14014450D01*
X12009120Y14014450D01*
X12009120Y16840200D01*
X14940027Y16840200D01*
X15053066Y16271915D01*
X15374973Y15790146D01*
X15418897Y15760797D01*
X15244422Y15688527D01*
X15065793Y15509899D01*
X14969120Y15276510D01*
X14969120Y14585950D01*
X15127870Y14427200D01*
X16327120Y14427200D01*
X16327120Y14447200D01*
X16581120Y14447200D01*
X16581120Y14427200D01*
X17780370Y14427200D01*
X17939120Y14585950D01*
X17939120Y15276510D01*
X17842447Y15509899D01*
X17663818Y15688527D01*
X17489343Y15760797D01*
X17533267Y15790146D01*
X17855174Y16271915D01*
X17968213Y16840200D01*
X17855174Y17408485D01*
X17533267Y17890254D01*
X17051498Y18212161D01*
X16483213Y18325200D01*
X16425027Y18325200D01*
X15856742Y18212161D01*
X15374973Y17890254D01*
X15053066Y17408485D01*
X14940027Y16840200D01*
X12009120Y16840200D01*
X12009120Y22936200D01*
X14813027Y22936200D01*
X14926066Y22367915D01*
X15247973Y21886146D01*
X15577146Y21666200D01*
X15247973Y21446254D01*
X14926066Y20964485D01*
X14813027Y20396200D01*
X14926066Y19827915D01*
X15247973Y19346146D01*
X15729742Y19024239D01*
X16298027Y18911200D01*
X16356213Y18911200D01*
X16924498Y19024239D01*
X17406267Y19346146D01*
X17728174Y19827915D01*
X17841213Y20396200D01*
X17728174Y20964485D01*
X17406267Y21446254D01*
X17077094Y21666200D01*
X17406267Y21886146D01*
X17728174Y22367915D01*
X17841213Y22936200D01*
X17728174Y23504485D01*
X17406267Y23986254D01*
X17362343Y24015603D01*
X17536818Y24087873D01*
X17715447Y24266501D01*
X17812120Y24499890D01*
X17812120Y25190450D01*
X17653370Y25349200D01*
X16454120Y25349200D01*
X16454120Y25329200D01*
X16200120Y25329200D01*
X16200120Y25349200D01*
X15000870Y25349200D01*
X14842120Y25190450D01*
X14842120Y24499890D01*
X14938793Y24266501D01*
X15117422Y24087873D01*
X15291897Y24015603D01*
X15247973Y23986254D01*
X14926066Y23504485D01*
X14813027Y22936200D01*
X12009120Y22936200D01*
X12009120Y26452510D01*
X14842120Y26452510D01*
X14842120Y25761950D01*
X15000870Y25603200D01*
X16200120Y25603200D01*
X16200120Y26802450D01*
X16041370Y26961200D01*
X15350811Y26961200D01*
X15117422Y26864527D01*
X14938793Y26685899D01*
X14842120Y26452510D01*
X12009120Y26452510D01*
X12009120Y29163200D01*
X14309540Y29163200D01*
X16562205Y26910535D01*
X16454120Y26802450D01*
X16454120Y25603200D01*
X17653370Y25603200D01*
X17761455Y25711285D01*
X18622328Y24850413D01*
X18622330Y24850410D01*
X18909445Y24658567D01*
X19248120Y24591200D01*
X20316642Y24591200D01*
X20614750Y24292571D01*
X20822632Y24206251D01*
X20616817Y24121210D01*
X20223491Y23728570D01*
X20010363Y23215300D01*
X20009878Y22659539D01*
X20222110Y22145897D01*
X20614750Y21752571D01*
X20822632Y21666251D01*
X20616817Y21581210D01*
X20223491Y21188570D01*
X20010363Y20675300D01*
X20009878Y20119539D01*
X20222110Y19605897D01*
X20614750Y19212571D01*
X20822632Y19126251D01*
X20616817Y19041210D01*
X20223491Y18648570D01*
X20010363Y18135300D01*
X20009878Y17579539D01*
X20222110Y17065897D01*
X20614750Y16672571D01*
X20822632Y16586251D01*
X20616817Y16501210D01*
X20223491Y16108570D01*
X20010363Y15595300D01*
X20009878Y15039539D01*
X20222110Y14525897D01*
X20614750Y14132571D01*
X20806847Y14052805D01*
X20675977Y13998597D01*
X20606512Y13756413D01*
X21407120Y12955805D01*
X22207728Y13756413D01*
X22138263Y13998597D01*
X21997802Y14048709D01*
X22197423Y14131190D01*
X22590749Y14523830D01*
X22803877Y15037100D01*
X22804362Y15592861D01*
X22592130Y16106503D01*
X22199490Y16499829D01*
X21991608Y16586149D01*
X22197423Y16671190D01*
X22590749Y17063830D01*
X22803877Y17577100D01*
X22804362Y18132861D01*
X22592130Y18646503D01*
X22199490Y19039829D01*
X21991608Y19126149D01*
X22197423Y19211190D01*
X22590749Y19603830D01*
X22803877Y20117100D01*
X22804362Y20672861D01*
X22592130Y21186503D01*
X22199490Y21579829D01*
X21991608Y21666149D01*
X22197423Y21751190D01*
X22590749Y22143830D01*
X22803877Y22657100D01*
X22804362Y23212861D01*
X22592130Y23726503D01*
X22199490Y24119829D01*
X21991608Y24206149D01*
X22197423Y24291190D01*
X22590749Y24683830D01*
X22803877Y25197100D01*
X22804362Y25752861D01*
X22592130Y26266503D01*
X22199490Y26659829D01*
X21991608Y26746149D01*
X22197423Y26831190D01*
X22590749Y27223830D01*
X22803877Y27737100D01*
X22804362Y28292861D01*
X22592130Y28806503D01*
X22199490Y29199829D01*
X21991608Y29286149D01*
X22197423Y29371190D01*
X22590749Y29763830D01*
X22803877Y30277100D01*
X22804362Y30832861D01*
X22592130Y31346503D01*
X22199490Y31739829D01*
X21991608Y31826149D01*
X22197423Y31911190D01*
X22590749Y32303830D01*
X22803877Y32817100D01*
X22804362Y33372861D01*
X22592130Y33886503D01*
X22199490Y34279829D01*
X21991608Y34366149D01*
X22197423Y34451190D01*
X22590749Y34843830D01*
X22803877Y35357100D01*
X22804362Y35912861D01*
X22592130Y36426503D01*
X22199490Y36819829D01*
X21991608Y36906149D01*
X22197423Y36991190D01*
X22590749Y37383830D01*
X22803877Y37897100D01*
X22804362Y38452861D01*
X22592130Y38966503D01*
X22199490Y39359829D01*
X21991608Y39446149D01*
X22197423Y39531190D01*
X22590749Y39923830D01*
X22803877Y40437100D01*
X22804362Y40992861D01*
X22592130Y41506503D01*
X22199490Y41899829D01*
X21991608Y41986149D01*
X22197423Y42071190D01*
X22590749Y42463830D01*
X22803877Y42977100D01*
X22804362Y43532861D01*
X22707949Y43766200D01*
X22743318Y43766200D01*
X26330719Y40178799D01*
X26577281Y40014052D01*
X26868120Y39956200D01*
X35449589Y39956200D01*
X35462110Y39925897D01*
X35854750Y39532571D01*
X36062632Y39446251D01*
X35856817Y39361210D01*
X35463491Y38968570D01*
X35250363Y38455300D01*
X35249878Y37899539D01*
X35462110Y37385897D01*
X35854750Y36992571D01*
X36062632Y36906251D01*
X35856817Y36821210D01*
X35463491Y36428570D01*
X35250363Y35915300D01*
X35249878Y35359539D01*
X35462110Y34845897D01*
X35854750Y34452571D01*
X36062632Y34366251D01*
X35856817Y34281210D01*
X35463491Y33888570D01*
X35250363Y33375300D01*
X35249878Y32819539D01*
X35462110Y32305897D01*
X35854750Y31912571D01*
X36062632Y31826251D01*
X35856817Y31741210D01*
X35463491Y31348570D01*
X35250363Y30835300D01*
X35249878Y30279539D01*
X35462110Y29765897D01*
X35854750Y29372571D01*
X36062632Y29286251D01*
X35856817Y29201210D01*
X35463491Y28808570D01*
X35250363Y28295300D01*
X35249878Y27739539D01*
X35462110Y27225897D01*
X35854750Y26832571D01*
X36062632Y26746251D01*
X35856817Y26661210D01*
X35463491Y26268570D01*
X35250363Y25755300D01*
X35249878Y25199539D01*
X35462110Y24685897D01*
X35854750Y24292571D01*
X36062632Y24206251D01*
X35856817Y24121210D01*
X35463491Y23728570D01*
X35250363Y23215300D01*
X35249878Y22659539D01*
X35346291Y22426200D01*
X34669361Y22426200D01*
X34510447Y22585392D01*
X34166919Y22728038D01*
X33794953Y22728362D01*
X33451177Y22586317D01*
X33187928Y22323527D01*
X33045282Y21979999D01*
X33044958Y21608033D01*
X33187003Y21264257D01*
X33449793Y21001008D01*
X33793321Y20858362D01*
X34165287Y20858038D01*
X34281848Y20906200D01*
X35346241Y20906200D01*
X35250363Y20675300D01*
X35249878Y20119539D01*
X35462110Y19605897D01*
X35854750Y19212571D01*
X36062632Y19126251D01*
X35856817Y19041210D01*
X35463491Y18648570D01*
X35250363Y18135300D01*
X35249878Y17579539D01*
X35462110Y17065897D01*
X35854750Y16672571D01*
X36062632Y16586251D01*
X35856817Y16501210D01*
X35463491Y16108570D01*
X35250363Y15595300D01*
X35249878Y15039539D01*
X35462110Y14525897D01*
X35854750Y14132571D01*
X36062632Y14046251D01*
X35856817Y13961210D01*
X35463491Y13568570D01*
X35250363Y13055300D01*
X35249878Y12499539D01*
X35462110Y11985897D01*
X35854750Y11592571D01*
X36062632Y11506251D01*
X35856817Y11421210D01*
X35463491Y11028570D01*
X35250363Y10515300D01*
X35249878Y9959539D01*
X35462110Y9445897D01*
X35854750Y9052571D01*
X36368020Y8839443D01*
X36923781Y8838958D01*
X37437423Y9051190D01*
X37830749Y9443830D01*
X38043877Y9957100D01*
X38044362Y10512861D01*
X37832130Y11026503D01*
X37439490Y11419829D01*
X37231608Y11506149D01*
X37437423Y11591190D01*
X37830749Y11983830D01*
X38043877Y12497100D01*
X38044362Y13052861D01*
X37832130Y13566503D01*
X37439490Y13959829D01*
X37231608Y14046149D01*
X37437423Y14131190D01*
X37830749Y14523830D01*
X38043877Y15037100D01*
X38044362Y15592861D01*
X37832130Y16106503D01*
X37439490Y16499829D01*
X37231608Y16586149D01*
X37437423Y16671190D01*
X37830749Y17063830D01*
X38043877Y17577100D01*
X38044362Y18132861D01*
X37832130Y18646503D01*
X37439490Y19039829D01*
X37231608Y19126149D01*
X37437423Y19211190D01*
X37830749Y19603830D01*
X38043877Y20117100D01*
X38044180Y20464338D01*
X40808719Y17699799D01*
X41055280Y17535052D01*
X41346120Y17477200D01*
X44899166Y17477200D01*
X45092973Y17187146D01*
X45422146Y16967200D01*
X45092973Y16747254D01*
X44771066Y16265485D01*
X44658027Y15697200D01*
X44771066Y15128915D01*
X45092973Y14647146D01*
X45422146Y14427200D01*
X45092973Y14207254D01*
X44771066Y13725485D01*
X44658027Y13157200D01*
X44771066Y12588915D01*
X45092973Y12107146D01*
X45422146Y11887200D01*
X45092973Y11667254D01*
X44771066Y11185485D01*
X44658027Y10617200D01*
X44771066Y10048915D01*
X45092973Y9567146D01*
X45422146Y9347200D01*
X45092973Y9127254D01*
X44771066Y8645485D01*
X44658027Y8077200D01*
X44771066Y7508915D01*
X45092973Y7027146D01*
X45134572Y6999350D01*
X45086803Y6990362D01*
X44870679Y6851290D01*
X44725689Y6639090D01*
X44674680Y6387200D01*
X44674680Y4687200D01*
X44718958Y4451883D01*
X44858030Y4235759D01*
X45070230Y4090769D01*
X45322120Y4039760D01*
X47022120Y4039760D01*
X47257437Y4084038D01*
X47473561Y4223110D01*
X47565374Y4357483D01*
X47577793Y4327501D01*
X47756422Y4148873D01*
X47989811Y4052200D01*
X48680370Y4052200D01*
X48839120Y4210950D01*
X48839120Y5410200D01*
X48819120Y5410200D01*
X48819120Y5664200D01*
X48839120Y5664200D01*
X48839120Y7950200D01*
X48819120Y7950200D01*
X48819120Y8204200D01*
X48839120Y8204200D01*
X48839120Y10490200D01*
X48819120Y10490200D01*
X48819120Y10744200D01*
X48839120Y10744200D01*
X48839120Y13030200D01*
X48819120Y13030200D01*
X48819120Y13284200D01*
X48839120Y13284200D01*
X48839120Y15570200D01*
X48819120Y15570200D01*
X48819120Y15824200D01*
X48839120Y15824200D01*
X48839120Y18110200D01*
X48819120Y18110200D01*
X48819120Y18364200D01*
X48839120Y18364200D01*
X48839120Y19558019D01*
X48609228Y19678686D01*
X48084762Y19432383D01*
X47694475Y19004124D01*
X47585836Y18741830D01*
X47573174Y18805485D01*
X47251267Y19287254D01*
X46769498Y19609161D01*
X46201213Y19722200D01*
X46143027Y19722200D01*
X45574742Y19609161D01*
X45092973Y19287254D01*
X44899166Y18997200D01*
X41660922Y18997200D01*
X39872922Y20785200D01*
X40902104Y20785200D01*
X41256742Y20548239D01*
X41825027Y20435200D01*
X41883213Y20435200D01*
X42451498Y20548239D01*
X42933267Y20870146D01*
X43255174Y21351915D01*
X43368213Y21920200D01*
X43255174Y22488485D01*
X42933267Y22970254D01*
X42604094Y23190200D01*
X42933267Y23410146D01*
X43255174Y23891915D01*
X43368213Y24460200D01*
X43255174Y25028485D01*
X42933267Y25510254D01*
X42889343Y25539603D01*
X43063818Y25611873D01*
X43242447Y25790501D01*
X43339120Y26023890D01*
X43339120Y26714450D01*
X43180370Y26873200D01*
X41981120Y26873200D01*
X41981120Y26853200D01*
X41727120Y26853200D01*
X41727120Y26873200D01*
X40527870Y26873200D01*
X40369120Y26714450D01*
X40369120Y26023890D01*
X40465793Y25790501D01*
X40644422Y25611873D01*
X40684674Y25595200D01*
X39276252Y25595200D01*
X38592686Y26278766D01*
X38469315Y26361200D01*
X38224466Y26524803D01*
X37790120Y26611200D01*
X37488034Y26611200D01*
X37439490Y26659829D01*
X37231608Y26746149D01*
X37437423Y26831190D01*
X37830749Y27223830D01*
X38043877Y27737100D01*
X38044085Y27976510D01*
X40369120Y27976510D01*
X40369120Y27285950D01*
X40527870Y27127200D01*
X41727120Y27127200D01*
X41727120Y28326450D01*
X41981120Y28326450D01*
X41981120Y27127200D01*
X43180370Y27127200D01*
X43339120Y27285950D01*
X43339120Y27976510D01*
X43242447Y28209899D01*
X43063818Y28388527D01*
X42830429Y28485200D01*
X42139870Y28485200D01*
X41981120Y28326450D01*
X41727120Y28326450D01*
X41568370Y28485200D01*
X40877811Y28485200D01*
X40644422Y28388527D01*
X40465793Y28209899D01*
X40369120Y27976510D01*
X38044085Y27976510D01*
X38044362Y28292861D01*
X37832130Y28806503D01*
X37439490Y29199829D01*
X37231608Y29286149D01*
X37437423Y29371190D01*
X37830749Y29763830D01*
X38043877Y30277100D01*
X38044362Y30832861D01*
X37832130Y31346503D01*
X37439490Y31739829D01*
X37231608Y31826149D01*
X37437423Y31911190D01*
X37830749Y32303830D01*
X38043877Y32817100D01*
X38044362Y33372861D01*
X37832130Y33886503D01*
X37439490Y34279829D01*
X37231608Y34366149D01*
X37437423Y34451190D01*
X37830749Y34843830D01*
X38043877Y35357100D01*
X38044362Y35912861D01*
X37832130Y36426503D01*
X37439490Y36819829D01*
X37231608Y36906149D01*
X37437423Y36991190D01*
X37830749Y37383830D01*
X38043877Y37897100D01*
X38044362Y38452861D01*
X37832130Y38966503D01*
X37439490Y39359829D01*
X37231608Y39446149D01*
X37437423Y39531190D01*
X37830749Y39923830D01*
X38043877Y40437100D01*
X38044362Y40992861D01*
X37832130Y41506503D01*
X37439490Y41899829D01*
X37231608Y41986149D01*
X37437423Y42071190D01*
X37830749Y42463830D01*
X38043877Y42977100D01*
X38044069Y43197347D01*
X39788021Y44941299D01*
X39952768Y45187861D01*
X40010620Y45478700D01*
X40010620Y48084898D01*
X40369120Y48443398D01*
X40369120Y48336198D01*
G36*
X47685605Y70639250D02*
X46605861Y69561389D01*
X46020787Y68152375D01*
X46019456Y66626718D01*
X46602070Y65216685D01*
X47679931Y64136941D01*
X49088945Y63551867D01*
X50614602Y63550536D01*
X52024635Y64133150D01*
X52955120Y65062012D01*
X52955120Y52964779D01*
X46797910Y59121990D01*
X46646927Y59222873D01*
X46510795Y59313833D01*
X46454604Y59325010D01*
X46172120Y59381201D01*
X46172115Y59381200D01*
X37737598Y59381200D01*
X37439490Y59679829D01*
X36926220Y59892957D01*
X36370459Y59893442D01*
X35856817Y59681210D01*
X35463491Y59288570D01*
X35250363Y58775300D01*
X35249878Y58219539D01*
X35462110Y57705897D01*
X35854750Y57312571D01*
X36046847Y57232805D01*
X35915977Y57178597D01*
X35846512Y56936413D01*
X36647120Y56135805D01*
X37447728Y56936413D01*
X37378263Y57178597D01*
X37237802Y57228709D01*
X37437423Y57311190D01*
X37737957Y57611200D01*
X45805540Y57611200D01*
X46921463Y56495278D01*
X46560762Y56325883D01*
X46170475Y55897624D01*
X46000644Y55487590D01*
X46121965Y55257700D01*
X47315120Y55257700D01*
X47315120Y55277700D01*
X47569120Y55277700D01*
X47569120Y55257700D01*
X47589120Y55257700D01*
X47589120Y55003700D01*
X47569120Y55003700D01*
X47569120Y54983700D01*
X47315120Y54983700D01*
X47315120Y55003700D01*
X46121965Y55003700D01*
X46000644Y54773810D01*
X46170475Y54363776D01*
X46560762Y53935517D01*
X46703673Y53868402D01*
X46362973Y53640754D01*
X46058086Y53184457D01*
X46010890Y53257801D01*
X45798690Y53402791D01*
X45546800Y53453800D01*
X44846800Y53453800D01*
X44611483Y53409522D01*
X44395359Y53270450D01*
X44250369Y53058250D01*
X44247719Y53045163D01*
X44110890Y53257801D01*
X43898690Y53402791D01*
X43646800Y53453800D01*
X42946800Y53453800D01*
X42711483Y53409522D01*
X42495359Y53270450D01*
X42350369Y53058250D01*
X42299360Y52806360D01*
X42299360Y52702020D01*
X42286999Y52693761D01*
X41960958Y52367720D01*
X38770402Y52367720D01*
X38031303Y53106819D01*
X38043877Y53137100D01*
X38044362Y53692861D01*
X37832130Y54206503D01*
X37439490Y54599829D01*
X37247393Y54679595D01*
X37378263Y54733803D01*
X37447728Y54975987D01*
X36647120Y55776595D01*
X35846512Y54975987D01*
X35915977Y54733803D01*
X36056438Y54683691D01*
X35856817Y54601210D01*
X35463491Y54208570D01*
X35250363Y53695300D01*
X35249878Y53139539D01*
X35462110Y52625897D01*
X35854750Y52232571D01*
X36062632Y52146251D01*
X35856817Y52061210D01*
X35463491Y51668570D01*
X35250363Y51155300D01*
X35249878Y50599539D01*
X35462110Y50085897D01*
X35854750Y49692571D01*
X36062632Y49606251D01*
X35856817Y49521210D01*
X35463491Y49128570D01*
X35250363Y48615300D01*
X35249878Y48059539D01*
X35462110Y47545897D01*
X35854750Y47152571D01*
X36062632Y47066251D01*
X35856817Y46981210D01*
X35463491Y46588570D01*
X35250363Y46075300D01*
X35249878Y45519539D01*
X35462110Y45005897D01*
X35854750Y44612571D01*
X36062632Y44526251D01*
X35856817Y44441210D01*
X35463491Y44048570D01*
X35250363Y43535300D01*
X35249878Y42979539D01*
X35462110Y42465897D01*
X35854750Y42072571D01*
X36062632Y41986251D01*
X35856817Y41901210D01*
X35463491Y41508570D01*
X35450050Y41476200D01*
X27182922Y41476200D01*
X23595521Y45063601D01*
X23348959Y45228348D01*
X23058120Y45286200D01*
X22707999Y45286200D01*
X22803877Y45517100D01*
X22804362Y46072861D01*
X22592130Y46586503D01*
X22199490Y46979829D01*
X21991608Y47066149D01*
X22197423Y47151190D01*
X22590749Y47543830D01*
X22803877Y48057100D01*
X22804362Y48612861D01*
X22592130Y49126503D01*
X22199490Y49519829D01*
X21991608Y49606149D01*
X22197423Y49691190D01*
X22590749Y50083830D01*
X22803877Y50597100D01*
X22804362Y51152861D01*
X22592130Y51666503D01*
X22199490Y52059829D01*
X21991608Y52146149D01*
X22197423Y52231190D01*
X22590749Y52623830D01*
X22803877Y53137100D01*
X22804362Y53692861D01*
X22592130Y54206503D01*
X22199490Y54599829D01*
X21991608Y54686149D01*
X22197423Y54771190D01*
X22590749Y55163830D01*
X22803877Y55677100D01*
X22804301Y56163898D01*
X35237976Y56163898D01*
X35265758Y55608832D01*
X35424723Y55225057D01*
X35666907Y55155592D01*
X36467515Y55956200D01*
X36826725Y55956200D01*
X37627333Y55155592D01*
X37869517Y55225057D01*
X38056264Y55748502D01*
X38028482Y56303568D01*
X37869517Y56687343D01*
X37627333Y56756808D01*
X36826725Y55956200D01*
X36467515Y55956200D01*
X35666907Y56756808D01*
X35424723Y56687343D01*
X35237976Y56163898D01*
X22804301Y56163898D01*
X22804362Y56232861D01*
X22592130Y56746503D01*
X22199490Y57139829D01*
X21991608Y57226149D01*
X22197423Y57311190D01*
X22590749Y57703830D01*
X22803877Y58217100D01*
X22804362Y58772861D01*
X22592130Y59286503D01*
X22199490Y59679829D01*
X21686220Y59892957D01*
X21130459Y59893442D01*
X20616817Y59681210D01*
X20223491Y59288570D01*
X20010363Y58775300D01*
X20009878Y58219539D01*
X20222110Y57705897D01*
X20614750Y57312571D01*
X20822632Y57226251D01*
X20616817Y57141210D01*
X20223491Y56748570D01*
X20010363Y56235300D01*
X20009878Y55679539D01*
X20222110Y55165897D01*
X20614750Y54772571D01*
X20822632Y54686251D01*
X20616817Y54601210D01*
X20223491Y54208570D01*
X20010363Y53695300D01*
X20009878Y53139539D01*
X20222110Y52625897D01*
X20614750Y52232571D01*
X20822632Y52146251D01*
X20616817Y52061210D01*
X20223491Y51668570D01*
X20010363Y51155300D01*
X20009878Y50599539D01*
X20222110Y50085897D01*
X20614750Y49692571D01*
X20822632Y49606251D01*
X20616817Y49521210D01*
X20566720Y49471200D01*
X18321252Y49471200D01*
X14273681Y53518771D01*
X15689602Y53517536D01*
X17099635Y54100150D01*
X18179379Y55178011D01*
X18764453Y56587025D01*
X18765784Y58112682D01*
X18183170Y59522715D01*
X17105309Y60602459D01*
X15696295Y61187533D01*
X14170638Y61188864D01*
X12760605Y60606250D01*
X11680861Y59528389D01*
X11095787Y58119375D01*
X11094749Y56929823D01*
X11084887Y56936413D01*
X10792466Y57131803D01*
X10358120Y57218200D01*
X8262136Y57218200D01*
X7907498Y57455161D01*
X7339213Y57568200D01*
X7281027Y57568200D01*
X6712742Y57455161D01*
X6230973Y57133254D01*
X5909066Y56651485D01*
X5896404Y56587830D01*
X5787765Y56850124D01*
X5397478Y57278383D01*
X4873012Y57524686D01*
X4643120Y57404019D01*
X4643120Y56210200D01*
X4663120Y56210200D01*
X4663120Y55956200D01*
X4643120Y55956200D01*
X4643120Y53670200D01*
X4663120Y53670200D01*
X4663120Y53416200D01*
X4643120Y53416200D01*
X4643120Y51130200D01*
X4663120Y51130200D01*
X4663120Y50876200D01*
X4643120Y50876200D01*
X4643120Y48590200D01*
X4663120Y48590200D01*
X4663120Y48336200D01*
X4643120Y48336200D01*
X4643120Y46050200D01*
X4663120Y46050200D01*
X4663120Y45796200D01*
X4643120Y45796200D01*
X4643120Y44596950D01*
X4801870Y44438200D01*
X5492429Y44438200D01*
X5725818Y44534873D01*
X5904447Y44713501D01*
X5917194Y44744274D01*
X5996030Y44621759D01*
X6208230Y44476769D01*
X6460120Y44425760D01*
X7732758Y44425760D01*
X8169719Y43988799D01*
X8416280Y43824052D01*
X8707120Y43766200D01*
X20106241Y43766200D01*
X20010363Y43535300D01*
X20010334Y43502200D01*
X15057120Y43502200D01*
X14622774Y43415803D01*
X14254554Y43169766D01*
X12857554Y41772766D01*
X12624518Y41424004D01*
X12610066Y41414347D01*
X12580717Y41370423D01*
X12508447Y41544898D01*
X12329819Y41723527D01*
X12096430Y41820200D01*
X11405870Y41820200D01*
X11247120Y41661450D01*
X11247120Y40462200D01*
X11267120Y40462200D01*
X11267120Y40208200D01*
X11247120Y40208200D01*
X11247120Y40188200D01*
X10993120Y40188200D01*
X10993120Y40208200D01*
X9793870Y40208200D01*
X9635120Y40049450D01*
X9635120Y39358891D01*
X9731793Y39125502D01*
X9910421Y38946873D01*
X9931359Y38938200D01*
X9831700Y38938200D01*
X9342120Y39427780D01*
X9342120Y41097200D01*
X9333435Y41143359D01*
X9306155Y41185753D01*
X9264530Y41214194D01*
X9215120Y41224200D01*
X781120Y41224200D01*
X781120Y41311509D01*
X9635120Y41311509D01*
X9635120Y40620950D01*
X9793870Y40462200D01*
X10993120Y40462200D01*
X10993120Y41661450D01*
X10834370Y41820200D01*
X10143810Y41820200D01*
X9910421Y41723527D01*
X9731793Y41544898D01*
X9635120Y41311509D01*
X781120Y41311509D01*
X781120Y44444188D01*
X872120Y44425760D01*
X2572120Y44425760D01*
X2807437Y44470038D01*
X3023561Y44609110D01*
X3115374Y44743483D01*
X3127793Y44713501D01*
X3306422Y44534873D01*
X3539811Y44438200D01*
X4230370Y44438200D01*
X4389120Y44596950D01*
X4389120Y45796200D01*
X4369120Y45796200D01*
X4369120Y46050200D01*
X4389120Y46050200D01*
X4389120Y48336200D01*
X4369120Y48336200D01*
X4369120Y48590200D01*
X4389120Y48590200D01*
X4389120Y50876200D01*
X4369120Y50876200D01*
X4369120Y51130200D01*
X4389120Y51130200D01*
X4389120Y53416200D01*
X4369120Y53416200D01*
X4369120Y53670200D01*
X4389120Y53670200D01*
X4389120Y55956200D01*
X4369120Y55956200D01*
X4369120Y56210200D01*
X4389120Y56210200D01*
X4389120Y57404019D01*
X4159228Y57524686D01*
X3634762Y57278383D01*
X3244475Y56850124D01*
X3135836Y56587830D01*
X3123174Y56651485D01*
X2801267Y57133254D01*
X2319498Y57455161D01*
X1751213Y57568200D01*
X1693027Y57568200D01*
X1124742Y57455161D01*
X781120Y57225561D01*
X781120Y65080200D01*
X3507680Y65080200D01*
X3507680Y62580200D01*
X3551958Y62344883D01*
X3691030Y62128759D01*
X3903230Y61983769D01*
X4155120Y61932760D01*
X6655120Y61932760D01*
X6890437Y61977038D01*
X7106561Y62116110D01*
X7251551Y62328310D01*
X7302560Y62580200D01*
X7302560Y65080200D01*
X7258282Y65315517D01*
X7119210Y65531641D01*
X6907010Y65676631D01*
X6655120Y65727640D01*
X4155120Y65727640D01*
X3919803Y65683362D01*
X3703679Y65544290D01*
X3558689Y65332090D01*
X3507680Y65080200D01*
X781120Y65080200D01*
X781120Y67496880D01*
X4251405Y67496880D01*
X4380653Y67204077D01*
X5080926Y66935812D01*
X5830555Y66955950D01*
X6429587Y67204077D01*
X6558835Y67496880D01*
X5405120Y68650595D01*
X4251405Y67496880D01*
X781120Y67496880D01*
X781120Y69154394D01*
X3510732Y69154394D01*
X3530870Y68404765D01*
X3778997Y67805733D01*
X4071800Y67676485D01*
X5225515Y68830200D01*
X5584725Y68830200D01*
X6738440Y67676485D01*
X7031243Y67805733D01*
X7299508Y68506006D01*
X7279370Y69255635D01*
X7031243Y69854667D01*
X6738440Y69983915D01*
X5584725Y68830200D01*
X5225515Y68830200D01*
X4071800Y69983915D01*
X3778997Y69854667D01*
X3510732Y69154394D01*
X781120Y69154394D01*
X781120Y70163520D01*
X4251405Y70163520D01*
X5405120Y69009805D01*
X6558835Y70163520D01*
X6429587Y70456323D01*
X5729314Y70724588D01*
X4979685Y70704450D01*
X4380653Y70456323D01*
X4251405Y70163520D01*
X781120Y70163520D01*
X781120Y70740200D01*
X47929923Y70740200D01*
X47685605Y70639250D01*
X47685605Y70639250D01*
G37*
X47685605Y70639250D02*
X46605861Y69561389D01*
X46020787Y68152375D01*
X46019456Y66626718D01*
X46602070Y65216685D01*
X47679931Y64136941D01*
X49088945Y63551867D01*
X50614602Y63550536D01*
X52024635Y64133150D01*
X52955120Y65062012D01*
X52955120Y52964779D01*
X46797910Y59121990D01*
X46646927Y59222873D01*
X46510795Y59313833D01*
X46454604Y59325010D01*
X46172120Y59381201D01*
X46172115Y59381200D01*
X37737598Y59381200D01*
X37439490Y59679829D01*
X36926220Y59892957D01*
X36370459Y59893442D01*
X35856817Y59681210D01*
X35463491Y59288570D01*
X35250363Y58775300D01*
X35249878Y58219539D01*
X35462110Y57705897D01*
X35854750Y57312571D01*
X36046847Y57232805D01*
X35915977Y57178597D01*
X35846512Y56936413D01*
X36647120Y56135805D01*
X37447728Y56936413D01*
X37378263Y57178597D01*
X37237802Y57228709D01*
X37437423Y57311190D01*
X37737957Y57611200D01*
X45805540Y57611200D01*
X46921463Y56495278D01*
X46560762Y56325883D01*
X46170475Y55897624D01*
X46000644Y55487590D01*
X46121965Y55257700D01*
X47315120Y55257700D01*
X47315120Y55277700D01*
X47569120Y55277700D01*
X47569120Y55257700D01*
X47589120Y55257700D01*
X47589120Y55003700D01*
X47569120Y55003700D01*
X47569120Y54983700D01*
X47315120Y54983700D01*
X47315120Y55003700D01*
X46121965Y55003700D01*
X46000644Y54773810D01*
X46170475Y54363776D01*
X46560762Y53935517D01*
X46703673Y53868402D01*
X46362973Y53640754D01*
X46058086Y53184457D01*
X46010890Y53257801D01*
X45798690Y53402791D01*
X45546800Y53453800D01*
X44846800Y53453800D01*
X44611483Y53409522D01*
X44395359Y53270450D01*
X44250369Y53058250D01*
X44247719Y53045163D01*
X44110890Y53257801D01*
X43898690Y53402791D01*
X43646800Y53453800D01*
X42946800Y53453800D01*
X42711483Y53409522D01*
X42495359Y53270450D01*
X42350369Y53058250D01*
X42299360Y52806360D01*
X42299360Y52702020D01*
X42286999Y52693761D01*
X41960958Y52367720D01*
X38770402Y52367720D01*
X38031303Y53106819D01*
X38043877Y53137100D01*
X38044362Y53692861D01*
X37832130Y54206503D01*
X37439490Y54599829D01*
X37247393Y54679595D01*
X37378263Y54733803D01*
X37447728Y54975987D01*
X36647120Y55776595D01*
X35846512Y54975987D01*
X35915977Y54733803D01*
X36056438Y54683691D01*
X35856817Y54601210D01*
X35463491Y54208570D01*
X35250363Y53695300D01*
X35249878Y53139539D01*
X35462110Y52625897D01*
X35854750Y52232571D01*
X36062632Y52146251D01*
X35856817Y52061210D01*
X35463491Y51668570D01*
X35250363Y51155300D01*
X35249878Y50599539D01*
X35462110Y50085897D01*
X35854750Y49692571D01*
X36062632Y49606251D01*
X35856817Y49521210D01*
X35463491Y49128570D01*
X35250363Y48615300D01*
X35249878Y48059539D01*
X35462110Y47545897D01*
X35854750Y47152571D01*
X36062632Y47066251D01*
X35856817Y46981210D01*
X35463491Y46588570D01*
X35250363Y46075300D01*
X35249878Y45519539D01*
X35462110Y45005897D01*
X35854750Y44612571D01*
X36062632Y44526251D01*
X35856817Y44441210D01*
X35463491Y44048570D01*
X35250363Y43535300D01*
X35249878Y42979539D01*
X35462110Y42465897D01*
X35854750Y42072571D01*
X36062632Y41986251D01*
X35856817Y41901210D01*
X35463491Y41508570D01*
X35450050Y41476200D01*
X27182922Y41476200D01*
X23595521Y45063601D01*
X23348959Y45228348D01*
X23058120Y45286200D01*
X22707999Y45286200D01*
X22803877Y45517100D01*
X22804362Y46072861D01*
X22592130Y46586503D01*
X22199490Y46979829D01*
X21991608Y47066149D01*
X22197423Y47151190D01*
X22590749Y47543830D01*
X22803877Y48057100D01*
X22804362Y48612861D01*
X22592130Y49126503D01*
X22199490Y49519829D01*
X21991608Y49606149D01*
X22197423Y49691190D01*
X22590749Y50083830D01*
X22803877Y50597100D01*
X22804362Y51152861D01*
X22592130Y51666503D01*
X22199490Y52059829D01*
X21991608Y52146149D01*
X22197423Y52231190D01*
X22590749Y52623830D01*
X22803877Y53137100D01*
X22804362Y53692861D01*
X22592130Y54206503D01*
X22199490Y54599829D01*
X21991608Y54686149D01*
X22197423Y54771190D01*
X22590749Y55163830D01*
X22803877Y55677100D01*
X22804301Y56163898D01*
X35237976Y56163898D01*
X35265758Y55608832D01*
X35424723Y55225057D01*
X35666907Y55155592D01*
X36467515Y55956200D01*
X36826725Y55956200D01*
X37627333Y55155592D01*
X37869517Y55225057D01*
X38056264Y55748502D01*
X38028482Y56303568D01*
X37869517Y56687343D01*
X37627333Y56756808D01*
X36826725Y55956200D01*
X36467515Y55956200D01*
X35666907Y56756808D01*
X35424723Y56687343D01*
X35237976Y56163898D01*
X22804301Y56163898D01*
X22804362Y56232861D01*
X22592130Y56746503D01*
X22199490Y57139829D01*
X21991608Y57226149D01*
X22197423Y57311190D01*
X22590749Y57703830D01*
X22803877Y58217100D01*
X22804362Y58772861D01*
X22592130Y59286503D01*
X22199490Y59679829D01*
X21686220Y59892957D01*
X21130459Y59893442D01*
X20616817Y59681210D01*
X20223491Y59288570D01*
X20010363Y58775300D01*
X20009878Y58219539D01*
X20222110Y57705897D01*
X20614750Y57312571D01*
X20822632Y57226251D01*
X20616817Y57141210D01*
X20223491Y56748570D01*
X20010363Y56235300D01*
X20009878Y55679539D01*
X20222110Y55165897D01*
X20614750Y54772571D01*
X20822632Y54686251D01*
X20616817Y54601210D01*
X20223491Y54208570D01*
X20010363Y53695300D01*
X20009878Y53139539D01*
X20222110Y52625897D01*
X20614750Y52232571D01*
X20822632Y52146251D01*
X20616817Y52061210D01*
X20223491Y51668570D01*
X20010363Y51155300D01*
X20009878Y50599539D01*
X20222110Y50085897D01*
X20614750Y49692571D01*
X20822632Y49606251D01*
X20616817Y49521210D01*
X20566720Y49471200D01*
X18321252Y49471200D01*
X14273681Y53518771D01*
X15689602Y53517536D01*
X17099635Y54100150D01*
X18179379Y55178011D01*
X18764453Y56587025D01*
X18765784Y58112682D01*
X18183170Y59522715D01*
X17105309Y60602459D01*
X15696295Y61187533D01*
X14170638Y61188864D01*
X12760605Y60606250D01*
X11680861Y59528389D01*
X11095787Y58119375D01*
X11094749Y56929823D01*
X11084887Y56936413D01*
X10792466Y57131803D01*
X10358120Y57218200D01*
X8262136Y57218200D01*
X7907498Y57455161D01*
X7339213Y57568200D01*
X7281027Y57568200D01*
X6712742Y57455161D01*
X6230973Y57133254D01*
X5909066Y56651485D01*
X5896404Y56587830D01*
X5787765Y56850124D01*
X5397478Y57278383D01*
X4873012Y57524686D01*
X4643120Y57404019D01*
X4643120Y56210200D01*
X4663120Y56210200D01*
X4663120Y55956200D01*
X4643120Y55956200D01*
X4643120Y53670200D01*
X4663120Y53670200D01*
X4663120Y53416200D01*
X4643120Y53416200D01*
X4643120Y51130200D01*
X4663120Y51130200D01*
X4663120Y50876200D01*
X4643120Y50876200D01*
X4643120Y48590200D01*
X4663120Y48590200D01*
X4663120Y48336200D01*
X4643120Y48336200D01*
X4643120Y46050200D01*
X4663120Y46050200D01*
X4663120Y45796200D01*
X4643120Y45796200D01*
X4643120Y44596950D01*
X4801870Y44438200D01*
X5492429Y44438200D01*
X5725818Y44534873D01*
X5904447Y44713501D01*
X5917194Y44744274D01*
X5996030Y44621759D01*
X6208230Y44476769D01*
X6460120Y44425760D01*
X7732758Y44425760D01*
X8169719Y43988799D01*
X8416280Y43824052D01*
X8707120Y43766200D01*
X20106241Y43766200D01*
X20010363Y43535300D01*
X20010334Y43502200D01*
X15057120Y43502200D01*
X14622774Y43415803D01*
X14254554Y43169766D01*
X12857554Y41772766D01*
X12624518Y41424004D01*
X12610066Y41414347D01*
X12580717Y41370423D01*
X12508447Y41544898D01*
X12329819Y41723527D01*
X12096430Y41820200D01*
X11405870Y41820200D01*
X11247120Y41661450D01*
X11247120Y40462200D01*
X11267120Y40462200D01*
X11267120Y40208200D01*
X11247120Y40208200D01*
X11247120Y40188200D01*
X10993120Y40188200D01*
X10993120Y40208200D01*
X9793870Y40208200D01*
X9635120Y40049450D01*
X9635120Y39358891D01*
X9731793Y39125502D01*
X9910421Y38946873D01*
X9931359Y38938200D01*
X9831700Y38938200D01*
X9342120Y39427780D01*
X9342120Y41097200D01*
X9333435Y41143359D01*
X9306155Y41185753D01*
X9264530Y41214194D01*
X9215120Y41224200D01*
X781120Y41224200D01*
X781120Y41311509D01*
X9635120Y41311509D01*
X9635120Y40620950D01*
X9793870Y40462200D01*
X10993120Y40462200D01*
X10993120Y41661450D01*
X10834370Y41820200D01*
X10143810Y41820200D01*
X9910421Y41723527D01*
X9731793Y41544898D01*
X9635120Y41311509D01*
X781120Y41311509D01*
X781120Y44444188D01*
X872120Y44425760D01*
X2572120Y44425760D01*
X2807437Y44470038D01*
X3023561Y44609110D01*
X3115374Y44743483D01*
X3127793Y44713501D01*
X3306422Y44534873D01*
X3539811Y44438200D01*
X4230370Y44438200D01*
X4389120Y44596950D01*
X4389120Y45796200D01*
X4369120Y45796200D01*
X4369120Y46050200D01*
X4389120Y46050200D01*
X4389120Y48336200D01*
X4369120Y48336200D01*
X4369120Y48590200D01*
X4389120Y48590200D01*
X4389120Y50876200D01*
X4369120Y50876200D01*
X4369120Y51130200D01*
X4389120Y51130200D01*
X4389120Y53416200D01*
X4369120Y53416200D01*
X4369120Y53670200D01*
X4389120Y53670200D01*
X4389120Y55956200D01*
X4369120Y55956200D01*
X4369120Y56210200D01*
X4389120Y56210200D01*
X4389120Y57404019D01*
X4159228Y57524686D01*
X3634762Y57278383D01*
X3244475Y56850124D01*
X3135836Y56587830D01*
X3123174Y56651485D01*
X2801267Y57133254D01*
X2319498Y57455161D01*
X1751213Y57568200D01*
X1693027Y57568200D01*
X1124742Y57455161D01*
X781120Y57225561D01*
X781120Y65080200D01*
X3507680Y65080200D01*
X3507680Y62580200D01*
X3551958Y62344883D01*
X3691030Y62128759D01*
X3903230Y61983769D01*
X4155120Y61932760D01*
X6655120Y61932760D01*
X6890437Y61977038D01*
X7106561Y62116110D01*
X7251551Y62328310D01*
X7302560Y62580200D01*
X7302560Y65080200D01*
X7258282Y65315517D01*
X7119210Y65531641D01*
X6907010Y65676631D01*
X6655120Y65727640D01*
X4155120Y65727640D01*
X3919803Y65683362D01*
X3703679Y65544290D01*
X3558689Y65332090D01*
X3507680Y65080200D01*
X781120Y65080200D01*
X781120Y67496880D01*
X4251405Y67496880D01*
X4380653Y67204077D01*
X5080926Y66935812D01*
X5830555Y66955950D01*
X6429587Y67204077D01*
X6558835Y67496880D01*
X5405120Y68650595D01*
X4251405Y67496880D01*
X781120Y67496880D01*
X781120Y69154394D01*
X3510732Y69154394D01*
X3530870Y68404765D01*
X3778997Y67805733D01*
X4071800Y67676485D01*
X5225515Y68830200D01*
X5584725Y68830200D01*
X6738440Y67676485D01*
X7031243Y67805733D01*
X7299508Y68506006D01*
X7279370Y69255635D01*
X7031243Y69854667D01*
X6738440Y69983915D01*
X5584725Y68830200D01*
X5225515Y68830200D01*
X4071800Y69983915D01*
X3778997Y69854667D01*
X3510732Y69154394D01*
X781120Y69154394D01*
X781120Y70163520D01*
X4251405Y70163520D01*
X5405120Y69009805D01*
X6558835Y70163520D01*
X6429587Y70456323D01*
X5729314Y70724588D01*
X4979685Y70704450D01*
X4380653Y70456323D01*
X4251405Y70163520D01*
X781120Y70163520D01*
X781120Y70740200D01*
X47929923Y70740200D01*
X47685605Y70639250D01*
G36*
X41981120Y48590200D02*
X42001120Y48590200D01*
X42001120Y48336200D01*
X41981120Y48336200D01*
X41981120Y48316200D01*
X41727120Y48316200D01*
X41727120Y48336200D01*
X41707120Y48336200D01*
X41707120Y48590200D01*
X41727120Y48590200D01*
X41727120Y48610200D01*
X41981120Y48610200D01*
X41981120Y48590200D01*
X41981120Y48590200D01*
G37*
X41981120Y48590200D02*
X42001120Y48590200D01*
X42001120Y48336200D01*
X41981120Y48336200D01*
X41981120Y48316200D01*
X41727120Y48316200D01*
X41727120Y48336200D01*
X41707120Y48336200D01*
X41707120Y48590200D01*
X41727120Y48590200D01*
X41727120Y48610200D01*
X41981120Y48610200D01*
X41981120Y48590200D01*
M02*
