G04 #@! TF.FileFunction,Soldermask,Bot*
%FSLAX46Y46*%
G04 Gerber Fmt 4.6, Leading zero omitted, Abs format (unit mm)*
G04 Created by KiCad (PCBNEW 4.0.6+dfsg1-1) date Mon Feb 26 19:50:24 2018*
%MOMM*%
%LPD*%
G01*
G04 APERTURE LIST*
%ADD10C,0.100000*%
%ADD11R,2.100000X2.100000*%
%ADD12O,2.100000X2.100000*%
%ADD13R,2.900000X2.900000*%
%ADD14C,2.900000*%
%ADD15C,1.924000*%
%ADD16C,6.800000*%
%ADD17C,1.000000*%
%ADD18R,1.700000X1.100000*%
%ADD19R,1.100000X1.700000*%
G04 APERTURE END LIST*
D10*
D11*
X2357120Y34620200D03*
D12*
X4897120Y34620200D03*
X7437120Y34620200D03*
D13*
X10231120Y4775200D03*
D14*
X15231120Y4775200D03*
D11*
X49347120Y36652200D03*
D12*
X49347120Y34112200D03*
X49347120Y31572200D03*
D11*
X41854120Y30683200D03*
D12*
X41854120Y33223200D03*
X41854120Y35763200D03*
X41854120Y38303200D03*
X41854120Y40843200D03*
X41854120Y43383200D03*
X41854120Y45923200D03*
X41854120Y48463200D03*
D11*
X16454120Y14300200D03*
D12*
X16454120Y16840200D03*
D11*
X16327120Y25476200D03*
D12*
X16327120Y22936200D03*
X16327120Y20396200D03*
D11*
X41854120Y27000200D03*
D12*
X41854120Y24460200D03*
X41854120Y21920200D03*
D11*
X11120120Y40335200D03*
D12*
X13660120Y40335200D03*
X16200120Y40335200D03*
D11*
X2357120Y28524200D03*
D12*
X4897120Y28524200D03*
X7437120Y28524200D03*
D11*
X2357120Y31572200D03*
D12*
X4897120Y31572200D03*
X7437120Y31572200D03*
D11*
X2357120Y37668200D03*
D12*
X4897120Y37668200D03*
X7437120Y37668200D03*
D15*
X21407120Y10236200D03*
X21407120Y12776200D03*
X21407120Y15316200D03*
X21407120Y17856200D03*
X21407120Y20396200D03*
X21407120Y22936200D03*
X21407120Y25476200D03*
X21407120Y28016200D03*
X21407120Y30556200D03*
X21407120Y33096200D03*
X21407120Y35636200D03*
X21407120Y38176200D03*
X21407120Y40716200D03*
X21407120Y43256200D03*
X21407120Y45796200D03*
X21407120Y48336200D03*
X21407120Y50876200D03*
X21407120Y53416200D03*
X21407120Y55956200D03*
X21407120Y58496200D03*
X36647120Y58496200D03*
X36647120Y55956200D03*
X36647120Y53416200D03*
X36647120Y50876200D03*
X36647120Y48336200D03*
X36647120Y45796200D03*
X36647120Y43256200D03*
X36647120Y40716200D03*
X36647120Y38176200D03*
X36647120Y35636200D03*
X36647120Y33096200D03*
X36647120Y30556200D03*
X36647120Y28016200D03*
X36647120Y25476200D03*
X36647120Y22936200D03*
X36647120Y20396200D03*
X36647120Y17856200D03*
X36647120Y15316200D03*
X36647120Y12776200D03*
X36647120Y10236200D03*
D13*
X5405120Y63830200D03*
D14*
X5405120Y68830200D03*
D11*
X51760120Y5537200D03*
D12*
X51760120Y8077200D03*
X51760120Y10617200D03*
X51760120Y13157200D03*
X51760120Y15697200D03*
X51760120Y18237200D03*
D11*
X46172120Y5537200D03*
D12*
X46172120Y8077200D03*
X46172120Y10617200D03*
X46172120Y13157200D03*
X46172120Y15697200D03*
X46172120Y18237200D03*
D11*
X48966120Y5537200D03*
D12*
X48966120Y8077200D03*
X48966120Y10617200D03*
X48966120Y13157200D03*
X48966120Y15697200D03*
X48966120Y18237200D03*
D11*
X1722120Y45923200D03*
D12*
X1722120Y48463200D03*
X1722120Y51003200D03*
X1722120Y53543200D03*
X1722120Y56083200D03*
D11*
X7310120Y45923200D03*
D12*
X7310120Y48463200D03*
X7310120Y51003200D03*
X7310120Y53543200D03*
X7310120Y56083200D03*
D11*
X4516120Y45923200D03*
D12*
X4516120Y48463200D03*
X4516120Y51003200D03*
X4516120Y53543200D03*
X4516120Y56083200D03*
D16*
X49855120Y67386200D03*
D17*
X52255120Y67386200D03*
X51552176Y65689144D03*
X49855120Y64986200D03*
X48158064Y65689144D03*
X47455120Y67386200D03*
X48158064Y69083256D03*
X49855120Y69786200D03*
X51552176Y69083256D03*
D16*
X36520120Y3886200D03*
D17*
X38920120Y3886200D03*
X38217176Y2189144D03*
X36520120Y1486200D03*
X34823064Y2189144D03*
X34120120Y3886200D03*
X34823064Y5583256D03*
X36520120Y6286200D03*
X38217176Y5583256D03*
D16*
X49220120Y42875200D03*
D17*
X51620120Y42875200D03*
X50917176Y41178144D03*
X49220120Y40475200D03*
X47523064Y41178144D03*
X46820120Y42875200D03*
X47523064Y44572256D03*
X49220120Y45275200D03*
X50917176Y44572256D03*
D16*
X14930120Y57353200D03*
D17*
X17330120Y57353200D03*
X16627176Y55656144D03*
X14930120Y54953200D03*
X13233064Y55656144D03*
X12530120Y57353200D03*
X13233064Y59050256D03*
X14930120Y59753200D03*
X16627176Y59050256D03*
D16*
X3881120Y4648200D03*
D17*
X6281120Y4648200D03*
X5578176Y2951144D03*
X3881120Y2248200D03*
X2184064Y2951144D03*
X1481120Y4648200D03*
X2184064Y6345256D03*
X3881120Y7048200D03*
X5578176Y6345256D03*
D18*
X45115480Y46710560D03*
X45115480Y48610560D03*
D19*
X43296800Y52156360D03*
X45196800Y52156360D03*
D11*
X47442120Y47510700D03*
D12*
X47442120Y50050700D03*
X47442120Y52590700D03*
X47442120Y55130700D03*
M02*
