G04 #@! TF.FileFunction,Legend,Top*
%FSLAX46Y46*%
G04 Gerber Fmt 4.6, Leading zero omitted, Abs format (unit mm)*
G04 Created by KiCad (PCBNEW 4.0.6+dfsg1-1) date Mon Feb 26 19:50:24 2018*
%MOMM*%
%LPD*%
G01*
G04 APERTURE LIST*
%ADD10C,0.100000*%
%ADD11C,0.200000*%
%ADD12C,0.250000*%
%ADD13C,0.120000*%
%ADD14C,0.150000*%
%ADD15C,1.000000*%
%ADD16C,0.010000*%
G04 APERTURE END LIST*
D10*
D11*
X50236120Y56591200D02*
X50236120Y45923200D01*
X45918120Y56591200D02*
X50236120Y56591200D01*
X45918120Y50495200D02*
X45918120Y56591200D01*
X45918120Y45923200D02*
X50236120Y45923200D01*
X45918120Y50495200D02*
X45918120Y45923200D01*
X49163025Y47421820D02*
X49163025Y47040867D01*
X49543977Y47002772D01*
X49505882Y47040867D01*
X49467787Y47117058D01*
X49467787Y47307534D01*
X49505882Y47383724D01*
X49543977Y47421820D01*
X49620168Y47459915D01*
X49810644Y47459915D01*
X49886834Y47421820D01*
X49924930Y47383724D01*
X49963025Y47307534D01*
X49963025Y47117058D01*
X49924930Y47040867D01*
X49886834Y47002772D01*
X49163025Y47688486D02*
X49963025Y47955153D01*
X49163025Y48221820D01*
X49924930Y49098319D02*
X49963025Y49212605D01*
X49963025Y49403081D01*
X49924930Y49479271D01*
X49886834Y49517367D01*
X49810644Y49555462D01*
X49734453Y49555462D01*
X49658263Y49517367D01*
X49620168Y49479271D01*
X49582072Y49403081D01*
X49543977Y49250700D01*
X49505882Y49174509D01*
X49467787Y49136414D01*
X49391596Y49098319D01*
X49315406Y49098319D01*
X49239215Y49136414D01*
X49201120Y49174509D01*
X49163025Y49250700D01*
X49163025Y49441176D01*
X49201120Y49555462D01*
X49886834Y50355462D02*
X49924930Y50317367D01*
X49963025Y50203081D01*
X49963025Y50126891D01*
X49924930Y50012605D01*
X49848739Y49936414D01*
X49772549Y49898319D01*
X49620168Y49860224D01*
X49505882Y49860224D01*
X49353501Y49898319D01*
X49277310Y49936414D01*
X49201120Y50012605D01*
X49163025Y50126891D01*
X49163025Y50203081D01*
X49201120Y50317367D01*
X49239215Y50355462D01*
X49963025Y51079272D02*
X49963025Y50698319D01*
X49163025Y50698319D01*
X49924930Y51619272D02*
X49963025Y51733558D01*
X49963025Y51924034D01*
X49924930Y52000224D01*
X49886834Y52038320D01*
X49810644Y52076415D01*
X49734453Y52076415D01*
X49658263Y52038320D01*
X49620168Y52000224D01*
X49582072Y51924034D01*
X49543977Y51771653D01*
X49505882Y51695462D01*
X49467787Y51657367D01*
X49391596Y51619272D01*
X49315406Y51619272D01*
X49239215Y51657367D01*
X49201120Y51695462D01*
X49163025Y51771653D01*
X49163025Y51962129D01*
X49201120Y52076415D01*
X49963025Y52419272D02*
X49163025Y52419272D01*
X49163025Y52609748D01*
X49201120Y52724034D01*
X49277310Y52800225D01*
X49353501Y52838320D01*
X49505882Y52876415D01*
X49620168Y52876415D01*
X49772549Y52838320D01*
X49848739Y52800225D01*
X49924930Y52724034D01*
X49963025Y52609748D01*
X49963025Y52419272D01*
X49734453Y53181177D02*
X49734453Y53562129D01*
X49963025Y53104986D02*
X49163025Y53371653D01*
X49963025Y53638320D01*
X49264620Y54521177D02*
X49226525Y54444986D01*
X49226525Y54330701D01*
X49264620Y54216415D01*
X49340810Y54140224D01*
X49417001Y54102129D01*
X49569382Y54064034D01*
X49683668Y54064034D01*
X49836049Y54102129D01*
X49912239Y54140224D01*
X49988430Y54216415D01*
X50026525Y54330701D01*
X50026525Y54406891D01*
X49988430Y54521177D01*
X49950334Y54559272D01*
X49683668Y54559272D01*
X49683668Y54406891D01*
X50026525Y54902129D02*
X49226525Y54902129D01*
X50026525Y55359272D01*
X49226525Y55359272D01*
X50026525Y55740224D02*
X49226525Y55740224D01*
X49226525Y55930700D01*
X49264620Y56044986D01*
X49340810Y56121177D01*
X49417001Y56159272D01*
X49569382Y56197367D01*
X49683668Y56197367D01*
X49836049Y56159272D01*
X49912239Y56121177D01*
X49988430Y56044986D01*
X50026525Y55930700D01*
X50026525Y55740224D01*
X45854620Y55194200D02*
X45854620Y55130700D01*
X45854620Y46875700D02*
X45854620Y46685200D01*
X40203120Y28651200D02*
X47315120Y28651200D01*
X20264120Y76200D02*
X20264120Y7950200D01*
X20137120Y76200D02*
X20264120Y76200D01*
X71120Y76200D02*
X20137120Y76200D01*
X43956025Y54533963D02*
X43956025Y54153010D01*
X44336977Y54114915D01*
X44298882Y54153010D01*
X44260787Y54229201D01*
X44260787Y54419677D01*
X44298882Y54495867D01*
X44336977Y54533963D01*
X44413168Y54572058D01*
X44603644Y54572058D01*
X44679834Y54533963D01*
X44717930Y54495867D01*
X44756025Y54419677D01*
X44756025Y54229201D01*
X44717930Y54153010D01*
X44679834Y54114915D01*
X43956025Y54800629D02*
X44756025Y55067296D01*
X43956025Y55333963D01*
X43956025Y56362534D02*
X43956025Y56514915D01*
X43994120Y56591106D01*
X44070310Y56667296D01*
X44222691Y56705391D01*
X44489358Y56705391D01*
X44641739Y56667296D01*
X44717930Y56591106D01*
X44756025Y56514915D01*
X44756025Y56362534D01*
X44717930Y56286344D01*
X44641739Y56210153D01*
X44489358Y56172058D01*
X44222691Y56172058D01*
X44070310Y56210153D01*
X43994120Y56286344D01*
X43956025Y56362534D01*
X44756025Y57048248D02*
X43956025Y57048248D01*
X44756025Y57505391D01*
X43956025Y57505391D01*
X45156120Y51765200D02*
X45156120Y60020200D01*
X40203120Y51765200D02*
X45156120Y51765200D01*
X39949120Y60020200D02*
X39949120Y51765200D01*
X39949120Y51765200D02*
X40330120Y51765200D01*
X41219120Y711200D02*
X41346120Y711200D01*
X41219120Y20269200D02*
X41219120Y711200D01*
X47188120Y20269200D02*
X47315120Y20269200D01*
X53665120Y20269200D02*
X47188120Y20269200D01*
X53665120Y20015200D02*
X53665120Y20269200D01*
X53665120Y711200D02*
X53665120Y20015200D01*
X41346120Y711200D02*
X53665120Y711200D01*
X44235787Y1911295D02*
X43854834Y1911295D01*
X43816739Y1530343D01*
X43854834Y1568438D01*
X43931025Y1606533D01*
X44121501Y1606533D01*
X44197691Y1568438D01*
X44235787Y1530343D01*
X44273882Y1454152D01*
X44273882Y1263676D01*
X44235787Y1187486D01*
X44197691Y1149390D01*
X44121501Y1111295D01*
X43931025Y1111295D01*
X43854834Y1149390D01*
X43816739Y1187486D01*
X44502453Y1911295D02*
X44769120Y1111295D01*
X45035787Y1911295D01*
X45797691Y1911295D02*
X46254834Y1911295D01*
X46026263Y1111295D02*
X46026263Y1911295D01*
X46673882Y1911295D02*
X46826263Y1911295D01*
X46902454Y1873200D01*
X46978644Y1797010D01*
X47016739Y1644629D01*
X47016739Y1377962D01*
X46978644Y1225581D01*
X46902454Y1149390D01*
X46826263Y1111295D01*
X46673882Y1111295D01*
X46597692Y1149390D01*
X46521501Y1225581D01*
X46483406Y1377962D01*
X46483406Y1644629D01*
X46521501Y1797010D01*
X46597692Y1873200D01*
X46673882Y1911295D01*
X47740549Y1111295D02*
X47359596Y1111295D01*
X47359596Y1911295D01*
X48007215Y1530343D02*
X48273882Y1530343D01*
X48388168Y1111295D02*
X48007215Y1111295D01*
X48007215Y1911295D01*
X48388168Y1911295D01*
X49188168Y1111295D02*
X48921501Y1492248D01*
X48731025Y1111295D02*
X48731025Y1911295D01*
X49035787Y1911295D01*
X49111978Y1873200D01*
X49150073Y1835105D01*
X49188168Y1758914D01*
X49188168Y1644629D01*
X49150073Y1568438D01*
X49111978Y1530343D01*
X49035787Y1492248D01*
X48731025Y1492248D01*
X49492930Y1339867D02*
X49873882Y1339867D01*
X49416739Y1111295D02*
X49683406Y1911295D01*
X49950073Y1111295D01*
X50216739Y1111295D02*
X50216739Y1911295D01*
X50673882Y1111295D01*
X50673882Y1911295D01*
X50940548Y1911295D02*
X51397691Y1911295D01*
X51169120Y1111295D02*
X51169120Y1911295D01*
X42006644Y17875295D02*
X42006644Y18675295D01*
X42311406Y18675295D01*
X42387597Y18637200D01*
X42425692Y18599105D01*
X42463787Y18522914D01*
X42463787Y18408629D01*
X42425692Y18332438D01*
X42387597Y18294343D01*
X42311406Y18256248D01*
X42006644Y18256248D01*
X43073311Y18294343D02*
X43187597Y18256248D01*
X43225692Y18218152D01*
X43263787Y18141962D01*
X43263787Y18027676D01*
X43225692Y17951486D01*
X43187597Y17913390D01*
X43111406Y17875295D01*
X42806644Y17875295D01*
X42806644Y18675295D01*
X43073311Y18675295D01*
X43149501Y18637200D01*
X43187597Y18599105D01*
X43225692Y18522914D01*
X43225692Y18446724D01*
X43187597Y18370533D01*
X43149501Y18332438D01*
X43073311Y18294343D01*
X42806644Y18294343D01*
X43644739Y17875295D02*
X43797120Y17875295D01*
X43873311Y17913390D01*
X43911406Y17951486D01*
X43987597Y18065771D01*
X44025692Y18218152D01*
X44025692Y18522914D01*
X43987597Y18599105D01*
X43949501Y18637200D01*
X43873311Y18675295D01*
X43720930Y18675295D01*
X43644739Y18637200D01*
X43606644Y18599105D01*
X43568549Y18522914D01*
X43568549Y18332438D01*
X43606644Y18256248D01*
X43644739Y18218152D01*
X43720930Y18180057D01*
X43873311Y18180057D01*
X43949501Y18218152D01*
X43987597Y18256248D01*
X44025692Y18332438D01*
X42006644Y15335295D02*
X42006644Y16135295D01*
X42311406Y16135295D01*
X42387597Y16097200D01*
X42425692Y16059105D01*
X42463787Y15982914D01*
X42463787Y15868629D01*
X42425692Y15792438D01*
X42387597Y15754343D01*
X42311406Y15716248D01*
X42006644Y15716248D01*
X43073311Y15754343D02*
X43187597Y15716248D01*
X43225692Y15678152D01*
X43263787Y15601962D01*
X43263787Y15487676D01*
X43225692Y15411486D01*
X43187597Y15373390D01*
X43111406Y15335295D01*
X42806644Y15335295D01*
X42806644Y16135295D01*
X43073311Y16135295D01*
X43149501Y16097200D01*
X43187597Y16059105D01*
X43225692Y15982914D01*
X43225692Y15906724D01*
X43187597Y15830533D01*
X43149501Y15792438D01*
X43073311Y15754343D01*
X42806644Y15754343D01*
X43720930Y15792438D02*
X43644739Y15830533D01*
X43606644Y15868629D01*
X43568549Y15944819D01*
X43568549Y15982914D01*
X43606644Y16059105D01*
X43644739Y16097200D01*
X43720930Y16135295D01*
X43873311Y16135295D01*
X43949501Y16097200D01*
X43987597Y16059105D01*
X44025692Y15982914D01*
X44025692Y15944819D01*
X43987597Y15868629D01*
X43949501Y15830533D01*
X43873311Y15792438D01*
X43720930Y15792438D01*
X43644739Y15754343D01*
X43606644Y15716248D01*
X43568549Y15640057D01*
X43568549Y15487676D01*
X43606644Y15411486D01*
X43644739Y15373390D01*
X43720930Y15335295D01*
X43873311Y15335295D01*
X43949501Y15373390D01*
X43987597Y15411486D01*
X44025692Y15487676D01*
X44025692Y15640057D01*
X43987597Y15716248D01*
X43949501Y15754343D01*
X43873311Y15792438D01*
X41625691Y12795295D02*
X41625691Y13595295D01*
X41930453Y13595295D01*
X42006644Y13557200D01*
X42044739Y13519105D01*
X42082834Y13442914D01*
X42082834Y13328629D01*
X42044739Y13252438D01*
X42006644Y13214343D01*
X41930453Y13176248D01*
X41625691Y13176248D01*
X42692358Y13214343D02*
X42806644Y13176248D01*
X42844739Y13138152D01*
X42882834Y13061962D01*
X42882834Y12947676D01*
X42844739Y12871486D01*
X42806644Y12833390D01*
X42730453Y12795295D01*
X42425691Y12795295D01*
X42425691Y13595295D01*
X42692358Y13595295D01*
X42768548Y13557200D01*
X42806644Y13519105D01*
X42844739Y13442914D01*
X42844739Y13366724D01*
X42806644Y13290533D01*
X42768548Y13252438D01*
X42692358Y13214343D01*
X42425691Y13214343D01*
X43644739Y12795295D02*
X43187596Y12795295D01*
X43416167Y12795295D02*
X43416167Y13595295D01*
X43339977Y13481010D01*
X43263786Y13404819D01*
X43187596Y13366724D01*
X44368549Y13595295D02*
X43987596Y13595295D01*
X43949501Y13214343D01*
X43987596Y13252438D01*
X44063787Y13290533D01*
X44254263Y13290533D01*
X44330453Y13252438D01*
X44368549Y13214343D01*
X44406644Y13138152D01*
X44406644Y12947676D01*
X44368549Y12871486D01*
X44330453Y12833390D01*
X44254263Y12795295D01*
X44063787Y12795295D01*
X43987596Y12833390D01*
X43949501Y12871486D01*
X41625691Y10255295D02*
X41625691Y11055295D01*
X41930453Y11055295D01*
X42006644Y11017200D01*
X42044739Y10979105D01*
X42082834Y10902914D01*
X42082834Y10788629D01*
X42044739Y10712438D01*
X42006644Y10674343D01*
X41930453Y10636248D01*
X41625691Y10636248D01*
X42692358Y10674343D02*
X42806644Y10636248D01*
X42844739Y10598152D01*
X42882834Y10521962D01*
X42882834Y10407676D01*
X42844739Y10331486D01*
X42806644Y10293390D01*
X42730453Y10255295D01*
X42425691Y10255295D01*
X42425691Y11055295D01*
X42692358Y11055295D01*
X42768548Y11017200D01*
X42806644Y10979105D01*
X42844739Y10902914D01*
X42844739Y10826724D01*
X42806644Y10750533D01*
X42768548Y10712438D01*
X42692358Y10674343D01*
X42425691Y10674343D01*
X43644739Y10255295D02*
X43187596Y10255295D01*
X43416167Y10255295D02*
X43416167Y11055295D01*
X43339977Y10941010D01*
X43263786Y10864819D01*
X43187596Y10826724D01*
X44330453Y10788629D02*
X44330453Y10255295D01*
X44139977Y11093390D02*
X43949501Y10521962D01*
X44444739Y10521962D01*
X41625691Y7715295D02*
X41625691Y8515295D01*
X41930453Y8515295D01*
X42006644Y8477200D01*
X42044739Y8439105D01*
X42082834Y8362914D01*
X42082834Y8248629D01*
X42044739Y8172438D01*
X42006644Y8134343D01*
X41930453Y8096248D01*
X41625691Y8096248D01*
X42692358Y8134343D02*
X42806644Y8096248D01*
X42844739Y8058152D01*
X42882834Y7981962D01*
X42882834Y7867676D01*
X42844739Y7791486D01*
X42806644Y7753390D01*
X42730453Y7715295D01*
X42425691Y7715295D01*
X42425691Y8515295D01*
X42692358Y8515295D01*
X42768548Y8477200D01*
X42806644Y8439105D01*
X42844739Y8362914D01*
X42844739Y8286724D01*
X42806644Y8210533D01*
X42768548Y8172438D01*
X42692358Y8134343D01*
X42425691Y8134343D01*
X43644739Y7715295D02*
X43187596Y7715295D01*
X43416167Y7715295D02*
X43416167Y8515295D01*
X43339977Y8401010D01*
X43263786Y8324819D01*
X43187596Y8286724D01*
X43911406Y8515295D02*
X44406644Y8515295D01*
X44139977Y8210533D01*
X44254263Y8210533D01*
X44330453Y8172438D01*
X44368549Y8134343D01*
X44406644Y8058152D01*
X44406644Y7867676D01*
X44368549Y7791486D01*
X44330453Y7753390D01*
X44254263Y7715295D01*
X44025691Y7715295D01*
X43949501Y7753390D01*
X43911406Y7791486D01*
X41625691Y5302295D02*
X41625691Y6102295D01*
X41930453Y6102295D01*
X42006644Y6064200D01*
X42044739Y6026105D01*
X42082834Y5949914D01*
X42082834Y5835629D01*
X42044739Y5759438D01*
X42006644Y5721343D01*
X41930453Y5683248D01*
X41625691Y5683248D01*
X42692358Y5721343D02*
X42806644Y5683248D01*
X42844739Y5645152D01*
X42882834Y5568962D01*
X42882834Y5454676D01*
X42844739Y5378486D01*
X42806644Y5340390D01*
X42730453Y5302295D01*
X42425691Y5302295D01*
X42425691Y6102295D01*
X42692358Y6102295D01*
X42768548Y6064200D01*
X42806644Y6026105D01*
X42844739Y5949914D01*
X42844739Y5873724D01*
X42806644Y5797533D01*
X42768548Y5759438D01*
X42692358Y5721343D01*
X42425691Y5721343D01*
X43644739Y5302295D02*
X43187596Y5302295D01*
X43416167Y5302295D02*
X43416167Y6102295D01*
X43339977Y5988010D01*
X43263786Y5911819D01*
X43187596Y5873724D01*
X43949501Y6026105D02*
X43987596Y6064200D01*
X44063787Y6102295D01*
X44254263Y6102295D01*
X44330453Y6064200D01*
X44368549Y6026105D01*
X44406644Y5949914D01*
X44406644Y5873724D01*
X44368549Y5759438D01*
X43911406Y5302295D01*
X44406644Y5302295D01*
X45943549Y2927390D02*
X46057835Y2889295D01*
X46248311Y2889295D01*
X46324501Y2927390D01*
X46362597Y2965486D01*
X46400692Y3041676D01*
X46400692Y3117867D01*
X46362597Y3194057D01*
X46324501Y3232152D01*
X46248311Y3270248D01*
X46095930Y3308343D01*
X46019739Y3346438D01*
X45981644Y3384533D01*
X45943549Y3460724D01*
X45943549Y3536914D01*
X45981644Y3613105D01*
X46019739Y3651200D01*
X46095930Y3689295D01*
X46286406Y3689295D01*
X46400692Y3651200D01*
X48356597Y3651200D02*
X48280406Y3689295D01*
X48166121Y3689295D01*
X48051835Y3651200D01*
X47975644Y3575010D01*
X47937549Y3498819D01*
X47899454Y3346438D01*
X47899454Y3232152D01*
X47937549Y3079771D01*
X47975644Y3003581D01*
X48051835Y2927390D01*
X48166121Y2889295D01*
X48242311Y2889295D01*
X48356597Y2927390D01*
X48394692Y2965486D01*
X48394692Y3232152D01*
X48242311Y3232152D01*
X48737549Y2889295D02*
X48737549Y3689295D01*
X49194692Y2889295D01*
X49194692Y3689295D01*
X49575644Y2889295D02*
X49575644Y3689295D01*
X49766120Y3689295D01*
X49880406Y3651200D01*
X49956597Y3575010D01*
X49994692Y3498819D01*
X50032787Y3346438D01*
X50032787Y3232152D01*
X49994692Y3079771D01*
X49956597Y3003581D01*
X49880406Y2927390D01*
X49766120Y2889295D01*
X49575644Y2889295D01*
X51607740Y3689295D02*
X51226787Y3689295D01*
X51188692Y3308343D01*
X51226787Y3346438D01*
X51302978Y3384533D01*
X51493454Y3384533D01*
X51569644Y3346438D01*
X51607740Y3308343D01*
X51645835Y3232152D01*
X51645835Y3041676D01*
X51607740Y2965486D01*
X51569644Y2927390D01*
X51493454Y2889295D01*
X51302978Y2889295D01*
X51226787Y2927390D01*
X51188692Y2965486D01*
X51874406Y3689295D02*
X52141073Y2889295D01*
X52407740Y3689295D01*
X71120Y41097200D02*
X706120Y41097200D01*
X71120Y76200D02*
X71120Y41097200D01*
X11882120Y12522200D02*
X18613120Y12522200D01*
X11882120Y18618200D02*
X11882120Y12522200D01*
X18994120Y18618200D02*
X18994120Y18745200D01*
X11882120Y18618200D02*
X18994120Y18618200D01*
X11882120Y27254200D02*
X11882120Y18618200D01*
X18613120Y27254200D02*
X11882120Y27254200D01*
X9215120Y41097200D02*
X9215120Y44272200D01*
X11882120Y36652200D02*
X18613120Y36652200D01*
D12*
X13507501Y48622152D02*
X13507501Y49241200D01*
X13888453Y48907866D01*
X13888453Y49050724D01*
X13936072Y49145962D01*
X13983691Y49193581D01*
X14078930Y49241200D01*
X14317025Y49241200D01*
X14412263Y49193581D01*
X14459882Y49145962D01*
X14507501Y49050724D01*
X14507501Y48765009D01*
X14459882Y48669771D01*
X14412263Y48622152D01*
X13507501Y49526914D02*
X14507501Y49860247D01*
X13507501Y50193581D01*
X13507501Y50431676D02*
X13507501Y51050724D01*
X13888453Y50717390D01*
X13888453Y50860248D01*
X13936072Y50955486D01*
X13983691Y51003105D01*
X14078930Y51050724D01*
X14317025Y51050724D01*
X14412263Y51003105D01*
X14459882Y50955486D01*
X14507501Y50860248D01*
X14507501Y50574533D01*
X14459882Y50479295D01*
X14412263Y50431676D01*
X15257501Y46741200D02*
X15257501Y47312629D01*
X16257501Y47026914D02*
X15257501Y47026914D01*
X15257501Y47836438D02*
X15257501Y48026915D01*
X15305120Y48122153D01*
X15400358Y48217391D01*
X15590834Y48265010D01*
X15924168Y48265010D01*
X16114644Y48217391D01*
X16209882Y48122153D01*
X16257501Y48026915D01*
X16257501Y47836438D01*
X16209882Y47741200D01*
X16114644Y47645962D01*
X15924168Y47598343D01*
X15590834Y47598343D01*
X15400358Y47645962D01*
X15305120Y47741200D01*
X15257501Y47836438D01*
X16257501Y49169772D02*
X16257501Y48693581D01*
X15257501Y48693581D01*
X15733691Y49503105D02*
X15733691Y49836439D01*
X16257501Y49979296D02*
X16257501Y49503105D01*
X15257501Y49503105D01*
X15257501Y49979296D01*
X16257501Y50979296D02*
X15781310Y50645962D01*
X16257501Y50407867D02*
X15257501Y50407867D01*
X15257501Y50788820D01*
X15305120Y50884058D01*
X15352739Y50931677D01*
X15447977Y50979296D01*
X15590834Y50979296D01*
X15686072Y50931677D01*
X15733691Y50884058D01*
X15781310Y50788820D01*
X15781310Y50407867D01*
X15971787Y51360248D02*
X15971787Y51836439D01*
X16257501Y51265010D02*
X15257501Y51598343D01*
X16257501Y51931677D01*
X16257501Y52265010D02*
X15257501Y52265010D01*
X16257501Y52836439D01*
X15257501Y52836439D01*
X15257501Y53169772D02*
X15257501Y53741201D01*
X16257501Y53455486D02*
X15257501Y53455486D01*
D11*
X18613120Y44272200D02*
X18613120Y44399200D01*
X12009120Y44272200D02*
X18613120Y44272200D01*
X71120Y61290200D02*
X198120Y61290200D01*
X71120Y44272200D02*
X71120Y61290200D01*
X12136120Y44272200D02*
X71120Y44272200D01*
D12*
X12747596Y37215819D02*
X12747596Y38215819D01*
X13128549Y38215819D01*
X13223787Y38168200D01*
X13271406Y38120581D01*
X13319025Y38025343D01*
X13319025Y37882486D01*
X13271406Y37787248D01*
X13223787Y37739629D01*
X13128549Y37692010D01*
X12747596Y37692010D01*
X13747596Y37215819D02*
X13747596Y38215819D01*
X14938072Y37263438D02*
X15080929Y37215819D01*
X15319025Y37215819D01*
X15414263Y37263438D01*
X15461882Y37311057D01*
X15509501Y37406295D01*
X15509501Y37501533D01*
X15461882Y37596771D01*
X15414263Y37644390D01*
X15319025Y37692010D01*
X15128548Y37739629D01*
X15033310Y37787248D01*
X14985691Y37834867D01*
X14938072Y37930105D01*
X14938072Y38025343D01*
X14985691Y38120581D01*
X15033310Y38168200D01*
X15128548Y38215819D01*
X15366644Y38215819D01*
X15509501Y38168200D01*
X15938072Y37739629D02*
X16271406Y37739629D01*
X16414263Y37215819D02*
X15938072Y37215819D01*
X15938072Y38215819D01*
X16414263Y38215819D01*
X17414263Y37215819D02*
X17080929Y37692010D01*
X16842834Y37215819D02*
X16842834Y38215819D01*
X17223787Y38215819D01*
X17319025Y38168200D01*
X17366644Y38120581D01*
X17414263Y38025343D01*
X17414263Y37882486D01*
X17366644Y37787248D01*
X17319025Y37739629D01*
X17223787Y37692010D01*
X16842834Y37692010D01*
X16779501Y42708534D02*
X16303310Y42375200D01*
X16779501Y42137105D02*
X15779501Y42137105D01*
X15779501Y42518058D01*
X15827120Y42613296D01*
X15874739Y42660915D01*
X15969977Y42708534D01*
X16112834Y42708534D01*
X16208072Y42660915D01*
X16255691Y42613296D01*
X16303310Y42518058D01*
X16303310Y42137105D01*
X15779501Y43041867D02*
X16779501Y43708534D01*
X15779501Y43708534D02*
X16779501Y43041867D01*
X13112501Y42113295D02*
X13112501Y42684724D01*
X14112501Y42399009D02*
X13112501Y42399009D01*
X13112501Y42922819D02*
X14112501Y43589486D01*
X13112501Y43589486D02*
X14112501Y42922819D01*
X10747120Y43010105D02*
X10699501Y42914867D01*
X10699501Y42772010D01*
X10747120Y42629152D01*
X10842358Y42533914D01*
X10937596Y42486295D01*
X11128072Y42438676D01*
X11270930Y42438676D01*
X11461406Y42486295D01*
X11556644Y42533914D01*
X11651882Y42629152D01*
X11699501Y42772010D01*
X11699501Y42867248D01*
X11651882Y43010105D01*
X11604263Y43057724D01*
X11270930Y43057724D01*
X11270930Y42867248D01*
X9120025Y45343819D02*
X9120025Y46343819D01*
X9500978Y46343819D01*
X9596216Y46296200D01*
X9643835Y46248581D01*
X9691454Y46153343D01*
X9691454Y46010486D01*
X9643835Y45915248D01*
X9596216Y45867629D01*
X9500978Y45820010D01*
X9120025Y45820010D01*
X10453359Y45867629D02*
X10596216Y45820010D01*
X10643835Y45772390D01*
X10691454Y45677152D01*
X10691454Y45534295D01*
X10643835Y45439057D01*
X10596216Y45391438D01*
X10500978Y45343819D01*
X10120025Y45343819D01*
X10120025Y46343819D01*
X10453359Y46343819D01*
X10548597Y46296200D01*
X10596216Y46248581D01*
X10643835Y46153343D01*
X10643835Y46058105D01*
X10596216Y45962867D01*
X10548597Y45915248D01*
X10453359Y45867629D01*
X10120025Y45867629D01*
X11596216Y46343819D02*
X11120025Y46343819D01*
X11072406Y45867629D01*
X11120025Y45915248D01*
X11215263Y45962867D01*
X11453359Y45962867D01*
X11548597Y45915248D01*
X11596216Y45867629D01*
X11643835Y45772390D01*
X11643835Y45534295D01*
X11596216Y45439057D01*
X11548597Y45391438D01*
X11453359Y45343819D01*
X11215263Y45343819D01*
X11120025Y45391438D01*
X11072406Y45439057D01*
X9064453Y47883819D02*
X9064453Y48883819D01*
X9445406Y48883819D01*
X9540644Y48836200D01*
X9588263Y48788581D01*
X9635882Y48693343D01*
X9635882Y48550486D01*
X9588263Y48455248D01*
X9540644Y48407629D01*
X9445406Y48360010D01*
X9064453Y48360010D01*
X10016834Y48169533D02*
X10493025Y48169533D01*
X9921596Y47883819D02*
X10254929Y48883819D01*
X10588263Y47883819D01*
X11397787Y48883819D02*
X10921596Y48883819D01*
X10873977Y48407629D01*
X10921596Y48455248D01*
X11016834Y48502867D01*
X11254930Y48502867D01*
X11350168Y48455248D01*
X11397787Y48407629D01*
X11445406Y48312390D01*
X11445406Y48074295D01*
X11397787Y47979057D01*
X11350168Y47931438D01*
X11254930Y47883819D01*
X11016834Y47883819D01*
X10921596Y47931438D01*
X10873977Y47979057D01*
X9064453Y50550819D02*
X9064453Y51550819D01*
X9445406Y51550819D01*
X9540644Y51503200D01*
X9588263Y51455581D01*
X9635882Y51360343D01*
X9635882Y51217486D01*
X9588263Y51122248D01*
X9540644Y51074629D01*
X9445406Y51027010D01*
X9064453Y51027010D01*
X10016834Y50836533D02*
X10493025Y50836533D01*
X9921596Y50550819D02*
X10254929Y51550819D01*
X10588263Y50550819D01*
X11350168Y51217486D02*
X11350168Y50550819D01*
X11112072Y51598438D02*
X10873977Y50884152D01*
X11493025Y50884152D01*
X9064453Y52963819D02*
X9064453Y53963819D01*
X9445406Y53963819D01*
X9540644Y53916200D01*
X9588263Y53868581D01*
X9635882Y53773343D01*
X9635882Y53630486D01*
X9588263Y53535248D01*
X9540644Y53487629D01*
X9445406Y53440010D01*
X9064453Y53440010D01*
X10016834Y53249533D02*
X10493025Y53249533D01*
X9921596Y52963819D02*
X10254929Y53963819D01*
X10588263Y52963819D01*
X11445406Y52963819D02*
X10873977Y52963819D01*
X11159691Y52963819D02*
X11159691Y53963819D01*
X11064453Y53820962D01*
X10969215Y53725724D01*
X10873977Y53678105D01*
X9064453Y55503819D02*
X9064453Y56503819D01*
X9445406Y56503819D01*
X9540644Y56456200D01*
X9588263Y56408581D01*
X9635882Y56313343D01*
X9635882Y56170486D01*
X9588263Y56075248D01*
X9540644Y56027629D01*
X9445406Y55980010D01*
X9064453Y55980010D01*
X10016834Y55789533D02*
X10493025Y55789533D01*
X9921596Y55503819D02*
X10254929Y56503819D01*
X10588263Y55503819D01*
X11112072Y56503819D02*
X11207311Y56503819D01*
X11302549Y56456200D01*
X11350168Y56408581D01*
X11397787Y56313343D01*
X11445406Y56122867D01*
X11445406Y55884771D01*
X11397787Y55694295D01*
X11350168Y55599057D01*
X11302549Y55551438D01*
X11207311Y55503819D01*
X11112072Y55503819D01*
X11016834Y55551438D01*
X10969215Y55599057D01*
X10921596Y55694295D01*
X10873977Y55884771D01*
X10873977Y56122867D01*
X10921596Y56313343D01*
X10969215Y56408581D01*
X11016834Y56456200D01*
X11112072Y56503819D01*
X7714882Y58718486D02*
X7762501Y58861343D01*
X7762501Y59099439D01*
X7714882Y59194677D01*
X7667263Y59242296D01*
X7572025Y59289915D01*
X7476787Y59289915D01*
X7381549Y59242296D01*
X7333930Y59194677D01*
X7286310Y59099439D01*
X7238691Y58908962D01*
X7191072Y58813724D01*
X7143453Y58766105D01*
X7048215Y58718486D01*
X6952977Y58718486D01*
X6857739Y58766105D01*
X6810120Y58813724D01*
X6762501Y58908962D01*
X6762501Y59147058D01*
X6810120Y59289915D01*
X4016120Y58496296D02*
X3968501Y58401058D01*
X3968501Y58258201D01*
X4016120Y58115343D01*
X4111358Y58020105D01*
X4206596Y57972486D01*
X4397072Y57924867D01*
X4539930Y57924867D01*
X4730406Y57972486D01*
X4825644Y58020105D01*
X4920882Y58115343D01*
X4968501Y58258201D01*
X4968501Y58353439D01*
X4920882Y58496296D01*
X4873263Y58543915D01*
X4539930Y58543915D01*
X4539930Y58353439D01*
X4968501Y58972486D02*
X3968501Y58972486D01*
X4968501Y59543915D01*
X3968501Y59543915D01*
X4968501Y60020105D02*
X3968501Y60020105D01*
X3968501Y60258200D01*
X4016120Y60401058D01*
X4111358Y60496296D01*
X4206596Y60543915D01*
X4397072Y60591534D01*
X4539930Y60591534D01*
X4730406Y60543915D01*
X4825644Y60496296D01*
X4920882Y60401058D01*
X4968501Y60258200D01*
X4968501Y60020105D01*
X1174501Y58020105D02*
X1174501Y58639153D01*
X1555453Y58305819D01*
X1555453Y58448677D01*
X1603072Y58543915D01*
X1650691Y58591534D01*
X1745930Y58639153D01*
X1984025Y58639153D01*
X2079263Y58591534D01*
X2126882Y58543915D01*
X2174501Y58448677D01*
X2174501Y58162962D01*
X2126882Y58067724D01*
X2079263Y58020105D01*
X1174501Y58924867D02*
X2174501Y59258200D01*
X1174501Y59591534D01*
X1174501Y59829629D02*
X1174501Y60448677D01*
X1555453Y60115343D01*
X1555453Y60258201D01*
X1603072Y60353439D01*
X1650691Y60401058D01*
X1745930Y60448677D01*
X1984025Y60448677D01*
X2079263Y60401058D01*
X2126882Y60353439D01*
X2174501Y60258201D01*
X2174501Y59972486D01*
X2126882Y59877248D01*
X2079263Y59829629D01*
D11*
X71120Y61290200D02*
X18740120Y61290200D01*
X71120Y71450200D02*
X71120Y61290200D01*
X46553120Y71450200D02*
X71120Y71450200D01*
X46553120Y60020200D02*
X46553120Y71450200D01*
X45156120Y60020200D02*
X46553120Y60020200D01*
X39314120Y60020200D02*
X39314120Y60147200D01*
X39949120Y60020200D02*
X39314120Y60020200D01*
X45156120Y60020200D02*
X39949120Y60020200D01*
X47696120Y38303200D02*
X47696120Y34112200D01*
X52649120Y38303200D02*
X47696120Y38303200D01*
X52649120Y29921200D02*
X52649120Y38303200D01*
X47696120Y29921200D02*
X52649120Y29921200D01*
X47696120Y34112200D02*
X47696120Y29921200D01*
X45664120Y34112200D02*
X47696120Y34112200D01*
X45664120Y30683200D02*
X45664120Y34112200D01*
X45029120Y30683200D02*
X45664120Y30683200D01*
X40203120Y50114200D02*
X40203120Y29032200D01*
X45029120Y50114200D02*
X40203120Y50114200D01*
X45029120Y29032200D02*
X45029120Y50114200D01*
X40203120Y29032200D02*
X45029120Y29032200D01*
X47315120Y20269200D02*
X40203120Y20269200D01*
X47315120Y20396200D02*
X47315120Y20269200D01*
X47315120Y28651200D02*
X47315120Y20396200D01*
X40203120Y20269200D02*
X40203120Y28651200D01*
X9215120Y38684200D02*
X11882120Y38684200D01*
X9215120Y38811200D02*
X9215120Y38684200D01*
X9215120Y41097200D02*
X9215120Y38811200D01*
X579120Y41097200D02*
X9215120Y41097200D01*
X579120Y26873200D02*
X579120Y41097200D01*
X11882120Y26873200D02*
X579120Y26873200D01*
X11882120Y38684200D02*
X11882120Y26873200D01*
D12*
X11005120Y67640343D02*
X10933691Y67497486D01*
X10933691Y67283200D01*
X11005120Y67068915D01*
X11147977Y66926057D01*
X11290834Y66854629D01*
X11576549Y66783200D01*
X11790834Y66783200D01*
X12076549Y66854629D01*
X12219406Y66926057D01*
X12362263Y67068915D01*
X12433691Y67283200D01*
X12433691Y67426057D01*
X12362263Y67640343D01*
X12290834Y67711772D01*
X11790834Y67711772D01*
X11790834Y67426057D01*
X12433691Y68354629D02*
X10933691Y68354629D01*
X12433691Y69211772D01*
X10933691Y69211772D01*
X12433691Y69926058D02*
X10933691Y69926058D01*
X10933691Y70283201D01*
X11005120Y70497486D01*
X11147977Y70640344D01*
X11290834Y70711772D01*
X11576549Y70783201D01*
X11790834Y70783201D01*
X12076549Y70711772D01*
X12219406Y70640344D01*
X12362263Y70497486D01*
X12433691Y70283201D01*
X12433691Y69926058D01*
D11*
X9402549Y11655343D02*
X8831120Y11655343D01*
X8773977Y11083914D01*
X8831120Y11141057D01*
X8945406Y11198200D01*
X9231120Y11198200D01*
X9345406Y11141057D01*
X9402549Y11083914D01*
X9459692Y10969629D01*
X9459692Y10683914D01*
X9402549Y10569629D01*
X9345406Y10512486D01*
X9231120Y10455343D01*
X8945406Y10455343D01*
X8831120Y10512486D01*
X8773977Y10569629D01*
X9802549Y11655343D02*
X10202549Y10455343D01*
X10602549Y11655343D01*
X11002548Y10455343D02*
X11002548Y11655343D01*
X11288263Y11655343D01*
X11459691Y11598200D01*
X11573977Y11483914D01*
X11631120Y11369629D01*
X11688263Y11141057D01*
X11688263Y10969629D01*
X11631120Y10741057D01*
X11573977Y10626771D01*
X11459691Y10512486D01*
X11288263Y10455343D01*
X11002548Y10455343D01*
X14396835Y11598200D02*
X14282549Y11655343D01*
X14111120Y11655343D01*
X13939692Y11598200D01*
X13825406Y11483914D01*
X13768263Y11369629D01*
X13711120Y11141057D01*
X13711120Y10969629D01*
X13768263Y10741057D01*
X13825406Y10626771D01*
X13939692Y10512486D01*
X14111120Y10455343D01*
X14225406Y10455343D01*
X14396835Y10512486D01*
X14453978Y10569629D01*
X14453978Y10969629D01*
X14225406Y10969629D01*
X14968263Y10455343D02*
X14968263Y11655343D01*
X15653978Y10455343D01*
X15653978Y11655343D01*
X16225406Y10455343D02*
X16225406Y11655343D01*
X16511121Y11655343D01*
X16682549Y11598200D01*
X16796835Y11483914D01*
X16853978Y11369629D01*
X16911121Y11141057D01*
X16911121Y10969629D01*
X16853978Y10741057D01*
X16796835Y10626771D01*
X16682549Y10512486D01*
X16511121Y10455343D01*
X16225406Y10455343D01*
X39441120Y50622200D02*
X39441120Y50876200D01*
D12*
X12560691Y62901629D02*
X12560691Y62044486D01*
X12560691Y62473058D02*
X11060691Y62473058D01*
X11274977Y62330201D01*
X11417834Y62187343D01*
X11489263Y62044486D01*
X11203549Y63473057D02*
X11132120Y63544486D01*
X11060691Y63687343D01*
X11060691Y64044486D01*
X11132120Y64187343D01*
X11203549Y64258772D01*
X11346406Y64330200D01*
X11489263Y64330200D01*
X11703549Y64258772D01*
X12560691Y63401629D01*
X12560691Y64330200D01*
X11060691Y64758771D02*
X12560691Y65258771D01*
X11060691Y65758771D01*
D11*
X51449025Y30581724D02*
X51449025Y31076962D01*
X51753787Y30810295D01*
X51753787Y30924581D01*
X51791882Y31000771D01*
X51829977Y31038867D01*
X51906168Y31076962D01*
X52096644Y31076962D01*
X52172834Y31038867D01*
X52210930Y31000771D01*
X52249025Y30924581D01*
X52249025Y30696009D01*
X52210930Y30619819D01*
X52172834Y30581724D01*
X51449025Y31305533D02*
X52249025Y31572200D01*
X51449025Y31838867D01*
X51449025Y32029343D02*
X51449025Y32524581D01*
X51753787Y32257914D01*
X51753787Y32372200D01*
X51791882Y32448390D01*
X51829977Y32486486D01*
X51906168Y32524581D01*
X52096644Y32524581D01*
X52172834Y32486486D01*
X52210930Y32448390D01*
X52249025Y32372200D01*
X52249025Y32143628D01*
X52210930Y32067438D01*
X52172834Y32029343D01*
X52210930Y33883629D02*
X52249025Y33997915D01*
X52249025Y34188391D01*
X52210930Y34264581D01*
X52172834Y34302677D01*
X52096644Y34340772D01*
X52020453Y34340772D01*
X51944263Y34302677D01*
X51906168Y34264581D01*
X51868072Y34188391D01*
X51829977Y34036010D01*
X51791882Y33959819D01*
X51753787Y33921724D01*
X51677596Y33883629D01*
X51601406Y33883629D01*
X51525215Y33921724D01*
X51487120Y33959819D01*
X51449025Y34036010D01*
X51449025Y34226486D01*
X51487120Y34340772D01*
X51449025Y36499820D02*
X51449025Y36118867D01*
X51829977Y36080772D01*
X51791882Y36118867D01*
X51753787Y36195058D01*
X51753787Y36385534D01*
X51791882Y36461724D01*
X51829977Y36499820D01*
X51906168Y36537915D01*
X52096644Y36537915D01*
X52172834Y36499820D01*
X52210930Y36461724D01*
X52249025Y36385534D01*
X52249025Y36195058D01*
X52210930Y36118867D01*
X52172834Y36080772D01*
X51449025Y36766486D02*
X52249025Y37033153D01*
X51449025Y37299820D01*
X43829025Y29616533D02*
X44629025Y29883200D01*
X43829025Y30149867D01*
X44552834Y30873676D02*
X44590930Y30835581D01*
X44629025Y30721295D01*
X44629025Y30645105D01*
X44590930Y30530819D01*
X44514739Y30454628D01*
X44438549Y30416533D01*
X44286168Y30378438D01*
X44171882Y30378438D01*
X44019501Y30416533D01*
X43943310Y30454628D01*
X43867120Y30530819D01*
X43829025Y30645105D01*
X43829025Y30721295D01*
X43867120Y30835581D01*
X43905215Y30873676D01*
X44552834Y31673676D02*
X44590930Y31635581D01*
X44629025Y31521295D01*
X44629025Y31445105D01*
X44590930Y31330819D01*
X44514739Y31254628D01*
X44438549Y31216533D01*
X44286168Y31178438D01*
X44171882Y31178438D01*
X44019501Y31216533D01*
X43943310Y31254628D01*
X43867120Y31330819D01*
X43829025Y31445105D01*
X43829025Y31521295D01*
X43867120Y31635581D01*
X43905215Y31673676D01*
X44590930Y32613676D02*
X44629025Y32727962D01*
X44629025Y32918438D01*
X44590930Y32994628D01*
X44552834Y33032724D01*
X44476644Y33070819D01*
X44400453Y33070819D01*
X44324263Y33032724D01*
X44286168Y32994628D01*
X44248072Y32918438D01*
X44209977Y32766057D01*
X44171882Y32689866D01*
X44133787Y32651771D01*
X44057596Y32613676D01*
X43981406Y32613676D01*
X43905215Y32651771D01*
X43867120Y32689866D01*
X43829025Y32766057D01*
X43829025Y32956533D01*
X43867120Y33070819D01*
X44629025Y33832724D02*
X44629025Y33375581D01*
X44629025Y33604152D02*
X43829025Y33604152D01*
X43943310Y33527962D01*
X44019501Y33451771D01*
X44057596Y33375581D01*
X44590930Y35153676D02*
X44629025Y35267962D01*
X44629025Y35458438D01*
X44590930Y35534628D01*
X44552834Y35572724D01*
X44476644Y35610819D01*
X44400453Y35610819D01*
X44324263Y35572724D01*
X44286168Y35534628D01*
X44248072Y35458438D01*
X44209977Y35306057D01*
X44171882Y35229866D01*
X44133787Y35191771D01*
X44057596Y35153676D01*
X43981406Y35153676D01*
X43905215Y35191771D01*
X43867120Y35229866D01*
X43829025Y35306057D01*
X43829025Y35496533D01*
X43867120Y35610819D01*
X43905215Y35915581D02*
X43867120Y35953676D01*
X43829025Y36029867D01*
X43829025Y36220343D01*
X43867120Y36296533D01*
X43905215Y36334629D01*
X43981406Y36372724D01*
X44057596Y36372724D01*
X44171882Y36334629D01*
X44629025Y35877486D01*
X44629025Y36372724D01*
X44590930Y37693676D02*
X44629025Y37807962D01*
X44629025Y37998438D01*
X44590930Y38074628D01*
X44552834Y38112724D01*
X44476644Y38150819D01*
X44400453Y38150819D01*
X44324263Y38112724D01*
X44286168Y38074628D01*
X44248072Y37998438D01*
X44209977Y37846057D01*
X44171882Y37769866D01*
X44133787Y37731771D01*
X44057596Y37693676D01*
X43981406Y37693676D01*
X43905215Y37731771D01*
X43867120Y37769866D01*
X43829025Y37846057D01*
X43829025Y38036533D01*
X43867120Y38150819D01*
X43829025Y38417486D02*
X43829025Y38912724D01*
X44133787Y38646057D01*
X44133787Y38760343D01*
X44171882Y38836533D01*
X44209977Y38874629D01*
X44286168Y38912724D01*
X44476644Y38912724D01*
X44552834Y38874629D01*
X44590930Y38836533D01*
X44629025Y38760343D01*
X44629025Y38531771D01*
X44590930Y38455581D01*
X44552834Y38417486D01*
X44590930Y40233676D02*
X44629025Y40347962D01*
X44629025Y40538438D01*
X44590930Y40614628D01*
X44552834Y40652724D01*
X44476644Y40690819D01*
X44400453Y40690819D01*
X44324263Y40652724D01*
X44286168Y40614628D01*
X44248072Y40538438D01*
X44209977Y40386057D01*
X44171882Y40309866D01*
X44133787Y40271771D01*
X44057596Y40233676D01*
X43981406Y40233676D01*
X43905215Y40271771D01*
X43867120Y40309866D01*
X43829025Y40386057D01*
X43829025Y40576533D01*
X43867120Y40690819D01*
X44095691Y41376533D02*
X44629025Y41376533D01*
X43790930Y41186057D02*
X44362358Y40995581D01*
X44362358Y41490819D01*
X44590930Y42773676D02*
X44629025Y42887962D01*
X44629025Y43078438D01*
X44590930Y43154628D01*
X44552834Y43192724D01*
X44476644Y43230819D01*
X44400453Y43230819D01*
X44324263Y43192724D01*
X44286168Y43154628D01*
X44248072Y43078438D01*
X44209977Y42926057D01*
X44171882Y42849866D01*
X44133787Y42811771D01*
X44057596Y42773676D01*
X43981406Y42773676D01*
X43905215Y42811771D01*
X43867120Y42849866D01*
X43829025Y42926057D01*
X43829025Y43116533D01*
X43867120Y43230819D01*
X43829025Y43954629D02*
X43829025Y43573676D01*
X44209977Y43535581D01*
X44171882Y43573676D01*
X44133787Y43649867D01*
X44133787Y43840343D01*
X44171882Y43916533D01*
X44209977Y43954629D01*
X44286168Y43992724D01*
X44476644Y43992724D01*
X44552834Y43954629D01*
X44590930Y43916533D01*
X44629025Y43840343D01*
X44629025Y43649867D01*
X44590930Y43573676D01*
X44552834Y43535581D01*
X44590930Y45313676D02*
X44629025Y45427962D01*
X44629025Y45618438D01*
X44590930Y45694628D01*
X44552834Y45732724D01*
X44476644Y45770819D01*
X44400453Y45770819D01*
X44324263Y45732724D01*
X44286168Y45694628D01*
X44248072Y45618438D01*
X44209977Y45466057D01*
X44171882Y45389866D01*
X44133787Y45351771D01*
X44057596Y45313676D01*
X43981406Y45313676D01*
X43905215Y45351771D01*
X43867120Y45389866D01*
X43829025Y45466057D01*
X43829025Y45656533D01*
X43867120Y45770819D01*
X43829025Y46456533D02*
X43829025Y46304152D01*
X43867120Y46227962D01*
X43905215Y46189867D01*
X44019501Y46113676D01*
X44171882Y46075581D01*
X44476644Y46075581D01*
X44552834Y46113676D01*
X44590930Y46151771D01*
X44629025Y46227962D01*
X44629025Y46380343D01*
X44590930Y46456533D01*
X44552834Y46494629D01*
X44476644Y46532724D01*
X44286168Y46532724D01*
X44209977Y46494629D01*
X44171882Y46456533D01*
X44133787Y46380343D01*
X44133787Y46227962D01*
X44171882Y46151771D01*
X44209977Y46113676D01*
X44286168Y46075581D01*
X43867120Y47853677D02*
X43829025Y47777486D01*
X43829025Y47663201D01*
X43867120Y47548915D01*
X43943310Y47472724D01*
X44019501Y47434629D01*
X44171882Y47396534D01*
X44286168Y47396534D01*
X44438549Y47434629D01*
X44514739Y47472724D01*
X44590930Y47548915D01*
X44629025Y47663201D01*
X44629025Y47739391D01*
X44590930Y47853677D01*
X44552834Y47891772D01*
X44286168Y47891772D01*
X44286168Y47739391D01*
X44629025Y48234629D02*
X43829025Y48234629D01*
X44629025Y48691772D01*
X43829025Y48691772D01*
X44629025Y49072724D02*
X43829025Y49072724D01*
X43829025Y49263200D01*
X43867120Y49377486D01*
X43943310Y49453677D01*
X44019501Y49491772D01*
X44171882Y49529867D01*
X44286168Y49529867D01*
X44438549Y49491772D01*
X44514739Y49453677D01*
X44590930Y49377486D01*
X44629025Y49263200D01*
X44629025Y49072724D01*
X46060263Y21310200D02*
X46060263Y21481629D01*
X46103120Y21567343D01*
X46188834Y21653057D01*
X46360263Y21695915D01*
X46660263Y21695915D01*
X46831691Y21653057D01*
X46917406Y21567343D01*
X46960263Y21481629D01*
X46960263Y21310200D01*
X46917406Y21224486D01*
X46831691Y21138772D01*
X46660263Y21095915D01*
X46360263Y21095915D01*
X46188834Y21138772D01*
X46103120Y21224486D01*
X46060263Y21310200D01*
X46960263Y22081629D02*
X46060263Y22081629D01*
X46060263Y22295914D01*
X46103120Y22424486D01*
X46188834Y22510200D01*
X46274549Y22553057D01*
X46445977Y22595914D01*
X46574549Y22595914D01*
X46745977Y22553057D01*
X46831691Y22510200D01*
X46917406Y22424486D01*
X46960263Y22295914D01*
X46960263Y22081629D01*
X46060263Y23153057D02*
X46060263Y23324486D01*
X46103120Y23410200D01*
X46188834Y23495914D01*
X46360263Y23538772D01*
X46660263Y23538772D01*
X46831691Y23495914D01*
X46917406Y23410200D01*
X46960263Y23324486D01*
X46960263Y23153057D01*
X46917406Y23067343D01*
X46831691Y22981629D01*
X46660263Y22938772D01*
X46360263Y22938772D01*
X46188834Y22981629D01*
X46103120Y23067343D01*
X46060263Y23153057D01*
X46960263Y23924486D02*
X46060263Y23924486D01*
X46703120Y24224486D01*
X46060263Y24524486D01*
X46960263Y24524486D01*
X46917406Y25595914D02*
X46960263Y25724485D01*
X46960263Y25938771D01*
X46917406Y26024485D01*
X46874549Y26067342D01*
X46788834Y26110199D01*
X46703120Y26110199D01*
X46617406Y26067342D01*
X46574549Y26024485D01*
X46531691Y25938771D01*
X46488834Y25767342D01*
X46445977Y25681628D01*
X46403120Y25638771D01*
X46317406Y25595914D01*
X46231691Y25595914D01*
X46145977Y25638771D01*
X46103120Y25681628D01*
X46060263Y25767342D01*
X46060263Y25981628D01*
X46103120Y26110199D01*
X46488834Y26495914D02*
X46488834Y26795914D01*
X46960263Y26924485D02*
X46960263Y26495914D01*
X46060263Y26495914D01*
X46060263Y26924485D01*
X46960263Y27824485D02*
X46531691Y27524485D01*
X46960263Y27310200D02*
X46060263Y27310200D01*
X46060263Y27653057D01*
X46103120Y27738771D01*
X46145977Y27781628D01*
X46231691Y27824485D01*
X46360263Y27824485D01*
X46445977Y27781628D01*
X46488834Y27738771D01*
X46531691Y27653057D01*
X46531691Y27310200D01*
X44337025Y21183676D02*
X44337025Y21640819D01*
X45137025Y21412248D02*
X44337025Y21412248D01*
X44337025Y21831296D02*
X45137025Y22364629D01*
X44337025Y22364629D02*
X45137025Y21831296D01*
X45137025Y24199867D02*
X44756072Y23933200D01*
X45137025Y23742724D02*
X44337025Y23742724D01*
X44337025Y24047486D01*
X44375120Y24123677D01*
X44413215Y24161772D01*
X44489406Y24199867D01*
X44603691Y24199867D01*
X44679882Y24161772D01*
X44717977Y24123677D01*
X44756072Y24047486D01*
X44756072Y23742724D01*
X44337025Y24466534D02*
X45137025Y24999867D01*
X44337025Y24999867D02*
X45137025Y24466534D01*
X44248120Y26390677D02*
X44210025Y26314486D01*
X44210025Y26200201D01*
X44248120Y26085915D01*
X44324310Y26009724D01*
X44400501Y25971629D01*
X44552882Y25933534D01*
X44667168Y25933534D01*
X44819549Y25971629D01*
X44895739Y26009724D01*
X44971930Y26085915D01*
X45010025Y26200201D01*
X45010025Y26276391D01*
X44971930Y26390677D01*
X44933834Y26428772D01*
X44667168Y26428772D01*
X44667168Y26276391D01*
X45010025Y26771629D02*
X44210025Y26771629D01*
X45010025Y27228772D01*
X44210025Y27228772D01*
X45010025Y27609724D02*
X44210025Y27609724D01*
X44210025Y27800200D01*
X44248120Y27914486D01*
X44324310Y27990677D01*
X44400501Y28028772D01*
X44552882Y28066867D01*
X44667168Y28066867D01*
X44819549Y28028772D01*
X44895739Y27990677D01*
X44971930Y27914486D01*
X45010025Y27800200D01*
X45010025Y27609724D01*
X18573501Y933819D02*
X18573501Y457628D01*
X19049691Y410009D01*
X19002072Y457628D01*
X18954453Y552866D01*
X18954453Y790962D01*
X19002072Y886200D01*
X19049691Y933819D01*
X19144930Y981438D01*
X19383025Y981438D01*
X19478263Y933819D01*
X19525882Y886200D01*
X19573501Y790962D01*
X19573501Y552866D01*
X19525882Y457628D01*
X19478263Y410009D01*
X18573501Y1267152D02*
X19573501Y1600485D01*
X18573501Y1933819D01*
X19525882Y2981438D02*
X19573501Y3124295D01*
X19573501Y3362391D01*
X19525882Y3457629D01*
X19478263Y3505248D01*
X19383025Y3552867D01*
X19287787Y3552867D01*
X19192549Y3505248D01*
X19144930Y3457629D01*
X19097310Y3362391D01*
X19049691Y3171914D01*
X19002072Y3076676D01*
X18954453Y3029057D01*
X18859215Y2981438D01*
X18763977Y2981438D01*
X18668739Y3029057D01*
X18621120Y3076676D01*
X18573501Y3171914D01*
X18573501Y3410010D01*
X18621120Y3552867D01*
X19049691Y3981438D02*
X19049691Y4314772D01*
X19573501Y4457629D02*
X19573501Y3981438D01*
X18573501Y3981438D01*
X18573501Y4457629D01*
X19573501Y5457629D02*
X19097310Y5124295D01*
X19573501Y4886200D02*
X18573501Y4886200D01*
X18573501Y5267153D01*
X18621120Y5362391D01*
X18668739Y5410010D01*
X18763977Y5457629D01*
X18906834Y5457629D01*
X19002072Y5410010D01*
X19049691Y5362391D01*
X19097310Y5267153D01*
X19097310Y4886200D01*
X18573501Y5743343D02*
X19573501Y6076676D01*
X18573501Y6410010D01*
X18573501Y6933819D02*
X18573501Y7124296D01*
X18621120Y7219534D01*
X18716358Y7314772D01*
X18906834Y7362391D01*
X19240168Y7362391D01*
X19430644Y7314772D01*
X19525882Y7219534D01*
X19573501Y7124296D01*
X19573501Y6933819D01*
X19525882Y6838581D01*
X19430644Y6743343D01*
X19240168Y6695724D01*
X18906834Y6695724D01*
X18716358Y6743343D01*
X18621120Y6838581D01*
X18573501Y6933819D01*
X14657025Y16344962D02*
X14276072Y16078295D01*
X14657025Y15887819D02*
X13857025Y15887819D01*
X13857025Y16192581D01*
X13895120Y16268772D01*
X13933215Y16306867D01*
X14009406Y16344962D01*
X14123691Y16344962D01*
X14199882Y16306867D01*
X14237977Y16268772D01*
X14276072Y16192581D01*
X14276072Y15887819D01*
X14237977Y16687819D02*
X14237977Y16954486D01*
X14657025Y17068772D02*
X14657025Y16687819D01*
X13857025Y16687819D01*
X13857025Y17068772D01*
X14618930Y17373534D02*
X14657025Y17487820D01*
X14657025Y17678296D01*
X14618930Y17754486D01*
X14580834Y17792582D01*
X14504644Y17830677D01*
X14428453Y17830677D01*
X14352263Y17792582D01*
X14314168Y17754486D01*
X14276072Y17678296D01*
X14237977Y17525915D01*
X14199882Y17449724D01*
X14161787Y17411629D01*
X14085596Y17373534D01*
X14009406Y17373534D01*
X13933215Y17411629D01*
X13895120Y17449724D01*
X13857025Y17525915D01*
X13857025Y17716391D01*
X13895120Y17830677D01*
X13895120Y13690677D02*
X13857025Y13614486D01*
X13857025Y13500201D01*
X13895120Y13385915D01*
X13971310Y13309724D01*
X14047501Y13271629D01*
X14199882Y13233534D01*
X14314168Y13233534D01*
X14466549Y13271629D01*
X14542739Y13309724D01*
X14618930Y13385915D01*
X14657025Y13500201D01*
X14657025Y13576391D01*
X14618930Y13690677D01*
X14580834Y13728772D01*
X14314168Y13728772D01*
X14314168Y13576391D01*
X14657025Y14071629D02*
X13857025Y14071629D01*
X14657025Y14528772D01*
X13857025Y14528772D01*
X14657025Y14909724D02*
X13857025Y14909724D01*
X13857025Y15100200D01*
X13895120Y15214486D01*
X13971310Y15290677D01*
X14047501Y15328772D01*
X14199882Y15366867D01*
X14314168Y15366867D01*
X14466549Y15328772D01*
X14542739Y15290677D01*
X14618930Y15214486D01*
X14657025Y15100200D01*
X14657025Y14909724D01*
X13133025Y14408295D02*
X12752072Y14141628D01*
X13133025Y13951152D02*
X12333025Y13951152D01*
X12333025Y14255914D01*
X12371120Y14332105D01*
X12409215Y14370200D01*
X12485406Y14408295D01*
X12599691Y14408295D01*
X12675882Y14370200D01*
X12713977Y14332105D01*
X12752072Y14255914D01*
X12752072Y13951152D01*
X12713977Y14751152D02*
X12713977Y15017819D01*
X13133025Y15132105D02*
X13133025Y14751152D01*
X12333025Y14751152D01*
X12333025Y15132105D01*
X13094930Y15436867D02*
X13133025Y15551153D01*
X13133025Y15741629D01*
X13094930Y15817819D01*
X13056834Y15855915D01*
X12980644Y15894010D01*
X12904453Y15894010D01*
X12828263Y15855915D01*
X12790168Y15817819D01*
X12752072Y15741629D01*
X12713977Y15589248D01*
X12675882Y15513057D01*
X12637787Y15474962D01*
X12561596Y15436867D01*
X12485406Y15436867D01*
X12409215Y15474962D01*
X12371120Y15513057D01*
X12333025Y15589248D01*
X12333025Y15779724D01*
X12371120Y15894010D01*
X12713977Y16236867D02*
X12713977Y16503534D01*
X13133025Y16617820D02*
X13133025Y16236867D01*
X12333025Y16236867D01*
X12333025Y16617820D01*
X12333025Y16846391D02*
X12333025Y17303534D01*
X13133025Y17074963D02*
X12333025Y17074963D01*
X18613120Y18618200D02*
X18613120Y18872200D01*
X12904453Y20155248D02*
X12904453Y20536200D01*
X13133025Y20079057D02*
X12333025Y20345724D01*
X13133025Y20612391D01*
X13056834Y21336200D02*
X13094930Y21298105D01*
X13133025Y21183819D01*
X13133025Y21107629D01*
X13094930Y20993343D01*
X13018739Y20917152D01*
X12942549Y20879057D01*
X12790168Y20840962D01*
X12675882Y20840962D01*
X12523501Y20879057D01*
X12447310Y20917152D01*
X12371120Y20993343D01*
X12333025Y21107629D01*
X12333025Y21183819D01*
X12371120Y21298105D01*
X12409215Y21336200D01*
X12333025Y21564771D02*
X12333025Y22021914D01*
X13133025Y21793343D02*
X12333025Y21793343D01*
X12333025Y22288581D02*
X12980644Y22288581D01*
X13056834Y22326676D01*
X13094930Y22364772D01*
X13133025Y22440962D01*
X13133025Y22593343D01*
X13094930Y22669534D01*
X13056834Y22707629D01*
X12980644Y22745724D01*
X12333025Y22745724D01*
X12904453Y23088581D02*
X12904453Y23469533D01*
X13133025Y23012390D02*
X12333025Y23279057D01*
X13133025Y23545724D01*
X12333025Y23698104D02*
X12333025Y24155247D01*
X13133025Y23926676D02*
X12333025Y23926676D01*
X12333025Y24574295D02*
X12333025Y24726676D01*
X12371120Y24802867D01*
X12447310Y24879057D01*
X12599691Y24917152D01*
X12866358Y24917152D01*
X13018739Y24879057D01*
X13094930Y24802867D01*
X13133025Y24726676D01*
X13133025Y24574295D01*
X13094930Y24498105D01*
X13018739Y24421914D01*
X12866358Y24383819D01*
X12599691Y24383819D01*
X12447310Y24421914D01*
X12371120Y24498105D01*
X12333025Y24574295D01*
X13133025Y25717152D02*
X12752072Y25450485D01*
X13133025Y25260009D02*
X12333025Y25260009D01*
X12333025Y25564771D01*
X12371120Y25640962D01*
X12409215Y25679057D01*
X12485406Y25717152D01*
X12599691Y25717152D01*
X12675882Y25679057D01*
X12713977Y25640962D01*
X12752072Y25564771D01*
X12752072Y25260009D01*
X13768120Y25685724D02*
X13730025Y25609533D01*
X13730025Y25495248D01*
X13768120Y25380962D01*
X13844310Y25304771D01*
X13920501Y25266676D01*
X14072882Y25228581D01*
X14187168Y25228581D01*
X14339549Y25266676D01*
X14415739Y25304771D01*
X14491930Y25380962D01*
X14530025Y25495248D01*
X14530025Y25571438D01*
X14491930Y25685724D01*
X14453834Y25723819D01*
X14187168Y25723819D01*
X14187168Y25571438D01*
X13730025Y22326676D02*
X13730025Y22783819D01*
X14530025Y22555248D02*
X13730025Y22555248D01*
X13730025Y22974296D02*
X14530025Y23507629D01*
X13730025Y23507629D02*
X14530025Y22974296D01*
X14530025Y20389867D02*
X14149072Y20123200D01*
X14530025Y19932724D02*
X13730025Y19932724D01*
X13730025Y20237486D01*
X13768120Y20313677D01*
X13806215Y20351772D01*
X13882406Y20389867D01*
X13996691Y20389867D01*
X14072882Y20351772D01*
X14110977Y20313677D01*
X14149072Y20237486D01*
X14149072Y19932724D01*
X13730025Y20656534D02*
X14530025Y21189867D01*
X13730025Y21189867D02*
X14530025Y20656534D01*
X18613120Y47066200D02*
X18613120Y47320200D01*
D12*
X9247025Y28071819D02*
X9247025Y29071819D01*
X9627978Y29071819D01*
X9723216Y29024200D01*
X9770835Y28976581D01*
X9818454Y28881343D01*
X9818454Y28738486D01*
X9770835Y28643248D01*
X9723216Y28595629D01*
X9627978Y28548010D01*
X9247025Y28548010D01*
X10580359Y28595629D02*
X10723216Y28548010D01*
X10770835Y28500390D01*
X10818454Y28405152D01*
X10818454Y28262295D01*
X10770835Y28167057D01*
X10723216Y28119438D01*
X10627978Y28071819D01*
X10247025Y28071819D01*
X10247025Y29071819D01*
X10580359Y29071819D01*
X10675597Y29024200D01*
X10723216Y28976581D01*
X10770835Y28881343D01*
X10770835Y28786105D01*
X10723216Y28690867D01*
X10675597Y28643248D01*
X10580359Y28595629D01*
X10247025Y28595629D01*
X11770835Y28071819D02*
X11199406Y28071819D01*
X11485120Y28071819D02*
X11485120Y29071819D01*
X11389882Y28928962D01*
X11294644Y28833724D01*
X11199406Y28786105D01*
X9247025Y31119819D02*
X9247025Y32119819D01*
X9627978Y32119819D01*
X9723216Y32072200D01*
X9770835Y32024581D01*
X9818454Y31929343D01*
X9818454Y31786486D01*
X9770835Y31691248D01*
X9723216Y31643629D01*
X9627978Y31596010D01*
X9247025Y31596010D01*
X10580359Y31643629D02*
X10723216Y31596010D01*
X10770835Y31548390D01*
X10818454Y31453152D01*
X10818454Y31310295D01*
X10770835Y31215057D01*
X10723216Y31167438D01*
X10627978Y31119819D01*
X10247025Y31119819D01*
X10247025Y32119819D01*
X10580359Y32119819D01*
X10675597Y32072200D01*
X10723216Y32024581D01*
X10770835Y31929343D01*
X10770835Y31834105D01*
X10723216Y31738867D01*
X10675597Y31691248D01*
X10580359Y31643629D01*
X10247025Y31643629D01*
X11437501Y32119819D02*
X11532740Y32119819D01*
X11627978Y32072200D01*
X11675597Y32024581D01*
X11723216Y31929343D01*
X11770835Y31738867D01*
X11770835Y31500771D01*
X11723216Y31310295D01*
X11675597Y31215057D01*
X11627978Y31167438D01*
X11532740Y31119819D01*
X11437501Y31119819D01*
X11342263Y31167438D01*
X11294644Y31215057D01*
X11247025Y31310295D01*
X11199406Y31500771D01*
X11199406Y31738867D01*
X11247025Y31929343D01*
X11294644Y32024581D01*
X11342263Y32072200D01*
X11437501Y32119819D01*
X9191453Y34167819D02*
X9191453Y35167819D01*
X9572406Y35167819D01*
X9667644Y35120200D01*
X9715263Y35072581D01*
X9762882Y34977343D01*
X9762882Y34834486D01*
X9715263Y34739248D01*
X9667644Y34691629D01*
X9572406Y34644010D01*
X9191453Y34644010D01*
X10143834Y34453533D02*
X10620025Y34453533D01*
X10048596Y34167819D02*
X10381929Y35167819D01*
X10715263Y34167819D01*
X10953358Y35167819D02*
X11620025Y35167819D01*
X11191453Y34167819D01*
X9191453Y37215819D02*
X9191453Y38215819D01*
X9572406Y38215819D01*
X9667644Y38168200D01*
X9715263Y38120581D01*
X9762882Y38025343D01*
X9762882Y37882486D01*
X9715263Y37787248D01*
X9667644Y37739629D01*
X9572406Y37692010D01*
X9191453Y37692010D01*
X10143834Y37501533D02*
X10620025Y37501533D01*
X10048596Y37215819D02*
X10381929Y38215819D01*
X10715263Y37215819D01*
X11477168Y38215819D02*
X11286691Y38215819D01*
X11191453Y38168200D01*
X11143834Y38120581D01*
X11048596Y37977724D01*
X11000977Y37787248D01*
X11000977Y37406295D01*
X11048596Y37311057D01*
X11096215Y37263438D01*
X11191453Y37215819D01*
X11381930Y37215819D01*
X11477168Y37263438D01*
X11524787Y37311057D01*
X11572406Y37406295D01*
X11572406Y37644390D01*
X11524787Y37739629D01*
X11477168Y37787248D01*
X11381930Y37834867D01*
X11191453Y37834867D01*
X11096215Y37787248D01*
X11048596Y37739629D01*
X11000977Y37644390D01*
X6675216Y40708200D02*
X6579978Y40755819D01*
X6437121Y40755819D01*
X6294263Y40708200D01*
X6199025Y40612962D01*
X6151406Y40517724D01*
X6103787Y40327248D01*
X6103787Y40184390D01*
X6151406Y39993914D01*
X6199025Y39898676D01*
X6294263Y39803438D01*
X6437121Y39755819D01*
X6532359Y39755819D01*
X6675216Y39803438D01*
X6722835Y39851057D01*
X6722835Y40184390D01*
X6532359Y40184390D01*
X7151406Y39755819D02*
X7151406Y40755819D01*
X7722835Y39755819D01*
X7722835Y40755819D01*
X8199025Y39755819D02*
X8199025Y40755819D01*
X8437120Y40755819D01*
X8579978Y40708200D01*
X8675216Y40612962D01*
X8722835Y40517724D01*
X8770454Y40327248D01*
X8770454Y40184390D01*
X8722835Y39993914D01*
X8675216Y39898676D01*
X8579978Y39803438D01*
X8437120Y39755819D01*
X8199025Y39755819D01*
X4611406Y39803438D02*
X4754263Y39755819D01*
X4992359Y39755819D01*
X5087597Y39803438D01*
X5135216Y39851057D01*
X5182835Y39946295D01*
X5182835Y40041533D01*
X5135216Y40136771D01*
X5087597Y40184390D01*
X4992359Y40232010D01*
X4801882Y40279629D01*
X4706644Y40327248D01*
X4659025Y40374867D01*
X4611406Y40470105D01*
X4611406Y40565343D01*
X4659025Y40660581D01*
X4706644Y40708200D01*
X4801882Y40755819D01*
X5039978Y40755819D01*
X5182835Y40708200D01*
X2166644Y40755819D02*
X1690453Y40755819D01*
X1642834Y40279629D01*
X1690453Y40327248D01*
X1785691Y40374867D01*
X2023787Y40374867D01*
X2119025Y40327248D01*
X2166644Y40279629D01*
X2214263Y40184390D01*
X2214263Y39946295D01*
X2166644Y39851057D01*
X2119025Y39803438D01*
X2023787Y39755819D01*
X1785691Y39755819D01*
X1690453Y39803438D01*
X1642834Y39851057D01*
X2499977Y40755819D02*
X2833310Y39755819D01*
X3166644Y40755819D01*
D13*
X3627120Y33230200D02*
X8827120Y33230200D01*
X8827120Y33230200D02*
X8827120Y36010200D01*
X8827120Y36010200D02*
X3627120Y36010200D01*
X3627120Y36010200D02*
X3627120Y33230200D01*
X2357120Y33230200D02*
X967120Y33230200D01*
X967120Y33230200D02*
X967120Y34620200D01*
D14*
X12731120Y675200D02*
X12731120Y175200D01*
X17231120Y4675200D02*
G75*
G03X17231120Y4675200I-2000000J0D01*
G01*
X12231120Y4675200D02*
G75*
G03X12231120Y4675200I-2000000J0D01*
G01*
X7731120Y2175200D02*
X17731120Y2175200D01*
X7731120Y7075200D02*
X17731120Y7075200D01*
X7731120Y675200D02*
X17731120Y675200D01*
X7731120Y175200D02*
X17731120Y175200D01*
X17731120Y175200D02*
X17731120Y9975200D01*
X17731120Y9975200D02*
X7731120Y9975200D01*
X7731120Y9975200D02*
X7731120Y175200D01*
D13*
X8578120Y19255200D02*
X8578120Y21435200D01*
X8578120Y25855200D02*
X8578120Y23675200D01*
X1978120Y20015200D02*
X1978120Y21435200D01*
X1978120Y25095200D02*
X1978120Y23675200D01*
X8578120Y19255200D02*
X2738120Y19255200D01*
X2738120Y19255200D02*
X1978120Y20015200D01*
X1978120Y25095200D02*
X2738120Y25855200D01*
X2738120Y25855200D02*
X8578120Y25855200D01*
X4642120Y16811200D02*
X1342120Y16811200D01*
X1342120Y16811200D02*
X1342120Y11411200D01*
X4642120Y16811200D02*
X4642120Y11411200D01*
X5467120Y10849200D02*
X6867120Y10849200D01*
X6867120Y10849200D02*
X6867120Y13649200D01*
X5467120Y10849200D02*
X5467120Y13649200D01*
X47957120Y35382200D02*
X47957120Y30182200D01*
X47957120Y30182200D02*
X50737120Y30182200D01*
X50737120Y30182200D02*
X50737120Y35382200D01*
X50737120Y35382200D02*
X47957120Y35382200D01*
X47957120Y36652200D02*
X47957120Y38042200D01*
X47957120Y38042200D02*
X49347120Y38042200D01*
X43244120Y31953200D02*
X43244120Y49853200D01*
X43244120Y49853200D02*
X40464120Y49853200D01*
X40464120Y49853200D02*
X40464120Y31953200D01*
X40464120Y31953200D02*
X43244120Y31953200D01*
X43244120Y30683200D02*
X43244120Y29293200D01*
X43244120Y29293200D02*
X41854120Y29293200D01*
X5287120Y15859200D02*
X5287120Y17059200D01*
X7047120Y17059200D02*
X7047120Y15859200D01*
X17844120Y15570200D02*
X17844120Y18230200D01*
X17844120Y18230200D02*
X15064120Y18230200D01*
X15064120Y18230200D02*
X15064120Y15570200D01*
X15064120Y15570200D02*
X17844120Y15570200D01*
X17844120Y14300200D02*
X17844120Y12910200D01*
X17844120Y12910200D02*
X16454120Y12910200D01*
X14937120Y24206200D02*
X14937120Y19006200D01*
X14937120Y19006200D02*
X17717120Y19006200D01*
X17717120Y19006200D02*
X17717120Y24206200D01*
X17717120Y24206200D02*
X14937120Y24206200D01*
X14937120Y25476200D02*
X14937120Y26866200D01*
X14937120Y26866200D02*
X16327120Y26866200D01*
X40464120Y25730200D02*
X40464120Y20530200D01*
X40464120Y20530200D02*
X43244120Y20530200D01*
X43244120Y20530200D02*
X43244120Y25730200D01*
X43244120Y25730200D02*
X40464120Y25730200D01*
X40464120Y27000200D02*
X40464120Y28390200D01*
X40464120Y28390200D02*
X41854120Y28390200D01*
X12390120Y38945200D02*
X17590120Y38945200D01*
X17590120Y38945200D02*
X17590120Y41725200D01*
X17590120Y41725200D02*
X12390120Y41725200D01*
X12390120Y41725200D02*
X12390120Y38945200D01*
X11120120Y38945200D02*
X9730120Y38945200D01*
X9730120Y38945200D02*
X9730120Y40335200D01*
X3627120Y27134200D02*
X8827120Y27134200D01*
X8827120Y27134200D02*
X8827120Y29914200D01*
X8827120Y29914200D02*
X3627120Y29914200D01*
X3627120Y29914200D02*
X3627120Y27134200D01*
X2357120Y27134200D02*
X967120Y27134200D01*
X967120Y27134200D02*
X967120Y28524200D01*
X3627120Y30182200D02*
X8827120Y30182200D01*
X8827120Y30182200D02*
X8827120Y32962200D01*
X8827120Y32962200D02*
X3627120Y32962200D01*
X3627120Y32962200D02*
X3627120Y30182200D01*
X2357120Y30182200D02*
X967120Y30182200D01*
X967120Y30182200D02*
X967120Y31572200D01*
X3627120Y36278200D02*
X8827120Y36278200D01*
X8827120Y36278200D02*
X8827120Y39058200D01*
X8827120Y39058200D02*
X3627120Y39058200D01*
X3627120Y39058200D02*
X3627120Y36278200D01*
X2357120Y36278200D02*
X967120Y36278200D01*
X967120Y36278200D02*
X967120Y37668200D01*
D15*
X39187120Y8204200D02*
X33091120Y8204200D01*
X18867120Y8204200D02*
X24963120Y8204200D01*
X25217120Y7696200D02*
X25217120Y12776200D01*
X25217120Y12776200D02*
X32837120Y12776200D01*
X32837120Y12776200D02*
X32837120Y6426200D01*
X32837120Y6426200D02*
X25217120Y6426200D01*
X25217120Y6426200D02*
X25217120Y7696200D01*
X39187120Y8204200D02*
X39187120Y12776200D01*
X39187120Y12776200D02*
X39187120Y60528200D01*
X39187120Y60528200D02*
X39187120Y61036200D01*
X39187120Y61036200D02*
X18867120Y61036200D01*
X18867120Y61036200D02*
X18867120Y8204200D01*
X18867120Y8204200D02*
X19375120Y8204200D01*
D14*
X9505120Y66330200D02*
X10005120Y66330200D01*
X7505120Y68830200D02*
G75*
G03X7505120Y68830200I-2000000J0D01*
G01*
X7505120Y63830200D02*
G75*
G03X7505120Y63830200I-2000000J0D01*
G01*
X8005120Y61330200D02*
X8005120Y71330200D01*
X3105120Y61330200D02*
X3105120Y71330200D01*
X9505120Y61330200D02*
X9505120Y71330200D01*
X10005120Y61330200D02*
X10005120Y71330200D01*
X10005120Y71330200D02*
X205120Y71330200D01*
X205120Y71330200D02*
X205120Y61330200D01*
X205120Y61330200D02*
X10005120Y61330200D01*
D13*
X16964120Y63197200D02*
X19144120Y63197200D01*
X23564120Y63197200D02*
X21384120Y63197200D01*
X17724120Y69797200D02*
X19144120Y69797200D01*
X22804120Y69797200D02*
X21384120Y69797200D01*
X16964120Y63197200D02*
X16964120Y69037200D01*
X16964120Y69037200D02*
X17724120Y69797200D01*
X22804120Y69797200D02*
X23564120Y69037200D01*
X23564120Y69037200D02*
X23564120Y63197200D01*
X45408120Y69289200D02*
X43228120Y69289200D01*
X38808120Y69289200D02*
X40988120Y69289200D01*
X44648120Y62689200D02*
X43228120Y62689200D01*
X39568120Y62689200D02*
X40988120Y62689200D01*
X45408120Y69289200D02*
X45408120Y63449200D01*
X45408120Y63449200D02*
X44648120Y62689200D01*
X39568120Y62689200D02*
X38808120Y63449200D01*
X38808120Y63449200D02*
X38808120Y69289200D01*
X40392120Y52124200D02*
X41792120Y52124200D01*
X41792120Y52124200D02*
X41792120Y54924200D01*
X40392120Y52124200D02*
X40392120Y54924200D01*
X16453120Y69516200D02*
X13153120Y69516200D01*
X13153120Y69516200D02*
X13153120Y64116200D01*
X16453120Y69516200D02*
X16453120Y64116200D01*
X40212120Y57388200D02*
X40212120Y58588200D01*
X41972120Y58588200D02*
X41972120Y57388200D01*
X28262120Y69410200D02*
X28262120Y69760200D01*
X28262120Y69760200D02*
X29762120Y69760200D01*
X28262120Y64760200D02*
X28262120Y67960200D01*
X29762120Y62960200D02*
X28262120Y62960200D01*
X28262120Y62960200D02*
X28262120Y63360200D01*
X53150120Y6807200D02*
X53150120Y19627200D01*
X53150120Y19627200D02*
X50370120Y19627200D01*
X50370120Y19627200D02*
X50370120Y6807200D01*
X50370120Y6807200D02*
X53150120Y6807200D01*
X53150120Y5537200D02*
X53150120Y4147200D01*
X53150120Y4147200D02*
X51760120Y4147200D01*
X47562120Y6807200D02*
X47562120Y19627200D01*
X47562120Y19627200D02*
X44782120Y19627200D01*
X44782120Y19627200D02*
X44782120Y6807200D01*
X44782120Y6807200D02*
X47562120Y6807200D01*
X47562120Y5537200D02*
X47562120Y4147200D01*
X47562120Y4147200D02*
X46172120Y4147200D01*
X50356120Y6807200D02*
X50356120Y19627200D01*
X50356120Y19627200D02*
X47576120Y19627200D01*
X47576120Y19627200D02*
X47576120Y6807200D01*
X47576120Y6807200D02*
X50356120Y6807200D01*
X50356120Y5537200D02*
X50356120Y4147200D01*
X50356120Y4147200D02*
X48966120Y4147200D01*
X3112120Y47193200D02*
X3112120Y57473200D01*
X3112120Y57473200D02*
X332120Y57473200D01*
X332120Y57473200D02*
X332120Y47193200D01*
X332120Y47193200D02*
X3112120Y47193200D01*
X3112120Y45923200D02*
X3112120Y44533200D01*
X3112120Y44533200D02*
X1722120Y44533200D01*
X8700120Y47193200D02*
X8700120Y57473200D01*
X8700120Y57473200D02*
X5920120Y57473200D01*
X5920120Y57473200D02*
X5920120Y47193200D01*
X5920120Y47193200D02*
X8700120Y47193200D01*
X8700120Y45923200D02*
X8700120Y44533200D01*
X8700120Y44533200D02*
X7310120Y44533200D01*
X5906120Y47193200D02*
X5906120Y57473200D01*
X5906120Y57473200D02*
X3126120Y57473200D01*
X3126120Y57473200D02*
X3126120Y47193200D01*
X3126120Y47193200D02*
X5906120Y47193200D01*
X5906120Y45923200D02*
X5906120Y44533200D01*
X5906120Y44533200D02*
X4516120Y44533200D01*
X48832120Y48780700D02*
X48832120Y56520700D01*
X48832120Y56520700D02*
X46052120Y56520700D01*
X46052120Y56520700D02*
X46052120Y48780700D01*
X46052120Y48780700D02*
X48832120Y48780700D01*
X48832120Y47510700D02*
X48832120Y46120700D01*
X48832120Y46120700D02*
X47442120Y46120700D01*
D16*
G36*
X52999942Y62149022D02*
X52999942Y58628229D01*
X52132318Y58628229D01*
X52132318Y62149022D01*
X52999942Y62149022D01*
X52999942Y62149022D01*
G37*
X52999942Y62149022D02*
X52999942Y58628229D01*
X52132318Y58628229D01*
X52132318Y62149022D01*
X52999942Y62149022D01*
G36*
X47046968Y62525630D02*
X47134051Y62525011D01*
X47593011Y62073286D01*
X48051972Y61621561D01*
X48262591Y61621232D01*
X48473209Y61620903D01*
X48473209Y61345810D01*
X48526650Y61338722D01*
X48551008Y61336038D01*
X48596879Y61331513D01*
X48661525Y61325391D01*
X48742211Y61317912D01*
X48836201Y61309319D01*
X48940757Y61299854D01*
X49053145Y61289758D01*
X49170627Y61279274D01*
X49290468Y61268644D01*
X49409931Y61258109D01*
X49526279Y61247913D01*
X49636777Y61238295D01*
X49738689Y61229500D01*
X49829278Y61221768D01*
X49905807Y61215342D01*
X49965541Y61210463D01*
X50005744Y61207375D01*
X50023679Y61206317D01*
X50023764Y61206318D01*
X50038155Y61214027D01*
X50067868Y61237181D01*
X50113251Y61276095D01*
X50174649Y61331084D01*
X50252408Y61402464D01*
X50346874Y61490549D01*
X50458392Y61595654D01*
X50587308Y61718095D01*
X50623407Y61752510D01*
X51195536Y62298337D01*
X51283556Y62210081D01*
X51205878Y62138685D01*
X51177806Y62112566D01*
X51134394Y62071766D01*
X51078486Y62018977D01*
X51012928Y61956891D01*
X50940561Y61888200D01*
X50864232Y61815596D01*
X50818644Y61772160D01*
X50733239Y61690616D01*
X50664830Y61624704D01*
X50612173Y61572744D01*
X50574025Y61533055D01*
X50549140Y61503957D01*
X50536276Y61483769D01*
X50534188Y61470810D01*
X50541633Y61463400D01*
X50557366Y61459858D01*
X50580143Y61458503D01*
X50586359Y61458321D01*
X50629181Y61448903D01*
X50680939Y61425697D01*
X50733448Y61393336D01*
X50778523Y61356452D01*
X50792448Y61341693D01*
X50841167Y61265967D01*
X50868426Y61177508D01*
X50874893Y61099300D01*
X50862696Y61010668D01*
X50826933Y60928812D01*
X50768842Y60856364D01*
X50754382Y60842997D01*
X50698853Y60794118D01*
X50698853Y59948526D01*
X50874893Y59948526D01*
X50874893Y59722190D01*
X50792651Y59722190D01*
X50736506Y59719350D01*
X50697536Y59709807D01*
X50676339Y59698209D01*
X50661172Y59689923D01*
X50639182Y59682827D01*
X50607107Y59676452D01*
X50561689Y59670328D01*
X50499668Y59663984D01*
X50417782Y59656950D01*
X50356866Y59652134D01*
X50071463Y59630039D01*
X50620925Y59087635D01*
X50720348Y58989563D01*
X50815935Y58895416D01*
X50905930Y58806915D01*
X50988577Y58725780D01*
X51062121Y58653731D01*
X51124804Y58592488D01*
X51174872Y58543773D01*
X51210568Y58509304D01*
X51230115Y58490821D01*
X51261064Y58460457D01*
X51282650Y58435129D01*
X51289843Y58421505D01*
X51281417Y58404105D01*
X51260365Y58378740D01*
X51251791Y58370142D01*
X51213740Y58333686D01*
X51009778Y58534398D01*
X50957819Y58585604D01*
X50890940Y58651631D01*
X50812070Y58729582D01*
X50724134Y58816562D01*
X50630061Y58909674D01*
X50532778Y59006021D01*
X50435213Y59102708D01*
X50365265Y59172066D01*
X50258670Y59277497D01*
X50168427Y59366071D01*
X50093312Y59438919D01*
X50032106Y59497177D01*
X49983586Y59541975D01*
X49958249Y59564179D01*
X49958249Y59742476D01*
X50243675Y59764799D01*
X50327339Y59771531D01*
X50403847Y59778043D01*
X50469201Y59783966D01*
X50519401Y59788932D01*
X50550449Y59792571D01*
X50557393Y59793742D01*
X50585685Y59800362D01*
X50585685Y60749836D01*
X50506726Y60756174D01*
X50413435Y60775310D01*
X50330911Y60815354D01*
X50262158Y60873782D01*
X50210183Y60948071D01*
X50178983Y61031452D01*
X50164348Y61058502D01*
X50132939Y61072044D01*
X50131554Y61072328D01*
X50118294Y61073953D01*
X50104715Y61071944D01*
X50088301Y61064342D01*
X50066531Y61049184D01*
X50036887Y61024512D01*
X49996852Y60988364D01*
X49943905Y60938780D01*
X49875529Y60873799D01*
X49871125Y60869601D01*
X49797731Y60799707D01*
X49719557Y60725400D01*
X49641984Y60651786D01*
X49570395Y60583971D01*
X49510171Y60527060D01*
X49496707Y60514368D01*
X49445940Y60465713D01*
X49402495Y60422491D01*
X49369361Y60387805D01*
X49349525Y60364756D01*
X49345166Y60357018D01*
X49354290Y60345478D01*
X49379320Y60318490D01*
X49418172Y60278179D01*
X49468763Y60226671D01*
X49529008Y60166091D01*
X49596824Y60098564D01*
X49652685Y60043374D01*
X49958249Y59742476D01*
X49958249Y59564179D01*
X49946531Y59574449D01*
X49919719Y59595729D01*
X49901928Y59606949D01*
X49893690Y59609446D01*
X49875710Y59608500D01*
X49835012Y59605627D01*
X49773939Y59601013D01*
X49694833Y59594842D01*
X49600034Y59587302D01*
X49491887Y59578579D01*
X49372732Y59568857D01*
X49244911Y59558324D01*
X49142755Y59549835D01*
X48566794Y59501804D01*
X48566794Y59625395D01*
X48579224Y59625927D01*
X48614230Y59628431D01*
X48669335Y59632704D01*
X48742063Y59638547D01*
X48829934Y59645757D01*
X48930471Y59654134D01*
X49041197Y59663477D01*
X49146325Y59672442D01*
X49265603Y59682598D01*
X49378200Y59692058D01*
X49481425Y59700604D01*
X49572593Y59708021D01*
X49649015Y59714092D01*
X49708003Y59718599D01*
X49746869Y59721327D01*
X49761964Y59722084D01*
X49771358Y59723265D01*
X49775086Y59727944D01*
X49771591Y59737924D01*
X49759319Y59755010D01*
X49736714Y59781004D01*
X49702220Y59817710D01*
X49654282Y59866933D01*
X49591344Y59930474D01*
X49524088Y59997895D01*
X49248597Y60273599D01*
X49246526Y60271667D01*
X49246526Y60453910D01*
X49257900Y60462216D01*
X49284683Y60485467D01*
X49324412Y60521335D01*
X49374627Y60567487D01*
X49432866Y60621594D01*
X49496667Y60681326D01*
X49563569Y60744352D01*
X49631110Y60808342D01*
X49696830Y60870964D01*
X49758266Y60929890D01*
X49812957Y60982788D01*
X49858442Y61027328D01*
X49892258Y61061180D01*
X49911946Y61082012D01*
X49915957Y61087694D01*
X49903011Y61089566D01*
X49867254Y61093454D01*
X49810924Y61099143D01*
X49736260Y61106419D01*
X49645500Y61115069D01*
X49540882Y61124878D01*
X49424646Y61135634D01*
X49299028Y61147121D01*
X49197738Y61156293D01*
X49066399Y61168026D01*
X48942672Y61178865D01*
X48828801Y61188630D01*
X48727031Y61197137D01*
X48639607Y61204205D01*
X48568773Y61209651D01*
X48516773Y61213292D01*
X48485852Y61214947D01*
X48477823Y61214758D01*
X48484974Y61204866D01*
X48507961Y61179676D01*
X48544559Y61141390D01*
X48592542Y61092211D01*
X48649686Y61034339D01*
X48713767Y60969978D01*
X48782558Y60901329D01*
X48853836Y60830595D01*
X48925375Y60759978D01*
X48994950Y60691680D01*
X49060337Y60627904D01*
X49119311Y60570850D01*
X49169647Y60522722D01*
X49209119Y60485722D01*
X49235503Y60462052D01*
X49246526Y60453910D01*
X49246526Y60271667D01*
X49138415Y60170791D01*
X49082497Y60118432D01*
X49020068Y60059665D01*
X48953563Y59996815D01*
X48885418Y59932205D01*
X48818068Y59868158D01*
X48753948Y59806997D01*
X48695492Y59751047D01*
X48645138Y59702630D01*
X48605318Y59664070D01*
X48578470Y59637691D01*
X48567028Y59625816D01*
X48566794Y59625395D01*
X48566794Y59501804D01*
X48422846Y59489799D01*
X47791278Y58889262D01*
X47159709Y58288725D01*
X47071435Y58289166D01*
X46983160Y58289608D01*
X47086786Y58386617D01*
X47144583Y58440909D01*
X47212488Y58505008D01*
X47288692Y58577184D01*
X47371389Y58655708D01*
X47458773Y58738851D01*
X47549035Y58824881D01*
X47640370Y58912070D01*
X47730969Y58998687D01*
X47819027Y59083003D01*
X47902735Y59163288D01*
X47980287Y59237813D01*
X48049877Y59304846D01*
X48109696Y59362659D01*
X48157938Y59409521D01*
X48192796Y59443704D01*
X48212463Y59463476D01*
X48216236Y59467810D01*
X48203112Y59468108D01*
X48169509Y59466469D01*
X48120000Y59463177D01*
X48059157Y59458518D01*
X48034852Y59456518D01*
X47857071Y59441623D01*
X47857071Y59558245D01*
X47885363Y59564266D01*
X47907738Y59567337D01*
X47949837Y59571652D01*
X48006298Y59576712D01*
X48071755Y59582019D01*
X48095982Y59583856D01*
X48165541Y59589273D01*
X48230138Y59594741D01*
X48283668Y59599712D01*
X48320030Y59603639D01*
X48326629Y59604525D01*
X48340176Y59607866D01*
X48356034Y59615099D01*
X48375981Y59627760D01*
X48401793Y59647389D01*
X48435249Y59675522D01*
X48478127Y59713698D01*
X48532203Y59763454D01*
X48599256Y59826329D01*
X48681063Y59903859D01*
X48764070Y59982949D01*
X48846214Y60061636D01*
X48922289Y60135088D01*
X48990445Y60201476D01*
X49048832Y60258973D01*
X49095601Y60305749D01*
X49128902Y60339976D01*
X49146887Y60359827D01*
X49149562Y60364060D01*
X49139861Y60375197D01*
X49114561Y60401229D01*
X49076202Y60439630D01*
X49027320Y60487872D01*
X48970454Y60543430D01*
X48929026Y60583608D01*
X48712120Y60793369D01*
X48712120Y60174863D01*
X48473209Y60174863D01*
X48473209Y60929319D01*
X48579662Y60929319D01*
X48441774Y61067635D01*
X48343960Y61165753D01*
X48343960Y61356843D01*
X48359390Y61358671D01*
X48367987Y61367923D01*
X48371733Y61390250D01*
X48372609Y61431305D01*
X48372615Y61438576D01*
X48372615Y61520309D01*
X48153292Y61520309D01*
X48234299Y61438576D01*
X48283548Y61392470D01*
X48321279Y61364894D01*
X48343960Y61356843D01*
X48343960Y61165753D01*
X48303886Y61205952D01*
X48181072Y61205952D01*
X48124570Y61206337D01*
X48088625Y61208100D01*
X48068650Y61212150D01*
X48060057Y61219399D01*
X48058259Y61230330D01*
X48055618Y61242488D01*
X48045032Y61251473D01*
X48022501Y61258374D01*
X47984029Y61264276D01*
X47925618Y61270265D01*
X47904224Y61272187D01*
X47857071Y61276348D01*
X47857071Y59558245D01*
X47857071Y59441623D01*
X47857071Y59282091D01*
X47743902Y59282091D01*
X47743902Y59349886D01*
X47742816Y59389538D01*
X47737574Y59411084D01*
X47734454Y59413720D01*
X47734454Y59552584D01*
X47741582Y59559892D01*
X47743782Y59585207D01*
X47743902Y59602292D01*
X47743902Y59659319D01*
X47743902Y59871979D01*
X47743902Y61286502D01*
X47694906Y61238658D01*
X47634444Y61164350D01*
X47587811Y61072384D01*
X47554369Y60961202D01*
X47535873Y60850729D01*
X47527242Y60778427D01*
X47618160Y60778427D01*
X47618160Y60200012D01*
X47515013Y60200012D01*
X47523616Y60115135D01*
X47530876Y60055832D01*
X47540499Y59992649D01*
X47547372Y59954814D01*
X47562527Y59879368D01*
X47653215Y59875674D01*
X47743902Y59871979D01*
X47743902Y59659319D01*
X47693605Y59659319D01*
X47662096Y59657656D01*
X47644583Y59653503D01*
X47643308Y59651829D01*
X47651374Y59633213D01*
X47670940Y59606017D01*
X47695064Y59578752D01*
X47716802Y59559933D01*
X47719628Y59558257D01*
X47734454Y59552584D01*
X47734454Y59413720D01*
X47725201Y59421538D01*
X47711724Y59425758D01*
X47676747Y59442981D01*
X47634699Y59476062D01*
X47591476Y59519307D01*
X47552974Y59567026D01*
X47532921Y59598370D01*
X47510971Y59634077D01*
X47492531Y59652381D01*
X47470788Y59658812D01*
X47457838Y59659306D01*
X47454695Y59659306D01*
X47454695Y60300606D01*
X47517566Y60300606D01*
X47517566Y60677833D01*
X47454695Y60677833D01*
X47454695Y60300606D01*
X47454695Y59659306D01*
X47416972Y59659319D01*
X47416972Y59765152D01*
X47418149Y59813845D01*
X47421285Y59851795D01*
X47425791Y59872892D01*
X47427615Y59875177D01*
X47430415Y59888559D01*
X47429268Y59921126D01*
X47424513Y59967284D01*
X47420123Y59998824D01*
X47411498Y60056012D01*
X47403711Y60108314D01*
X47397967Y60147618D01*
X47396335Y60159145D01*
X47387008Y60189263D01*
X47372392Y60200012D01*
X47366440Y60203280D01*
X47361898Y60214970D01*
X47358590Y60237912D01*
X47356335Y60274935D01*
X47354954Y60328868D01*
X47354270Y60402540D01*
X47354100Y60489220D01*
X47354197Y60581729D01*
X47354650Y60652106D01*
X47355710Y60703364D01*
X47357623Y60738520D01*
X47360639Y60760589D01*
X47365005Y60772585D01*
X47370969Y60777524D01*
X47377904Y60778427D01*
X47399915Y60786121D01*
X47412441Y60811321D01*
X47416908Y60857209D01*
X47416972Y60865464D01*
X47424988Y60943173D01*
X47447056Y61031433D01*
X47480204Y61122285D01*
X47521459Y61207770D01*
X47567851Y61279926D01*
X47575202Y61289272D01*
X47599118Y61319733D01*
X47608696Y61337772D01*
X47605600Y61350369D01*
X47592824Y61363300D01*
X47567798Y61401493D01*
X47558191Y61451198D01*
X47563187Y61504724D01*
X47581971Y61554378D01*
X47613726Y61592467D01*
X47617417Y61595225D01*
X47676695Y61623726D01*
X47738054Y61629028D01*
X47796547Y61611718D01*
X47847224Y61572380D01*
X47851409Y61567570D01*
X47871287Y61539640D01*
X47880041Y61511302D01*
X47880673Y61471463D01*
X47880112Y61461511D01*
X47878682Y61422532D01*
X47881959Y61402454D01*
X47891848Y61395185D01*
X47901081Y61394440D01*
X47927864Y61392916D01*
X47968145Y61389135D01*
X47992244Y61386418D01*
X48030521Y61382477D01*
X48050116Y61384116D01*
X48057278Y61393621D01*
X48058259Y61410551D01*
X48055021Y61420592D01*
X48044540Y61436790D01*
X48025668Y61460345D01*
X47997255Y61492457D01*
X47958155Y61534328D01*
X47907217Y61587157D01*
X47843293Y61652145D01*
X47765234Y61730491D01*
X47671892Y61823397D01*
X47562118Y61932063D01*
X47509072Y61984431D01*
X46959887Y62526249D01*
X47046968Y62525630D01*
X47046968Y62525630D01*
G37*
X47046968Y62525630D02*
X47134051Y62525011D01*
X47593011Y62073286D01*
X48051972Y61621561D01*
X48262591Y61621232D01*
X48473209Y61620903D01*
X48473209Y61345810D01*
X48526650Y61338722D01*
X48551008Y61336038D01*
X48596879Y61331513D01*
X48661525Y61325391D01*
X48742211Y61317912D01*
X48836201Y61309319D01*
X48940757Y61299854D01*
X49053145Y61289758D01*
X49170627Y61279274D01*
X49290468Y61268644D01*
X49409931Y61258109D01*
X49526279Y61247913D01*
X49636777Y61238295D01*
X49738689Y61229500D01*
X49829278Y61221768D01*
X49905807Y61215342D01*
X49965541Y61210463D01*
X50005744Y61207375D01*
X50023679Y61206317D01*
X50023764Y61206318D01*
X50038155Y61214027D01*
X50067868Y61237181D01*
X50113251Y61276095D01*
X50174649Y61331084D01*
X50252408Y61402464D01*
X50346874Y61490549D01*
X50458392Y61595654D01*
X50587308Y61718095D01*
X50623407Y61752510D01*
X51195536Y62298337D01*
X51283556Y62210081D01*
X51205878Y62138685D01*
X51177806Y62112566D01*
X51134394Y62071766D01*
X51078486Y62018977D01*
X51012928Y61956891D01*
X50940561Y61888200D01*
X50864232Y61815596D01*
X50818644Y61772160D01*
X50733239Y61690616D01*
X50664830Y61624704D01*
X50612173Y61572744D01*
X50574025Y61533055D01*
X50549140Y61503957D01*
X50536276Y61483769D01*
X50534188Y61470810D01*
X50541633Y61463400D01*
X50557366Y61459858D01*
X50580143Y61458503D01*
X50586359Y61458321D01*
X50629181Y61448903D01*
X50680939Y61425697D01*
X50733448Y61393336D01*
X50778523Y61356452D01*
X50792448Y61341693D01*
X50841167Y61265967D01*
X50868426Y61177508D01*
X50874893Y61099300D01*
X50862696Y61010668D01*
X50826933Y60928812D01*
X50768842Y60856364D01*
X50754382Y60842997D01*
X50698853Y60794118D01*
X50698853Y59948526D01*
X50874893Y59948526D01*
X50874893Y59722190D01*
X50792651Y59722190D01*
X50736506Y59719350D01*
X50697536Y59709807D01*
X50676339Y59698209D01*
X50661172Y59689923D01*
X50639182Y59682827D01*
X50607107Y59676452D01*
X50561689Y59670328D01*
X50499668Y59663984D01*
X50417782Y59656950D01*
X50356866Y59652134D01*
X50071463Y59630039D01*
X50620925Y59087635D01*
X50720348Y58989563D01*
X50815935Y58895416D01*
X50905930Y58806915D01*
X50988577Y58725780D01*
X51062121Y58653731D01*
X51124804Y58592488D01*
X51174872Y58543773D01*
X51210568Y58509304D01*
X51230115Y58490821D01*
X51261064Y58460457D01*
X51282650Y58435129D01*
X51289843Y58421505D01*
X51281417Y58404105D01*
X51260365Y58378740D01*
X51251791Y58370142D01*
X51213740Y58333686D01*
X51009778Y58534398D01*
X50957819Y58585604D01*
X50890940Y58651631D01*
X50812070Y58729582D01*
X50724134Y58816562D01*
X50630061Y58909674D01*
X50532778Y59006021D01*
X50435213Y59102708D01*
X50365265Y59172066D01*
X50258670Y59277497D01*
X50168427Y59366071D01*
X50093312Y59438919D01*
X50032106Y59497177D01*
X49983586Y59541975D01*
X49958249Y59564179D01*
X49958249Y59742476D01*
X50243675Y59764799D01*
X50327339Y59771531D01*
X50403847Y59778043D01*
X50469201Y59783966D01*
X50519401Y59788932D01*
X50550449Y59792571D01*
X50557393Y59793742D01*
X50585685Y59800362D01*
X50585685Y60749836D01*
X50506726Y60756174D01*
X50413435Y60775310D01*
X50330911Y60815354D01*
X50262158Y60873782D01*
X50210183Y60948071D01*
X50178983Y61031452D01*
X50164348Y61058502D01*
X50132939Y61072044D01*
X50131554Y61072328D01*
X50118294Y61073953D01*
X50104715Y61071944D01*
X50088301Y61064342D01*
X50066531Y61049184D01*
X50036887Y61024512D01*
X49996852Y60988364D01*
X49943905Y60938780D01*
X49875529Y60873799D01*
X49871125Y60869601D01*
X49797731Y60799707D01*
X49719557Y60725400D01*
X49641984Y60651786D01*
X49570395Y60583971D01*
X49510171Y60527060D01*
X49496707Y60514368D01*
X49445940Y60465713D01*
X49402495Y60422491D01*
X49369361Y60387805D01*
X49349525Y60364756D01*
X49345166Y60357018D01*
X49354290Y60345478D01*
X49379320Y60318490D01*
X49418172Y60278179D01*
X49468763Y60226671D01*
X49529008Y60166091D01*
X49596824Y60098564D01*
X49652685Y60043374D01*
X49958249Y59742476D01*
X49958249Y59564179D01*
X49946531Y59574449D01*
X49919719Y59595729D01*
X49901928Y59606949D01*
X49893690Y59609446D01*
X49875710Y59608500D01*
X49835012Y59605627D01*
X49773939Y59601013D01*
X49694833Y59594842D01*
X49600034Y59587302D01*
X49491887Y59578579D01*
X49372732Y59568857D01*
X49244911Y59558324D01*
X49142755Y59549835D01*
X48566794Y59501804D01*
X48566794Y59625395D01*
X48579224Y59625927D01*
X48614230Y59628431D01*
X48669335Y59632704D01*
X48742063Y59638547D01*
X48829934Y59645757D01*
X48930471Y59654134D01*
X49041197Y59663477D01*
X49146325Y59672442D01*
X49265603Y59682598D01*
X49378200Y59692058D01*
X49481425Y59700604D01*
X49572593Y59708021D01*
X49649015Y59714092D01*
X49708003Y59718599D01*
X49746869Y59721327D01*
X49761964Y59722084D01*
X49771358Y59723265D01*
X49775086Y59727944D01*
X49771591Y59737924D01*
X49759319Y59755010D01*
X49736714Y59781004D01*
X49702220Y59817710D01*
X49654282Y59866933D01*
X49591344Y59930474D01*
X49524088Y59997895D01*
X49248597Y60273599D01*
X49246526Y60271667D01*
X49246526Y60453910D01*
X49257900Y60462216D01*
X49284683Y60485467D01*
X49324412Y60521335D01*
X49374627Y60567487D01*
X49432866Y60621594D01*
X49496667Y60681326D01*
X49563569Y60744352D01*
X49631110Y60808342D01*
X49696830Y60870964D01*
X49758266Y60929890D01*
X49812957Y60982788D01*
X49858442Y61027328D01*
X49892258Y61061180D01*
X49911946Y61082012D01*
X49915957Y61087694D01*
X49903011Y61089566D01*
X49867254Y61093454D01*
X49810924Y61099143D01*
X49736260Y61106419D01*
X49645500Y61115069D01*
X49540882Y61124878D01*
X49424646Y61135634D01*
X49299028Y61147121D01*
X49197738Y61156293D01*
X49066399Y61168026D01*
X48942672Y61178865D01*
X48828801Y61188630D01*
X48727031Y61197137D01*
X48639607Y61204205D01*
X48568773Y61209651D01*
X48516773Y61213292D01*
X48485852Y61214947D01*
X48477823Y61214758D01*
X48484974Y61204866D01*
X48507961Y61179676D01*
X48544559Y61141390D01*
X48592542Y61092211D01*
X48649686Y61034339D01*
X48713767Y60969978D01*
X48782558Y60901329D01*
X48853836Y60830595D01*
X48925375Y60759978D01*
X48994950Y60691680D01*
X49060337Y60627904D01*
X49119311Y60570850D01*
X49169647Y60522722D01*
X49209119Y60485722D01*
X49235503Y60462052D01*
X49246526Y60453910D01*
X49246526Y60271667D01*
X49138415Y60170791D01*
X49082497Y60118432D01*
X49020068Y60059665D01*
X48953563Y59996815D01*
X48885418Y59932205D01*
X48818068Y59868158D01*
X48753948Y59806997D01*
X48695492Y59751047D01*
X48645138Y59702630D01*
X48605318Y59664070D01*
X48578470Y59637691D01*
X48567028Y59625816D01*
X48566794Y59625395D01*
X48566794Y59501804D01*
X48422846Y59489799D01*
X47791278Y58889262D01*
X47159709Y58288725D01*
X47071435Y58289166D01*
X46983160Y58289608D01*
X47086786Y58386617D01*
X47144583Y58440909D01*
X47212488Y58505008D01*
X47288692Y58577184D01*
X47371389Y58655708D01*
X47458773Y58738851D01*
X47549035Y58824881D01*
X47640370Y58912070D01*
X47730969Y58998687D01*
X47819027Y59083003D01*
X47902735Y59163288D01*
X47980287Y59237813D01*
X48049877Y59304846D01*
X48109696Y59362659D01*
X48157938Y59409521D01*
X48192796Y59443704D01*
X48212463Y59463476D01*
X48216236Y59467810D01*
X48203112Y59468108D01*
X48169509Y59466469D01*
X48120000Y59463177D01*
X48059157Y59458518D01*
X48034852Y59456518D01*
X47857071Y59441623D01*
X47857071Y59558245D01*
X47885363Y59564266D01*
X47907738Y59567337D01*
X47949837Y59571652D01*
X48006298Y59576712D01*
X48071755Y59582019D01*
X48095982Y59583856D01*
X48165541Y59589273D01*
X48230138Y59594741D01*
X48283668Y59599712D01*
X48320030Y59603639D01*
X48326629Y59604525D01*
X48340176Y59607866D01*
X48356034Y59615099D01*
X48375981Y59627760D01*
X48401793Y59647389D01*
X48435249Y59675522D01*
X48478127Y59713698D01*
X48532203Y59763454D01*
X48599256Y59826329D01*
X48681063Y59903859D01*
X48764070Y59982949D01*
X48846214Y60061636D01*
X48922289Y60135088D01*
X48990445Y60201476D01*
X49048832Y60258973D01*
X49095601Y60305749D01*
X49128902Y60339976D01*
X49146887Y60359827D01*
X49149562Y60364060D01*
X49139861Y60375197D01*
X49114561Y60401229D01*
X49076202Y60439630D01*
X49027320Y60487872D01*
X48970454Y60543430D01*
X48929026Y60583608D01*
X48712120Y60793369D01*
X48712120Y60174863D01*
X48473209Y60174863D01*
X48473209Y60929319D01*
X48579662Y60929319D01*
X48441774Y61067635D01*
X48343960Y61165753D01*
X48343960Y61356843D01*
X48359390Y61358671D01*
X48367987Y61367923D01*
X48371733Y61390250D01*
X48372609Y61431305D01*
X48372615Y61438576D01*
X48372615Y61520309D01*
X48153292Y61520309D01*
X48234299Y61438576D01*
X48283548Y61392470D01*
X48321279Y61364894D01*
X48343960Y61356843D01*
X48343960Y61165753D01*
X48303886Y61205952D01*
X48181072Y61205952D01*
X48124570Y61206337D01*
X48088625Y61208100D01*
X48068650Y61212150D01*
X48060057Y61219399D01*
X48058259Y61230330D01*
X48055618Y61242488D01*
X48045032Y61251473D01*
X48022501Y61258374D01*
X47984029Y61264276D01*
X47925618Y61270265D01*
X47904224Y61272187D01*
X47857071Y61276348D01*
X47857071Y59558245D01*
X47857071Y59441623D01*
X47857071Y59282091D01*
X47743902Y59282091D01*
X47743902Y59349886D01*
X47742816Y59389538D01*
X47737574Y59411084D01*
X47734454Y59413720D01*
X47734454Y59552584D01*
X47741582Y59559892D01*
X47743782Y59585207D01*
X47743902Y59602292D01*
X47743902Y59659319D01*
X47743902Y59871979D01*
X47743902Y61286502D01*
X47694906Y61238658D01*
X47634444Y61164350D01*
X47587811Y61072384D01*
X47554369Y60961202D01*
X47535873Y60850729D01*
X47527242Y60778427D01*
X47618160Y60778427D01*
X47618160Y60200012D01*
X47515013Y60200012D01*
X47523616Y60115135D01*
X47530876Y60055832D01*
X47540499Y59992649D01*
X47547372Y59954814D01*
X47562527Y59879368D01*
X47653215Y59875674D01*
X47743902Y59871979D01*
X47743902Y59659319D01*
X47693605Y59659319D01*
X47662096Y59657656D01*
X47644583Y59653503D01*
X47643308Y59651829D01*
X47651374Y59633213D01*
X47670940Y59606017D01*
X47695064Y59578752D01*
X47716802Y59559933D01*
X47719628Y59558257D01*
X47734454Y59552584D01*
X47734454Y59413720D01*
X47725201Y59421538D01*
X47711724Y59425758D01*
X47676747Y59442981D01*
X47634699Y59476062D01*
X47591476Y59519307D01*
X47552974Y59567026D01*
X47532921Y59598370D01*
X47510971Y59634077D01*
X47492531Y59652381D01*
X47470788Y59658812D01*
X47457838Y59659306D01*
X47454695Y59659306D01*
X47454695Y60300606D01*
X47517566Y60300606D01*
X47517566Y60677833D01*
X47454695Y60677833D01*
X47454695Y60300606D01*
X47454695Y59659306D01*
X47416972Y59659319D01*
X47416972Y59765152D01*
X47418149Y59813845D01*
X47421285Y59851795D01*
X47425791Y59872892D01*
X47427615Y59875177D01*
X47430415Y59888559D01*
X47429268Y59921126D01*
X47424513Y59967284D01*
X47420123Y59998824D01*
X47411498Y60056012D01*
X47403711Y60108314D01*
X47397967Y60147618D01*
X47396335Y60159145D01*
X47387008Y60189263D01*
X47372392Y60200012D01*
X47366440Y60203280D01*
X47361898Y60214970D01*
X47358590Y60237912D01*
X47356335Y60274935D01*
X47354954Y60328868D01*
X47354270Y60402540D01*
X47354100Y60489220D01*
X47354197Y60581729D01*
X47354650Y60652106D01*
X47355710Y60703364D01*
X47357623Y60738520D01*
X47360639Y60760589D01*
X47365005Y60772585D01*
X47370969Y60777524D01*
X47377904Y60778427D01*
X47399915Y60786121D01*
X47412441Y60811321D01*
X47416908Y60857209D01*
X47416972Y60865464D01*
X47424988Y60943173D01*
X47447056Y61031433D01*
X47480204Y61122285D01*
X47521459Y61207770D01*
X47567851Y61279926D01*
X47575202Y61289272D01*
X47599118Y61319733D01*
X47608696Y61337772D01*
X47605600Y61350369D01*
X47592824Y61363300D01*
X47567798Y61401493D01*
X47558191Y61451198D01*
X47563187Y61504724D01*
X47581971Y61554378D01*
X47613726Y61592467D01*
X47617417Y61595225D01*
X47676695Y61623726D01*
X47738054Y61629028D01*
X47796547Y61611718D01*
X47847224Y61572380D01*
X47851409Y61567570D01*
X47871287Y61539640D01*
X47880041Y61511302D01*
X47880673Y61471463D01*
X47880112Y61461511D01*
X47878682Y61422532D01*
X47881959Y61402454D01*
X47891848Y61395185D01*
X47901081Y61394440D01*
X47927864Y61392916D01*
X47968145Y61389135D01*
X47992244Y61386418D01*
X48030521Y61382477D01*
X48050116Y61384116D01*
X48057278Y61393621D01*
X48058259Y61410551D01*
X48055021Y61420592D01*
X48044540Y61436790D01*
X48025668Y61460345D01*
X47997255Y61492457D01*
X47958155Y61534328D01*
X47907217Y61587157D01*
X47843293Y61652145D01*
X47765234Y61730491D01*
X47671892Y61823397D01*
X47562118Y61932063D01*
X47509072Y61984431D01*
X46959887Y62526249D01*
X47046968Y62525630D01*
D14*
X617168Y19473771D02*
X1379073Y19473771D01*
X998121Y19092819D02*
X998121Y19854724D01*
X1285501Y9117105D02*
X285501Y9117105D01*
X285501Y9355200D01*
X333120Y9498058D01*
X428358Y9593296D01*
X523596Y9640915D01*
X714072Y9688534D01*
X856930Y9688534D01*
X1047406Y9640915D01*
X1142644Y9593296D01*
X1237882Y9498058D01*
X1285501Y9355200D01*
X1285501Y9117105D01*
X1285501Y10640915D02*
X1285501Y10069486D01*
X1285501Y10355200D02*
X285501Y10355200D01*
X428358Y10259962D01*
X523596Y10164724D01*
X571215Y10069486D01*
X8270501Y12800105D02*
X7270501Y12800105D01*
X7270501Y13038200D01*
X7318120Y13181058D01*
X7413358Y13276296D01*
X7508596Y13323915D01*
X7699072Y13371534D01*
X7841930Y13371534D01*
X8032406Y13323915D01*
X8127644Y13276296D01*
X8222882Y13181058D01*
X8270501Y13038200D01*
X8270501Y12800105D01*
X7365739Y13752486D02*
X7318120Y13800105D01*
X7270501Y13895343D01*
X7270501Y14133439D01*
X7318120Y14228677D01*
X7365739Y14276296D01*
X7460977Y14323915D01*
X7556215Y14323915D01*
X7699072Y14276296D01*
X8270501Y13704867D01*
X8270501Y14323915D01*
X8270501Y16927534D02*
X7794310Y16594200D01*
X8270501Y16356105D02*
X7270501Y16356105D01*
X7270501Y16737058D01*
X7318120Y16832296D01*
X7365739Y16879915D01*
X7460977Y16927534D01*
X7603834Y16927534D01*
X7699072Y16879915D01*
X7746691Y16832296D01*
X7794310Y16737058D01*
X7794310Y16356105D01*
X8270501Y17879915D02*
X8270501Y17308486D01*
X8270501Y17594200D02*
X7270501Y17594200D01*
X7413358Y17498962D01*
X7508596Y17403724D01*
X7556215Y17308486D01*
X28812834Y15229153D02*
X29098549Y14467248D01*
X29384263Y15229153D01*
X29098549Y15705343D02*
X29098549Y16467248D01*
X28479501Y17705343D02*
X29289025Y17705343D01*
X29384263Y17752962D01*
X29431882Y17800581D01*
X29479501Y17895819D01*
X29479501Y18086296D01*
X29431882Y18181534D01*
X29384263Y18229153D01*
X29289025Y18276772D01*
X28479501Y18276772D01*
X29431882Y18705343D02*
X29479501Y18848200D01*
X29479501Y19086296D01*
X29431882Y19181534D01*
X29384263Y19229153D01*
X29289025Y19276772D01*
X29193787Y19276772D01*
X29098549Y19229153D01*
X29050930Y19181534D01*
X29003310Y19086296D01*
X28955691Y18895819D01*
X28908072Y18800581D01*
X28860453Y18752962D01*
X28765215Y18705343D01*
X28669977Y18705343D01*
X28574739Y18752962D01*
X28527120Y18800581D01*
X28479501Y18895819D01*
X28479501Y19133915D01*
X28527120Y19276772D01*
X28955691Y20038677D02*
X29003310Y20181534D01*
X29050930Y20229153D01*
X29146168Y20276772D01*
X29289025Y20276772D01*
X29384263Y20229153D01*
X29431882Y20181534D01*
X29479501Y20086296D01*
X29479501Y19705343D01*
X28479501Y19705343D01*
X28479501Y20038677D01*
X28527120Y20133915D01*
X28574739Y20181534D01*
X28669977Y20229153D01*
X28765215Y20229153D01*
X28860453Y20181534D01*
X28908072Y20133915D01*
X28955691Y20038677D01*
X28955691Y19705343D01*
X29011263Y24779437D02*
X29106501Y25065151D01*
X29201739Y25160390D01*
X29392215Y25255628D01*
X29677930Y25255628D01*
X29868406Y25160390D01*
X29963644Y25065151D01*
X30058882Y24874675D01*
X30058882Y24112770D01*
X28058882Y24112770D01*
X28058882Y24779437D01*
X28154120Y24969913D01*
X28249358Y25065151D01*
X28439834Y25160390D01*
X28630310Y25160390D01*
X28820787Y25065151D01*
X28916025Y24969913D01*
X29011263Y24779437D01*
X29011263Y24112770D01*
X30058882Y26398485D02*
X29963644Y26208009D01*
X29773168Y26112770D01*
X28058882Y26112770D01*
X28725549Y28017532D02*
X30058882Y28017532D01*
X28725549Y27160389D02*
X29773168Y27160389D01*
X29963644Y27255628D01*
X30058882Y27446104D01*
X30058882Y27731818D01*
X29963644Y27922294D01*
X29868406Y28017532D01*
X29963644Y29731818D02*
X30058882Y29541342D01*
X30058882Y29160390D01*
X29963644Y28969913D01*
X29773168Y28874675D01*
X29011263Y28874675D01*
X28820787Y28969913D01*
X28725549Y29160390D01*
X28725549Y29541342D01*
X28820787Y29731818D01*
X29011263Y29827056D01*
X29201739Y29827056D01*
X29392215Y28874675D01*
X30058882Y30684199D02*
X28058882Y30684199D01*
X28058882Y31446104D01*
X28154120Y31636580D01*
X28249358Y31731819D01*
X28439834Y31827057D01*
X28725549Y31827057D01*
X28916025Y31731819D01*
X29011263Y31636580D01*
X29106501Y31446104D01*
X29106501Y30684199D01*
X30058882Y32684199D02*
X28725549Y32684199D01*
X28058882Y32684199D02*
X28154120Y32588961D01*
X28249358Y32684199D01*
X28154120Y32779438D01*
X28058882Y32684199D01*
X28249358Y32684199D01*
X30058882Y33922295D02*
X29963644Y33731819D01*
X29773168Y33636580D01*
X28058882Y33636580D01*
X30058882Y34969914D02*
X29963644Y34779438D01*
X29773168Y34684199D01*
X28058882Y34684199D01*
X29963644Y37160390D02*
X30058882Y37446105D01*
X30058882Y37922295D01*
X29963644Y38112771D01*
X29868406Y38208009D01*
X29677930Y38303248D01*
X29487453Y38303248D01*
X29296977Y38208009D01*
X29201739Y38112771D01*
X29106501Y37922295D01*
X29011263Y37541343D01*
X28916025Y37350867D01*
X28820787Y37255628D01*
X28630310Y37160390D01*
X28439834Y37160390D01*
X28249358Y37255628D01*
X28154120Y37350867D01*
X28058882Y37541343D01*
X28058882Y38017533D01*
X28154120Y38303248D01*
X28058882Y38874676D02*
X28058882Y40017533D01*
X30058882Y39446105D02*
X28058882Y39446105D01*
X30058882Y40684200D02*
X28058882Y40684200D01*
X29487453Y41350867D01*
X28058882Y42017534D01*
X30058882Y42017534D01*
X28058882Y42779438D02*
X28058882Y44017534D01*
X28820787Y43350867D01*
X28820787Y43636581D01*
X28916025Y43827057D01*
X29011263Y43922295D01*
X29201739Y44017534D01*
X29677930Y44017534D01*
X29868406Y43922295D01*
X29963644Y43827057D01*
X30058882Y43636581D01*
X30058882Y43065153D01*
X29963644Y42874676D01*
X29868406Y42779438D01*
X28249358Y44779438D02*
X28154120Y44874676D01*
X28058882Y45065153D01*
X28058882Y45541343D01*
X28154120Y45731819D01*
X28249358Y45827057D01*
X28439834Y45922296D01*
X28630310Y45922296D01*
X28916025Y45827057D01*
X30058882Y44684200D01*
X30058882Y45922296D01*
X29011263Y47446105D02*
X29011263Y46779438D01*
X30058882Y46779438D02*
X28058882Y46779438D01*
X28058882Y47731819D01*
X30058882Y49541344D02*
X30058882Y48398486D01*
X30058882Y48969915D02*
X28058882Y48969915D01*
X28344596Y48779439D01*
X28535072Y48588963D01*
X28630310Y48398486D01*
X28058882Y50779439D02*
X28058882Y50969915D01*
X28154120Y51160391D01*
X28249358Y51255629D01*
X28439834Y51350867D01*
X28820787Y51446106D01*
X29296977Y51446106D01*
X29677930Y51350867D01*
X29868406Y51255629D01*
X29963644Y51160391D01*
X30058882Y50969915D01*
X30058882Y50779439D01*
X29963644Y50588963D01*
X29868406Y50493725D01*
X29677930Y50398486D01*
X29296977Y50303248D01*
X28820787Y50303248D01*
X28439834Y50398486D01*
X28249358Y50493725D01*
X28154120Y50588963D01*
X28058882Y50779439D01*
X28058882Y52112772D02*
X28058882Y53350868D01*
X28820787Y52684201D01*
X28820787Y52969915D01*
X28916025Y53160391D01*
X29011263Y53255629D01*
X29201739Y53350868D01*
X29677930Y53350868D01*
X29868406Y53255629D01*
X29963644Y53160391D01*
X30058882Y52969915D01*
X30058882Y52398487D01*
X29963644Y52208010D01*
X29868406Y52112772D01*
X17325549Y70396248D02*
X17325549Y71158153D01*
X17706501Y70777201D02*
X16944596Y70777201D01*
X45189549Y61328248D02*
X45189549Y62090153D01*
X45570501Y61709201D02*
X44808596Y61709201D01*
X43195501Y53186105D02*
X42195501Y53186105D01*
X42195501Y53424200D01*
X42243120Y53567058D01*
X42338358Y53662296D01*
X42433596Y53709915D01*
X42624072Y53757534D01*
X42766930Y53757534D01*
X42957406Y53709915D01*
X43052644Y53662296D01*
X43147882Y53567058D01*
X43195501Y53424200D01*
X43195501Y53186105D01*
X42195501Y54090867D02*
X42195501Y54709915D01*
X42576453Y54376581D01*
X42576453Y54519439D01*
X42624072Y54614677D01*
X42671691Y54662296D01*
X42766930Y54709915D01*
X43005025Y54709915D01*
X43100263Y54662296D01*
X43147882Y54614677D01*
X43195501Y54519439D01*
X43195501Y54233724D01*
X43147882Y54138486D01*
X43100263Y54090867D01*
X14065025Y69981819D02*
X14065025Y70981819D01*
X14303120Y70981819D01*
X14445978Y70934200D01*
X14541216Y70838962D01*
X14588835Y70743724D01*
X14636454Y70553248D01*
X14636454Y70410390D01*
X14588835Y70219914D01*
X14541216Y70124676D01*
X14445978Y70029438D01*
X14303120Y69981819D01*
X14065025Y69981819D01*
X15493597Y70648486D02*
X15493597Y69981819D01*
X15255501Y71029438D02*
X15017406Y70315152D01*
X15636454Y70315152D01*
X43322501Y57821534D02*
X42846310Y57488200D01*
X43322501Y57250105D02*
X42322501Y57250105D01*
X42322501Y57631058D01*
X42370120Y57726296D01*
X42417739Y57773915D01*
X42512977Y57821534D01*
X42655834Y57821534D01*
X42751072Y57773915D01*
X42798691Y57726296D01*
X42846310Y57631058D01*
X42846310Y57250105D01*
X42417739Y58202486D02*
X42370120Y58250105D01*
X42322501Y58345343D01*
X42322501Y58583439D01*
X42370120Y58678677D01*
X42417739Y58726296D01*
X42512977Y58773915D01*
X42608215Y58773915D01*
X42751072Y58726296D01*
X43322501Y58154867D01*
X43322501Y58773915D01*
X24074215Y71108819D02*
X24074215Y70299295D01*
X24121834Y70204057D01*
X24169453Y70156438D01*
X24264691Y70108819D01*
X24455168Y70108819D01*
X24550406Y70156438D01*
X24598025Y70204057D01*
X24645644Y70299295D01*
X24645644Y71108819D01*
X25074215Y71013581D02*
X25121834Y71061200D01*
X25217072Y71108819D01*
X25455168Y71108819D01*
X25550406Y71061200D01*
X25598025Y71013581D01*
X25645644Y70918343D01*
X25645644Y70823105D01*
X25598025Y70680248D01*
X25026596Y70108819D01*
X25645644Y70108819D01*
M02*
