M48
;DRILL file {KiCad 4.0.6+dfsg1-1} date Mon Feb 26 19:50:28 2018
;FORMAT={2:4/ absolute / inch / suppress leading zeros}
FMAT,2
INCH,TZ
T1C0.016
T2C0.020
T3C0.030
T4C0.039
T5C0.051
T6C0.126
%
G90
G05
M72
T1
X7978Y25117
X13128Y26130
X13378Y8580
X13668Y18800
X16178Y20797
X17103Y19130
T2
X583Y1830
X860Y2498
X860Y1162
X1528Y2775
X1528Y885
X2196Y2498
X2196Y1162
X2473Y1830
X4933Y22580
X5210Y23248
X5210Y21912
X5878Y23525
X5878Y21635
X6546Y23248
X6546Y21912
X6823Y22580
X13433Y1530
X13710Y2198
X13710Y862
X14378Y2475
X14378Y585
X15046Y2198
X15046Y862
X15323Y1530
X18433Y16880
X18683Y26530
X18710Y17548
X18710Y16212
X18960Y27198
X18960Y25862
X19378Y17825
X19378Y15935
X19628Y27475
X19628Y25585
X20046Y17548
X20046Y16212
X20296Y27198
X20296Y25862
X20323Y16880
X20573Y26530
T3
X8428Y23030
X8428Y22030
X8428Y21030
X8428Y20030
X8428Y19030
X8428Y18030
X8428Y17030
X8428Y16030
X8428Y15030
X8428Y14030
X8428Y13030
X8428Y12030
X8428Y11030
X8428Y10030
X8428Y9030
X8428Y8030
X8428Y7030
X8428Y6030
X8428Y5030
X8428Y4030
X14428Y23030
X14428Y22030
X14428Y21030
X14428Y20030
X14428Y19030
X14428Y18030
X14428Y17030
X14428Y16030
X14428Y15030
X14428Y14030
X14428Y13030
X14428Y12030
X14428Y11030
X14428Y10030
X14428Y9030
X14428Y8030
X14428Y7030
X14428Y6030
X14428Y5030
X14428Y4030
T4
X678Y22080
X678Y21080
X678Y20080
X678Y19080
X678Y18080
X928Y14830
X928Y13630
X928Y12430
X928Y11230
X1778Y22080
X1778Y21080
X1778Y20080
X1778Y19080
X1778Y18080
X1928Y14830
X1928Y13630
X1928Y12430
X1928Y11230
X2878Y22080
X2878Y21080
X2878Y20080
X2878Y19080
X2878Y18080
X2928Y14830
X2928Y13630
X2928Y12430
X2928Y11230
X4378Y15880
X5378Y15880
X6378Y15880
X6428Y10030
X6428Y9030
X6428Y8030
X6478Y6630
X6478Y5630
X16478Y19080
X16478Y18080
X16478Y17080
X16478Y16080
X16478Y15080
X16478Y14080
X16478Y13080
X16478Y12080
X16478Y10630
X16478Y9630
X16478Y8630
X18178Y7180
X18178Y6180
X18178Y5180
X18178Y4180
X18178Y3180
X18178Y2180
X18678Y21705
X18678Y20705
X18678Y19705
X18678Y18705
X19278Y7180
X19278Y6180
X19278Y5180
X19278Y4180
X19278Y3180
X19278Y2180
X19428Y14430
X19428Y13430
X19428Y12430
X20378Y7180
X20378Y6180
X20378Y5180
X20378Y4180
X20378Y3180
X20378Y2180
T5
X2128Y27099
X2128Y25130
X4028Y1880
X5997Y1880
T6
X1528Y1830
X5878Y22580
X14378Y1530
X19378Y16880
X19628Y26530
T0
M30
